# 3ds Max Wavefront OBJ Exporter v0.99 - (c)2007 guruware
# File Created: 20.03.2024 17:59:36

mtllib 0320.mtl

#
# object Plane001
#

v  -323.8079 9.4763 -323.2875
v  -323.8079 9.4763 324.2627
v  323.7423 9.4763 324.2627
v  323.7423 9.4763 -323.2875
# 4 vertices

vn 0.0000 1.0000 -0.0000
# 1 vertex normals

vt 0.0000 1.0000 0.0000
vt 0.0000 0.0000 0.0000
vt 1.0000 0.0000 0.0000
vt 1.0000 1.0000 0.0000
# 4 texture coords

o Plane001
g Plane001
usemtl Material__25
s 1
f 1/1/1 2/2/1 3/3/1 4/4/1 
# 1 polygons

