# 3ds Max Wavefront OBJ Exporter v0.99 - (c)2007 guruware
# File Created: 19.05.2024 16:52:54

#
# object Plane041
#

v  -1.3315 1.1583 -0.0317
v  -0.9650 0.6184 0.0721
v  -1.0061 1.1350 -0.0296
v  -0.6037 0.6184 0.0721
v  -0.6037 1.1350 -0.0296
v  -0.2012 0.6184 0.0721
v  -0.2012 1.1350 -0.0296
v  0.2012 0.6184 0.0721
v  0.2012 1.1350 -0.0296
v  0.6037 0.6184 0.0721
v  0.6037 1.1350 -0.0296
v  0.9650 0.6184 0.0721
v  1.0061 1.1350 -0.0296
v  1.3315 1.1583 -0.0317
v  -1.0061 1.7343 -0.0821
v  -1.3315 1.7109 -0.0800
v  -0.6037 1.7343 -0.0821
v  -0.2012 1.7343 -0.0821
v  0.2012 1.7343 -0.0821
v  0.6037 1.7343 -0.0821
v  1.0061 1.7343 -0.0821
v  1.3315 1.7109 -0.0800
v  -0.9650 2.2606 -0.0716
v  -0.6199 2.2606 -0.0716
v  -0.2175 2.0836 -0.0561
v  0.2175 2.0836 -0.0561
v  0.6199 2.2606 -0.0716
v  0.9650 2.2606 -0.0716
v  -1.4086 1.1378 0.0030
v  -1.4086 1.1350 -0.0299
v  -1.0061 0.5416 0.0786
v  -1.0061 0.5444 0.1114
v  -0.6037 0.5416 0.0786
v  -0.6037 0.5444 0.1114
v  -0.2012 0.5416 0.0786
v  -0.2012 0.5444 0.1114
v  0.2012 0.5416 0.0786
v  0.2012 0.5444 0.1114
v  0.6037 0.5416 0.0786
v  0.6037 0.5444 0.1114
v  1.0061 0.5416 0.0786
v  1.0061 0.5444 0.1114
v  1.4086 1.1378 0.0030
v  1.4086 1.1350 -0.0299
v  -1.4086 1.7371 -0.0495
v  -1.4086 1.7343 -0.0823
v  1.4086 1.7343 -0.0823
v  1.4086 1.7371 -0.0495
v  -1.0061 2.3403 -0.0457
v  -1.0061 2.3374 -0.0786
v  -0.6037 2.3403 -0.0457
v  -0.6037 2.3374 -0.0786
v  -0.2012 2.1633 -0.0302
v  -0.2012 2.1604 -0.0631
v  0.2012 2.1633 -0.0302
v  0.2012 2.1604 -0.0631
v  0.6037 2.3403 -0.0457
v  0.6037 2.3374 -0.0786
v  1.0061 2.3403 -0.0457
v  1.0061 2.3374 -0.0786
v  -0.9650 0.6213 0.1047
v  -1.3315 1.1612 0.0009
v  -0.6037 0.6213 0.1047
v  -0.2012 0.6213 0.1047
v  0.2012 0.6213 0.1047
v  0.6037 0.6213 0.1047
v  0.9650 0.6213 0.1047
v  1.3315 1.1612 0.0009
v  1.3315 1.7138 -0.0474
v  0.9650 2.2635 -0.0390
v  0.6199 2.2635 -0.0390
v  0.2175 2.0865 -0.0235
v  -0.2175 2.0865 -0.0235
v  -0.6199 2.2635 -0.0390
v  -0.9650 2.2635 -0.0390
v  -1.3315 1.7138 -0.0474
v  1.2337 0.5877 0.2960
v  1.2755 0.5293 0.3012
v  1.4275 0.5293 0.3012
v  1.4275 1.3308 0.2310
v  0.4933 1.3308 0.2310
v  0.4933 1.1036 0.2509
v  0.4710 0.5293 0.3012
v  0.6926 0.5293 0.3012
v  0.7344 0.5877 0.2960
v  0.1885 0.9831 0.2615
v  0.1885 0.6716 0.2887
v  1.4575 0.5037 0.3232
v  1.4575 0.5004 0.2857
v  1.4575 1.3565 0.2108
v  1.4575 1.3598 0.2483
v  0.4633 1.3565 0.2108
v  0.4633 1.3598 0.2483
v  0.4633 0.5037 0.3232
v  0.4633 0.5004 0.2857
v  0.7089 0.5004 0.2857
v  0.7089 0.5037 0.3232
v  0.4633 1.1199 0.2315
v  0.4633 1.1232 0.2690
v  0.7507 0.5589 0.2806
v  0.7507 0.5622 0.3181
v  1.2174 0.5589 0.2806
v  1.2174 0.5622 0.3181
v  1.2593 0.5037 0.3232
v  1.2593 0.5004 0.2857
v  0.1585 0.9994 0.2421
v  0.1585 1.0027 0.2795
v  0.1585 0.6539 0.2723
v  0.1585 0.6572 0.3098
v  1.4275 1.3325 0.2507
v  1.4275 0.5310 0.3208
v  0.4933 1.3325 0.2507
v  0.4933 1.1053 0.2706
v  0.1885 0.9848 0.2811
v  0.1885 0.6733 0.3083
v  0.4710 0.5310 0.3208
v  0.6926 0.5310 0.3208
v  0.7344 0.5895 0.3157
v  1.2337 0.5894 0.3157
v  1.2755 0.5310 0.3208
v  1.0787 0.4794 0.4591
v  0.5379 0.4794 0.4591
v  0.5443 0.0444 0.5358
v  1.0723 0.0444 0.5358
v  1.3842 0.0923 0.5273
v  1.3842 0.5263 0.4508
v  0.2324 0.0923 0.5273
v  0.2324 0.5263 0.4508
v  1.0755 0.5055 0.4695
v  1.0755 0.4994 0.4346
v  0.5411 0.4994 0.4346
v  0.5411 0.5055 0.4695
v  0.5411 0.0235 0.5545
v  0.5411 0.0173 0.5196
v  1.0755 0.0173 0.5196
v  1.0755 0.0235 0.5545
v  1.4156 0.0756 0.5453
v  1.4156 0.0695 0.5104
v  1.4156 0.5515 0.4254
v  1.4156 0.5577 0.4603
v  0.2010 0.5577 0.4603
v  0.2010 0.5515 0.4254
v  0.2010 0.0695 0.5104
v  0.2010 0.0756 0.5453
v  0.5379 0.4820 0.4736
v  1.0787 0.4820 0.4736
v  0.2324 0.5288 0.4653
v  0.2324 0.0948 0.5419
v  0.5443 0.0470 0.5503
v  1.0723 0.0470 0.5503
v  1.3842 0.0948 0.5419
v  1.3842 0.5288 0.4653
v  -0.2240 0.4794 0.4591
v  -0.7648 0.4794 0.4591
v  -0.7584 0.0444 0.5358
v  -0.2304 0.0444 0.5358
v  0.0815 0.0923 0.5273
v  0.0815 0.5263 0.4508
v  -1.0703 0.0923 0.5273
v  -1.0703 0.5263 0.4508
v  -0.2272 0.5055 0.4695
v  -0.2265 0.4994 0.4346
v  -0.7609 0.4994 0.4346
v  -0.7616 0.5055 0.4695
v  -0.7616 0.0235 0.5545
v  -0.7609 0.0173 0.5196
v  -0.2265 0.0173 0.5196
v  -0.2272 0.0235 0.5545
v  0.1129 0.0756 0.5453
v  0.1136 0.0695 0.5104
v  0.1136 0.5515 0.4254
v  0.1129 0.5577 0.4603
v  -1.1017 0.5577 0.4603
v  -1.1017 0.5515 0.4254
v  -1.1017 0.0695 0.5104
v  -1.1017 0.0756 0.5453
v  -0.7648 0.4820 0.4736
v  -0.2240 0.4820 0.4736
v  -1.0703 0.5288 0.4653
v  -1.0703 0.0948 0.5419
v  -0.7584 0.0470 0.5503
v  -0.2304 0.0470 0.5503
v  0.0815 0.0948 0.5419
v  0.0815 0.5288 0.4653
v  -1.5074 2.7818 0.1004
v  -1.5074 2.1462 0.1560
v  -1.3869 2.1462 0.1560
v  -1.3537 2.1926 0.1519
v  -0.9579 2.1926 0.1519
v  -0.9247 2.1462 0.1560
v  -0.7490 2.1462 0.1560
v  -0.7666 2.6016 0.1161
v  -0.7666 2.7818 0.1004
v  -0.5250 2.2591 0.1461
v  -0.5250 2.5061 0.1245
v  -1.5312 2.8022 0.0844
v  -1.5312 2.1234 0.1437
v  -1.5312 2.1260 0.1734
v  -1.5312 2.8048 0.1141
v  -0.7429 2.8022 0.0844
v  -0.7429 2.8048 0.1141
v  -0.9376 2.1234 0.1437
v  -0.7429 2.1234 0.1437
v  -0.7429 2.1260 0.1734
v  -0.9376 2.1260 0.1734
v  -0.7429 2.6145 0.1008
v  -0.7429 2.6171 0.1305
v  -0.9707 2.1697 0.1397
v  -0.9707 2.1723 0.1694
v  -1.3408 2.1697 0.1397
v  -1.3408 2.1723 0.1694
v  -1.3740 2.1234 0.1437
v  -1.3740 2.1260 0.1734
v  -0.5012 2.5190 0.1091
v  -0.5012 2.5216 0.1388
v  -0.5012 2.2451 0.1331
v  -0.5012 2.2477 0.1628
v  -1.5074 2.1476 0.1715
v  -1.5074 2.7831 0.1159
v  -0.7666 2.7831 0.1159
v  -0.7666 2.6030 0.1317
v  -0.5250 2.5074 0.1401
v  -0.5250 2.2604 0.1617
v  -0.7490 2.1476 0.1715
v  -0.9247 2.1476 0.1715
v  -0.9579 2.1940 0.1675
v  -1.3537 2.1939 0.1675
v  -1.3869 2.1476 0.1715
# 228 vertices

vn 0.0027 0.1254 0.9921
vn 0.0018 0.1933 0.9811
vn 0.0021 0.1418 0.9899
vn 0.0000 0.1932 0.9812
vn 0.0000 0.1404 0.9901
vn -0.0018 0.1933 0.9811
vn -0.0021 0.1418 0.9899
vn -0.0027 0.1254 0.9921
vn 0.0022 0.0323 0.9995
vn 0.0028 0.0488 0.9988
vn -0.0073 0.0279 0.9996
vn -0.0070 0.0142 0.9999
vn 0.0070 0.0142 0.9999
vn 0.0073 0.0279 0.9996
vn -0.0022 0.0323 0.9995
vn -0.0028 0.0488 0.9988
vn 0.0019 -0.0201 0.9998
vn -0.0118 -0.0293 0.9995
vn -0.0163 -0.0562 0.9983
vn 0.0163 -0.0562 0.9983
vn 0.0118 -0.0293 0.9995
vn -0.0019 -0.0201 0.9998
vn -0.9544 -0.2973 0.0253
vn -0.9591 -0.2822 0.0241
vn -0.8307 -0.5548 0.0473
vn 0.0000 -0.9964 0.0851
vn 0.9544 -0.2973 0.0253
vn 0.8307 -0.5548 0.0473
vn 0.9591 -0.2822 0.0241
vn -0.9547 0.2965 -0.0257
vn -0.9588 0.2829 -0.0245
vn 0.9588 0.2829 -0.0245
vn 0.9547 0.2965 -0.0257
vn -0.8307 0.5546 -0.0481
vn 0.2063 0.9747 -0.0859
vn 0.2064 0.9747 -0.0859
vn 0.0000 0.9961 -0.0878
vn -0.2064 0.9747 -0.0859
vn -0.2063 0.9747 -0.0859
vn 0.8307 0.5546 -0.0481
vn -0.0529 0.1490 0.9874
vn 0.0000 0.0868 0.9962
vn 0.0529 0.1490 0.9874
vn 0.0001 0.0872 0.9962
vn 0.0532 0.0249 0.9983
vn 0.0000 0.0869 0.9962
vn 0.0001 0.0869 0.9962
vn -0.0001 0.0869 0.9962
vn -0.0532 0.0249 0.9983
vn -0.0001 0.0872 0.9962
vn 0.8308 0.5545 -0.0493
vn 0.0000 0.9961 -0.0886
vn -0.8308 0.5545 -0.0493
vn -1.0000 0.0000 -0.0000
vn -0.8307 -0.5546 0.0493
vn 0.0000 -0.9961 0.0886
vn 0.4039 -0.9112 0.0811
vn -0.4039 -0.9112 0.0811
vn 0.8307 -0.5546 0.0493
vn 1.0000 0.0000 -0.0000
vn 0.0000 0.0872 0.9962
vn 0.0000 0.9962 -0.0877
vn -0.2319 -0.9690 0.0853
vn 0.0000 -0.9962 0.0877
vn 0.8147 -0.5777 0.0508
vn -0.8140 -0.5786 0.0509
vn -0.3689 0.9259 -0.0816
vn -0.4512 -0.8890 0.0782
vn 0.0000 0.0871 0.9962
vn 0.0000 0.0876 0.9962
vn -0.0007 0.0872 0.9962
vn -0.0005 0.0881 0.9961
vn 0.0010 0.0872 0.9962
vn 0.0008 0.0888 0.9960
vn -0.0006 0.0872 0.9962
vn 0.0000 0.0877 0.9961
vn 0.0006 0.0874 0.9962
vn 0.0000 -0.9963 0.0860
vn 0.3689 -0.9260 0.0801
vn 0.4512 0.8891 -0.0771
vn 0.0000 0.9963 -0.0864
vn -0.8145 0.5779 -0.0515
vn 0.0001 0.9961 -0.0885
vn 0.8142 0.5784 -0.0500
vn 0.0001 0.1736 0.9848
vn -0.0001 0.1736 0.9848
vn -0.0772 0.9820 -0.1723
vn 0.0772 0.9820 -0.1723
vn -0.0772 -0.9818 0.1737
vn 0.0772 -0.9818 0.1737
vn -0.1539 0.9731 -0.1715
vn 0.1539 -0.9731 0.1715
vn -0.1539 -0.9731 0.1715
vn 0.1539 0.9731 -0.1715
vn 0.0000 0.1719 0.9851
vn -0.0005 0.1708 0.9853
vn 0.0017 0.1737 0.9848
vn 0.0002 0.1750 0.9846
vn 0.0000 0.1759 0.9844
vn -0.0002 0.1750 0.9846
vn -0.0017 0.1737 0.9848
vn 0.0005 0.1708 0.9853
vn 0.0000 -0.9843 0.1765
vn -0.1539 -0.9732 0.1711
vn 0.1539 0.9732 -0.1706
vn 0.0000 0.9843 -0.1765
vn -0.1539 0.9732 -0.1706
vn 0.1539 -0.9732 0.1711
vn -0.0762 0.9818 -0.1738
vn -0.0781 0.9817 -0.1739
vn 0.0761 0.9822 -0.1716
vn 0.0780 0.9821 -0.1716
vn -0.0780 -0.9818 0.1729
vn -0.0761 -0.9820 0.1730
vn 0.0781 -0.9814 0.1752
vn 0.0762 -0.9816 0.1752
vn 0.9998 0.0034 0.0194
vn -0.1539 0.9726 -0.1745
vn 0.1539 -0.9726 0.1745
vn -0.1537 -0.9734 0.1700
vn 0.1537 0.9734 -0.1700
vn 0.0000 0.9962 -0.0872
vn 0.0000 -0.9962 0.0872
vn 0.2318 -0.9690 0.0848
vn 0.2319 -0.9690 0.0848
vn -0.8145 -0.5779 0.0506
vn 0.8137 -0.5791 0.0507
vn 0.3687 0.9260 -0.0811
vn 0.4511 -0.8891 0.0778
vn 0.0023 0.0871 0.9962
vn 0.0000 0.0827 0.9966
vn -0.0028 0.0872 0.9962
vn 0.0002 0.0876 0.9962
vn 0.0014 0.0872 0.9962
vn -0.0002 0.0870 0.9962
vn 0.0011 0.0868 0.9962
vn -0.0000 0.0874 0.9962
vn -0.0012 0.0869 0.9962
vn 0.0000 -0.9965 0.0836
vn -0.3690 -0.9260 0.0801
vn -0.4513 0.8890 -0.0772
vn 0.0000 0.9959 -0.0900
vn 0.8143 0.5781 -0.0520
vn -0.0001 0.9963 -0.0862
vn -0.8140 0.5787 -0.0502
# 145 vertex normals

vt 0.0000 0.1667 0.0000
vt 0.1429 0.0000 0.0000
vt 0.1429 0.3333 0.0000
vt 0.2857 0.0000 0.0000
vt 0.2857 0.3333 0.0000
vt 0.4286 0.0000 0.0000
vt 0.4286 0.3333 0.0000
vt 0.5714 0.0000 0.0000
vt 0.5714 0.3333 0.0000
vt 0.7143 0.0000 0.0000
vt 0.7143 0.3333 0.0000
vt 0.8571 0.0000 0.0000
vt 0.8571 0.3333 0.0000
vt 1.0000 0.1667 0.0000
vt 0.1429 0.6667 0.0000
vt 0.0000 0.8333 0.0000
vt 0.2857 0.6667 0.0000
vt 0.4286 0.6667 0.0000
vt 0.5714 0.6667 0.0000
vt 0.7143 0.6667 0.0000
vt 0.8571 0.6667 0.0000
vt 1.0000 0.8333 0.0000
vt 0.1429 1.0000 0.0000
vt 0.2857 1.0000 0.0000
vt 0.4286 1.0000 0.0000
vt 0.5714 1.0000 0.0000
vt 0.7143 1.0000 0.0000
vt 0.8571 1.0000 0.0000
vt 0.7979 0.0664 0.0000
vt 0.8331 0.0000 0.0000
vt 1.0000 0.0000 0.0000
vt 1.0000 1.0000 0.0000
vt 0.2565 1.0000 0.0000
vt 0.2595 0.7236 0.0000
vt 0.2536 0.0000 0.0000
vt 0.4634 0.0000 0.0000
vt 0.4986 0.0701 0.0000
vt 0.0000 0.6236 0.0000
vt 0.0000 0.2201 0.0000
vt 0.7200 1.0000 0.0000
vt 0.2800 1.0000 0.0000
vt 0.2800 0.0000 0.0000
vt 0.7200 0.0000 0.0000
vt 0.0000 0.0000 0.0000
vt 0.0000 1.0000 0.0000
# 45 texture coords

o Plane041
g Plane041
s 1
f 1/1/1 2/2/2 3/3/3 
f 2/2/2 4/4/4 5/5/5 3/3/3 
f 6/6/4 7/7/5 5/5/5 4/4/4 
f 8/8/4 9/9/5 7/7/5 6/6/4 
f 10/10/4 11/11/5 9/9/5 8/8/4 
f 12/12/6 13/13/7 11/11/5 10/10/4 
f 13/13/7 12/12/6 14/14/8 
f 3/3/3 15/15/9 16/16/10 1/1/1 
f 5/5/5 17/17/11 15/15/9 3/3/3 
f 7/7/5 18/18/12 17/17/11 5/5/5 
f 9/9/5 19/19/13 18/18/12 7/7/5 
f 11/11/5 20/20/14 19/19/13 9/9/5 
f 13/13/7 21/21/15 20/20/14 11/11/5 
f 14/14/8 22/22/16 21/21/15 13/13/7 
f 16/16/10 15/15/9 23/23/17 
f 17/17/11 24/24/18 23/23/17 15/15/9 
f 17/17/11 18/18/12 25/25/19 24/24/18 
f 19/19/13 26/26/20 25/25/19 18/18/12 
f 20/20/14 27/27/21 26/26/20 19/19/13 
f 20/20/14 21/21/15 28/28/22 27/27/21 
f 28/28/22 21/21/15 22/22/16 
s 2
f 29/1/23 30/1/24 31/2/25 32/2/25 
s 4
f 32/2/26 31/2/26 33/4/26 34/4/26 
f 34/4/26 33/4/26 35/6/26 36/6/26 
f 36/6/26 35/6/26 37/8/26 38/8/26 
f 38/8/26 37/8/26 39/10/26 40/10/26 
f 40/10/26 39/10/26 41/12/26 42/12/26 
s 2
f 43/14/27 42/12/28 41/12/28 44/14/29 
f 45/16/30 46/16/31 30/1/24 29/1/23 
f 43/14/27 44/14/29 47/22/32 48/22/33 
f 45/16/30 49/23/34 50/23/34 46/16/31 
s 4
f 51/24/35 52/24/36 50/23/37 49/23/37 
f 53/25/36 54/25/35 52/24/36 51/24/35 
f 55/26/38 56/26/39 54/25/35 53/25/36 
f 57/27/39 58/27/38 56/26/39 55/26/38 
f 59/28/37 60/28/37 58/27/38 57/27/39 
s 2
f 48/22/33 47/22/32 60/28/40 59/28/40 
s off
f 29/1/41 32/2/41 61/2/41 62/1/41 
f 34/4/42 63/4/42 61/2/42 32/2/42 
f 36/6/42 64/6/42 63/4/42 34/4/42 
f 38/8/42 65/8/42 64/6/42 36/6/42 
f 40/10/42 66/10/42 65/8/42 38/8/42 
f 40/10/42 42/12/42 67/12/42 66/10/42 
f 43/14/43 68/14/43 67/12/43 42/12/43 
f 48/22/44 69/22/44 68/14/44 43/14/44 
f 48/22/45 59/28/45 70/28/45 69/22/45 
f 57/27/46 71/27/46 70/28/46 59/28/46 
f 55/26/47 72/26/47 71/27/47 57/27/47 
f 53/25/46 73/25/46 72/26/46 55/26/46 
f 53/25/48 51/24/48 74/24/48 73/25/48 
f 51/24/46 49/23/46 75/23/46 74/24/46 
f 45/16/49 76/16/49 75/23/49 49/23/49 
f 29/1/50 62/1/50 76/16/50 45/16/50 
f 62/1/51 61/2/51 2/2/51 1/1/51 
f 63/4/52 4/4/52 2/2/52 61/2/52 
f 64/6/52 6/6/52 4/4/52 63/4/52 
f 65/8/52 8/8/52 6/6/52 64/6/52 
f 66/10/52 10/10/52 8/8/52 65/8/52 
f 67/12/52 12/12/52 10/10/52 66/10/52 
f 68/14/53 14/14/53 12/12/53 67/12/53 
f 69/22/54 22/22/54 14/14/54 68/14/54 
f 69/22/55 70/28/55 28/28/55 22/22/55 
f 71/27/56 27/27/56 28/28/56 70/28/56 
f 72/26/57 26/26/57 27/27/57 71/27/57 
f 73/25/56 25/25/56 26/26/56 72/26/56 
f 74/24/58 24/24/58 25/25/58 73/25/58 
f 75/23/56 23/23/56 24/24/56 74/24/56 
f 76/16/59 16/16/59 23/23/59 75/23/59 
f 62/1/60 1/1/60 16/16/60 76/16/60 
s 1
f 77/29/61 78/30/61 79/31/61 80/32/61 81/33/61 82/34/61 83/35/61 84/36/61 85/37/61 
f 82/34/61 86/38/61 87/39/61 83/35/61 
s 2
f 88/31/60 89/31/60 90/32/60 91/32/60 
s 4
f 91/32/62 90/32/62 92/33/62 93/33/62 
s 2
f 94/35/63 95/35/63 96/36/64 97/36/64 
f 93/33/54 92/33/54 98/34/54 99/34/54 
s 4
f 97/36/65 96/36/65 100/37/65 101/37/65 
s 2
f 101/37/64 100/37/64 102/29/64 103/29/64 
s 4
f 104/30/64 105/30/64 89/31/64 88/31/64 
s 8
f 103/29/66 102/29/66 105/30/66 104/30/66 
s 4
f 99/34/67 98/34/67 106/38/67 107/38/67 
s 8
f 107/38/54 106/38/54 108/39/54 109/39/54 
s 2
f 109/39/68 108/39/68 95/35/63 94/35/63 
s off
f 91/32/69 110/32/69 111/31/69 88/31/69 
f 93/33/70 112/33/70 110/32/70 91/32/70 
f 99/34/71 113/34/71 112/33/71 93/33/71 
f 99/34/72 107/38/72 114/38/72 113/34/72 
f 109/39/73 115/39/73 114/38/73 107/38/73 
f 94/35/74 116/35/74 115/39/74 109/39/74 
f 94/35/70 97/36/70 117/36/70 116/35/70 
f 101/37/75 118/37/75 117/36/75 97/36/75 
f 103/29/76 119/29/76 118/37/76 101/37/76 
f 103/29/77 104/30/77 120/30/77 119/29/77 
f 104/30/70 88/31/70 111/31/70 120/30/70 
f 110/32/54 80/32/54 79/31/54 111/31/54 
f 112/33/78 81/33/78 80/32/78 110/32/78 
f 113/34/60 82/34/60 81/33/60 112/33/60 
f 114/38/79 86/38/79 82/34/79 113/34/79 
f 115/39/60 87/39/60 86/38/60 114/38/60 
f 116/35/80 83/35/80 87/39/80 115/39/80 
f 117/36/81 84/36/81 83/35/81 116/35/81 
f 118/37/82 85/37/82 84/36/82 117/36/82 
f 119/29/83 77/29/83 85/37/83 118/37/83 
f 120/30/84 78/30/84 77/29/84 119/29/84 
f 111/31/81 79/31/81 78/30/81 120/30/81 
s 1
f 121/40/85 122/41/86 123/42/86 124/43/85 
f 125/31/85 126/32/85 121/40/85 124/43/85 
f 127/44/86 123/42/86 122/41/86 128/45/86 
s 2
f 129/40/87 130/40/87 131/41/88 132/41/88 
f 133/42/89 134/42/89 135/43/90 136/43/90 
s 4
f 137/31/60 138/31/60 139/32/60 140/32/60 
s 2
f 140/32/91 139/32/91 130/40/87 129/40/87 
f 136/43/90 135/43/90 138/31/92 137/31/92 
s 4
f 141/45/54 142/45/54 143/44/54 144/44/54 
s 2
f 144/44/93 143/44/93 134/42/89 133/42/89 
f 132/41/88 131/41/88 142/45/94 141/45/94 
s off
f 132/41/95 145/41/95 146/40/95 129/40/95 
f 132/41/96 141/45/96 147/45/96 145/41/96 
f 144/44/97 148/44/97 147/45/97 141/45/97 
f 133/42/98 149/42/98 148/44/98 144/44/98 
f 136/43/99 150/43/99 149/42/99 133/42/99 
f 136/43/100 137/31/100 151/31/100 150/43/100 
f 137/31/101 140/32/101 152/32/101 151/31/101 
f 129/40/102 146/40/102 152/32/102 140/32/102 
f 145/41/103 122/41/103 121/40/103 146/40/103 
f 147/45/104 128/45/104 122/41/104 145/41/104 
f 148/44/60 127/44/60 128/45/60 147/45/60 
f 149/42/105 123/42/105 127/44/105 148/44/105 
f 150/43/106 124/43/106 123/42/106 149/42/106 
f 151/31/107 125/31/107 124/43/107 150/43/107 
f 152/32/54 126/32/54 125/31/54 151/31/54 
f 146/40/108 121/40/108 126/32/108 152/32/108 
s 1
f 153/40/85 154/41/86 155/42/86 156/43/85 
f 157/31/85 158/32/85 153/40/85 156/43/85 
f 159/44/86 155/42/86 154/41/86 160/45/86 
s 2
f 161/40/109 162/40/110 163/41/111 164/41/112 
f 165/42/113 166/42/114 167/43/115 168/43/116 
s 4
f 169/31/117 170/31/117 171/32/117 172/32/117 
s 2
f 172/32/118 171/32/118 162/40/110 161/40/109 
f 168/43/116 167/43/115 170/31/119 169/31/119 
s 4
f 173/45/54 174/45/54 175/44/54 176/44/54 
s 2
f 176/44/120 175/44/120 166/42/114 165/42/113 
f 164/41/112 163/41/111 174/45/121 173/45/121 
s off
f 164/41/95 177/41/95 178/40/95 161/40/95 
f 164/41/96 173/45/96 179/45/96 177/41/96 
f 176/44/97 180/44/97 179/45/97 173/45/97 
f 165/42/98 181/42/98 180/44/98 176/44/98 
f 168/43/99 182/43/99 181/42/99 165/42/99 
f 168/43/100 169/31/100 183/31/100 182/43/100 
f 169/31/101 172/32/101 184/32/101 183/31/101 
f 161/40/102 178/40/102 184/32/102 172/32/102 
f 177/41/103 154/41/103 153/40/103 178/40/103 
f 179/45/104 160/45/104 154/41/104 177/41/104 
f 180/44/60 159/44/60 160/45/60 179/45/60 
f 181/42/105 155/42/105 159/44/105 180/44/105 
f 182/43/106 156/43/106 155/42/106 181/42/106 
f 183/31/107 157/31/107 156/43/107 182/43/107 
f 184/32/54 158/32/54 157/31/54 183/31/54 
f 178/40/108 153/40/108 158/32/108 184/32/108 
s 1
f 185/32/69 186/31/69 187/30/69 188/29/69 189/37/69 190/36/69 191/35/61 192/34/69 193/33/69 
f 192/34/69 191/35/61 194/39/50 195/38/50 
s 2
f 196/32/54 197/31/54 198/31/54 199/32/54 
s 4
f 200/33/122 196/32/122 199/32/122 201/33/122 
s 2
f 202/36/123 203/35/124 204/35/125 205/36/123 
f 206/34/60 200/33/60 201/33/60 207/34/60 
s 4
f 208/37/126 202/36/126 205/36/126 209/37/126 
s 2
f 210/29/123 208/37/123 209/37/123 211/29/123 
s 4
f 197/31/123 212/30/123 213/30/123 198/31/123 
s 8
f 212/30/127 210/29/127 211/29/127 213/30/127 
s 4
f 214/38/128 206/34/128 207/34/128 215/38/128 
s 8
f 216/39/60 214/38/60 215/38/60 217/39/60 
s 2
f 203/35/124 216/39/129 217/39/129 204/35/125 
s off
f 218/31/130 219/32/130 199/32/130 198/31/130 
f 219/32/131 220/33/131 201/33/131 199/32/131 
f 220/33/132 221/34/132 207/34/132 201/33/132 
f 207/34/133 221/34/133 222/38/133 215/38/133 
f 222/38/134 223/39/134 217/39/134 215/38/134 
f 223/39/135 224/35/135 204/35/135 217/39/135 
f 204/35/70 224/35/70 225/36/70 205/36/70 
f 225/36/136 226/37/136 209/37/136 205/36/136 
f 226/37/137 227/29/137 211/29/137 209/37/137 
f 211/29/138 227/29/138 228/30/138 213/30/138 
f 213/30/70 228/30/70 218/31/70 198/31/70 
f 186/31/60 185/32/60 219/32/60 218/31/60 
f 185/32/139 193/33/139 220/33/139 219/32/139 
f 193/33/54 192/34/54 221/34/54 220/33/54 
f 192/34/140 195/38/140 222/38/140 221/34/140 
f 195/38/54 194/39/54 223/39/54 222/38/54 
f 194/39/141 191/35/141 224/35/141 223/39/141 
f 191/35/142 190/36/142 225/36/142 224/35/142 
f 190/36/143 189/37/143 226/37/143 225/36/143 
f 189/37/144 188/29/144 227/29/144 226/37/144 
f 188/29/145 187/30/145 228/30/145 227/29/145 
f 187/30/142 186/31/142 218/31/142 228/30/142 
# 189 polygons - 4 triangles

