# 3ds Max Wavefront OBJ Exporter v0.99 - (c)2007 guruware
# File Created: 19.05.2024 16:57:02

#
# object Box633
#

v  -0.0782 0.9786 -0.4894
v  -0.0782 0.9786 0.4894
v  0.1117 0.9786 0.4894
v  0.1117 0.9786 -0.4894
v  0.8860 0.3660 -0.5229
v  0.8860 0.3660 0.5229
v  0.8860 0.0368 0.5229
v  0.8860 0.0368 -0.5229
v  -0.8860 0.3660 0.5229
v  -0.8860 0.3660 -0.5229
v  -0.8860 0.0368 -0.5229
v  -0.8860 0.0368 0.5229
v  -0.0986 0.3530 0.5098
v  -0.0986 0.0499 0.5098
v  0.0986 0.0499 0.5098
v  0.0986 0.3530 0.5098
v  0.8860 0.5090 -0.5229
v  0.8860 0.5090 0.5229
v  0.8860 0.0000 0.5229
v  0.8860 0.0000 -0.5229
v  -0.8860 0.5090 0.5229
v  -0.8860 0.5090 -0.5229
v  -0.8860 0.0000 -0.5229
v  -0.8860 0.0000 0.5229
v  -0.1117 0.9876 0.5229
v  -0.1117 0.9517 0.5229
v  0.1117 0.9517 0.5229
v  0.1117 0.9876 0.5229
v  0.1117 0.0000 0.5229
v  0.1117 0.0368 0.5229
v  -0.1117 0.0368 0.5229
v  -0.1117 0.0000 0.5229
v  -0.5564 0.9786 -0.5022
v  -0.5564 0.9786 0.5022
v  -0.1994 0.9786 0.5022
v  -0.1994 0.9786 -0.5022
v  0.8171 0.9786 0.4894
v  0.8171 0.9786 -0.4894
v  0.1787 0.9786 -0.4894
v  0.1787 0.9786 0.4894
v  -0.8376 0.3530 0.5098
v  -0.8376 0.0499 0.5098
v  -0.1917 0.0499 0.5098
v  -0.1917 0.3530 0.5098
v  0.8376 0.0499 0.5098
v  0.8376 0.3530 0.5098
v  0.1917 0.3530 0.5098
v  0.1917 0.0499 0.5098
v  -0.5564 0.9876 0.5229
v  -0.5564 0.9517 0.5229
v  -0.1787 0.9517 0.5229
v  -0.1787 0.9876 0.5229
v  0.8506 0.3660 0.5356
v  0.8506 0.5090 0.5356
v  0.1787 0.5090 0.5356
v  0.1787 0.3660 0.5356
v  0.8506 0.0000 0.5229
v  0.8506 0.0368 0.5229
v  0.1787 0.0368 0.5229
v  0.1787 0.0000 0.5229
v  -0.8506 0.0368 0.5229
v  -0.8506 0.0000 0.5229
v  -0.1787 0.0000 0.5229
v  -0.1787 0.0368 0.5229
v  0.8860 0.9517 -0.5229
v  0.8860 0.9517 0.5229
v  -0.8860 0.9517 0.5229
v  -0.8860 0.9517 -0.5229
v  0.1117 0.3791 0.5098
v  0.1034 0.4959 0.5098
v  -0.1034 0.4959 0.5098
v  -0.1117 0.3791 0.5098
v  -0.8506 0.3660 0.5229
v  -0.8506 0.5090 0.5229
v  0.8506 0.9517 0.5229
v  0.8506 0.5090 0.5229
v  -0.1787 0.9876 -0.5229
v  -0.1117 0.9876 -0.5229
v  0.1750 0.9913 0.4858
v  0.1750 0.9913 -0.4858
v  0.1153 0.9913 -0.4858
v  0.1153 0.9913 0.4858
v  -0.1787 0.3660 0.5229
v  -0.1117 0.3660 0.5229
v  0.1787 0.3660 0.5229
v  0.1117 0.3660 0.5229
v  0.1787 0.9517 0.5356
v  0.1117 0.9517 0.5356
v  0.1117 0.5090 0.5356
v  0.1582 0.3791 0.5098
v  -0.1582 0.3791 0.5098
v  -0.1117 0.5090 0.5356
v  -0.1787 0.5090 0.5356
v  -0.1787 0.3660 0.5356
v  -0.8860 0.9876 -0.5229
v  -0.8860 0.9876 0.5229
v  -0.8506 0.9876 0.5229
v  -0.8506 0.9876 -0.5229
v  -0.8506 0.9517 0.5229
v  -0.8506 0.3660 0.5356
v  -0.5564 0.5090 0.5356
v  -0.8506 0.5090 0.5356
v  0.8860 0.9876 0.5229
v  0.8860 0.9876 -0.5229
v  0.8506 0.9876 -0.5229
v  0.8506 0.9876 0.5229
v  0.8506 0.3660 0.5229
v  0.1787 0.9876 0.5229
v  0.1787 0.9517 0.5229
v  -0.0986 0.3530 0.5229
v  0.0986 0.3530 0.5229
v  -0.0986 0.0499 0.5229
v  0.0986 0.0499 0.5229
v  -0.8376 0.3530 0.5229
v  -0.1917 0.3530 0.5229
v  -0.8376 0.0499 0.5229
v  -0.1917 0.0499 0.5229
v  0.8376 0.0499 0.5229
v  0.1917 0.0499 0.5229
v  0.8376 0.3530 0.5229
v  0.1917 0.3530 0.5229
v  0.1582 0.3791 0.5229
v  0.1117 0.3791 0.5229
v  0.1117 0.5090 0.5229
v  0.1034 0.4959 0.5229
v  -0.1117 0.5090 0.5229
v  -0.1034 0.4959 0.5229
v  -0.1582 0.3791 0.5229
v  -0.1117 0.3791 0.5229
v  -0.8299 0.9786 -0.5022
v  -0.8299 0.9786 0.5022
v  -0.1117 0.9517 0.5356
v  -0.1787 0.9517 0.5356
v  -0.5564 0.9517 0.5356
v  -0.8506 0.8767 0.5229
v  0.8506 0.9517 0.5356
v  -0.6856 0.8767 0.5229
v  -0.6856 0.8767 0.5356
v  -0.8506 0.8767 0.5356
v  -0.5564 0.9876 -0.5229
v  -0.5564 0.9876 -0.5022
v  -0.1994 0.9876 -0.5022
v  -0.8299 0.9876 -0.5022
v  -0.8299 0.9876 0.5022
v  -0.5564 0.9876 0.5022
v  -0.1994 0.9876 0.5022
v  0.1117 0.9876 -0.5229
v  0.1117 0.9876 -0.4894
v  0.1787 0.9876 -0.4894
v  0.1787 0.9876 -0.5229
v  -0.0782 0.9876 -0.4894
v  -0.0782 0.9876 0.4894
v  0.1117 0.9876 0.4894
v  0.1787 0.9876 0.4894
v  0.8171 0.9876 0.4894
v  0.8171 0.9876 -0.4894
v  0.1787 0.9876 -0.6166
v  0.1787 0.9517 -0.6166
v  0.1787 0.9517 -0.5229
v  0.8506 1.1199 -0.5680
v  0.8506 1.1199 -0.6166
v  0.1787 1.1199 -0.6166
v  0.1787 1.1199 -0.5680
v  0.8506 0.9517 -0.5229
v  0.8506 0.9517 -0.6166
v  0.8506 0.9876 -0.6166
v  0.8506 0.5090 -0.5229
v  0.8506 0.5891 -0.6166
v  0.1787 0.5891 -0.6166
v  0.1787 0.5090 -0.5229
v  0.8299 1.0006 -0.5490
v  0.8299 1.0936 -0.5807
v  0.1994 1.0936 -0.5807
v  0.1994 1.0006 -0.5490
v  0.8408 0.9969 -0.5260
v  0.1884 0.9969 -0.5260
v  0.8408 1.1106 -0.5648
v  0.1884 1.1106 -0.5648
# 178 vertices

vn 0.0000 1.0000 -0.0000
vn 1.0000 0.0000 -0.0000
vn -1.0000 0.0000 -0.0000
vn 0.0000 0.0000 1.0000
vn 0.0000 -1.0000 -0.0000
vn -0.9053 -0.4248 -0.0000
vn 0.9053 -0.4248 -0.0000
vn 0.9055 -0.4243 -0.0000
vn -0.9055 -0.4243 -0.0000
vn -0.5020 0.8648 -0.0000
vn 0.0000 0.0000 -1.0000
vn 0.7071 0.7071 -0.0000
vn 0.0000 0.6974 -0.7167
vn -0.7167 0.6974 -0.0000
vn 0.0000 0.6974 0.7167
vn 0.0000 0.3226 0.9465
vn 0.0000 0.3162 0.9487
vn 0.0048 0.3228 0.9465
vn 0.0000 0.3254 0.9456
vn -0.0049 0.3228 0.9465
vn 0.0000 0.9873 0.1588
vn -0.8835 0.1512 0.4434
vn 0.0000 -0.6831 0.7303
vn 0.8817 0.1523 0.4466
# 24 vertex normals

vt 1.0000 0.6042 0.0000
vt 0.0000 0.6042 0.0000
vt 0.0000 0.3958 0.0000
vt 1.0000 0.3958 0.0000
vt 1.0000 0.6667 0.0000
vt 0.0000 0.6667 0.0000
vt 0.0000 0.3333 0.0000
vt 1.0000 0.3333 0.0000
vt 0.3958 0.6667 0.0000
vt 0.3958 0.3333 0.0000
vt 0.6042 0.3333 0.0000
vt 0.6042 0.6667 0.0000
vt 1.0000 0.8333 0.0000
vt 0.0000 0.8333 0.0000
vt 0.0000 0.0000 0.0000
vt 1.0000 0.0000 0.0000
vt 0.3958 1.0000 0.0000
vt 0.3958 0.9875 0.0000
vt 0.6042 0.9875 0.0000
vt 0.6042 1.0000 0.0000
vt 0.6042 0.0000 0.0000
vt 0.3958 0.0000 0.0000
vt 1.0000 0.8250 0.0000
vt 0.0000 0.8250 0.0000
vt 0.0000 0.0167 0.0000
vt 1.0000 0.0167 0.0000
vt 0.0167 0.6667 0.0000
vt 0.0167 0.3333 0.0000
vt 0.3333 0.3333 0.0000
vt 0.3333 0.6667 0.0000
vt 0.9833 0.3333 0.0000
vt 0.9833 0.6667 0.0000
vt 0.6667 0.6667 0.0000
vt 0.6667 0.3333 0.0000
vt 0.1750 1.0000 0.0000
vt 0.1750 0.9875 0.0000
vt 0.3333 0.9875 0.0000
vt 0.3333 1.0000 0.0000
vt 0.9833 0.8333 0.0000
vt 0.6667 0.8333 0.0000
vt 0.9833 0.0000 0.0000
vt 0.6667 0.0000 0.0000
vt 0.0167 0.0000 0.0000
vt 0.3333 0.0000 0.0000
vt 1.0000 0.9875 0.0000
vt 0.0000 0.9875 0.0000
vt 0.6042 0.8333 0.0000
vt 0.3958 0.8333 0.0000
vt 0.0167 0.8333 0.0000
vt 0.9833 0.9875 0.0000
vt 0.6667 0.9875 0.0000
vt 0.3333 0.8333 0.0000
vt 1.0000 1.0000 0.0000
vt 0.0000 1.0000 0.0000
vt 0.0000 0.9833 0.0000
vt 1.0000 0.9833 0.0000
vt 0.0167 0.9875 0.0000
vt 0.0167 1.0000 0.0000
vt 0.1750 0.8333 0.0000
vt 0.6667 1.0000 0.0000
vt 0.9833 1.0000 0.0000
vt 0.0167 0.9614 0.0000
vt 0.1055 0.9614 0.0000
# 63 texture coords

o Box633
g Box633
s 4
f 1/1/1 2/2/1 3/3/1 4/4/1 
s 8
f 5/5/2 6/6/2 7/7/2 8/8/2 
s 32
f 9/5/3 10/6/3 11/7/3 12/8/3 
s 64
f 13/9/4 14/10/4 15/11/4 16/12/4 
s 8
f 17/13/2 18/14/2 6/6/2 5/5/2 
f 19/15/2 20/16/2 8/8/2 7/7/2 
s 32
f 21/13/3 22/14/3 10/6/3 9/5/3 
f 23/15/3 24/16/3 12/8/3 11/7/3 
s 64
f 25/17/4 26/18/4 27/19/4 28/20/4 
f 29/21/4 30/11/4 31/10/4 32/22/4 
s 4
f 33/23/1 34/24/1 35/6/1 36/5/1 
f 37/25/1 38/26/1 39/8/1 40/7/1 
s 64
f 41/27/4 42/28/4 43/29/4 44/30/4 
f 45/31/4 46/32/4 47/33/4 48/34/4 
f 49/35/4 50/36/4 51/37/4 52/38/4 
f 53/32/4 54/39/4 55/40/4 56/33/4 
f 57/41/4 58/31/4 59/34/4 60/42/4 
f 61/28/4 62/43/4 63/44/4 64/29/4 
s 8
f 65/45/2 66/46/2 18/14/2 17/13/2 
s 32
f 67/45/3 68/46/3 22/14/3 21/13/3 
s 64
f 69/12/4 70/47/4 71/48/4 72/9/4 
f 9/6/4 73/27/4 74/49/4 21/14/4 
f 66/45/4 75/50/4 76/39/4 18/13/4 
s 4
f 77/5/1 52/6/1 25/2/1 78/1/1 
f 79/7/1 80/8/1 81/4/1 82/3/1 
s 64
f 83/30/4 64/29/4 31/10/4 84/9/4 
f 59/34/4 85/33/4 86/12/4 30/11/4 
f 52/38/4 51/37/4 26/18/4 25/17/4 
f 55/40/4 87/51/4 88/19/4 89/47/4 
f 60/42/4 59/34/4 30/11/4 29/21/4 
f 64/29/4 63/44/4 32/22/4 31/10/4 
f 69/12/4 90/33/4 70/47/4 
f 71/48/4 91/30/4 72/9/4 
f 92/48/4 93/52/4 94/30/4 
f 56/33/4 55/40/4 89/47/4 
s 4
f 95/53/1 96/54/1 97/55/1 98/56/1 
s 64
f 9/6/4 12/7/4 61/28/4 73/27/4 
f 96/54/4 67/46/4 99/57/4 97/58/4 
f 12/7/4 24/15/4 62/43/4 61/28/4 
f 100/27/4 94/30/4 93/52/4 101/59/4 102/49/4 
s 4
f 103/15/1 104/16/1 105/26/1 106/25/1 
s 64
f 7/8/4 6/5/4 107/32/4 58/31/4 
f 6/5/4 18/13/4 76/39/4 107/32/4 
f 19/16/4 7/8/4 58/31/4 57/41/4 
f 108/60/4 109/51/4 75/50/4 106/61/4 
s off
f 84/9/4 110/9/4 111/12/4 86/12/4 
f 31/10/4 112/10/4 110/9/4 84/9/4 
f 30/11/4 113/11/4 112/10/4 31/10/4 
f 86/12/4 111/12/4 113/11/4 30/11/4 
f 73/27/4 114/27/4 115/30/4 83/30/4 
f 61/28/4 116/28/4 114/27/4 73/27/4 
f 64/29/4 117/29/4 116/28/4 61/28/4 
f 83/30/4 115/30/4 117/29/4 64/29/4 
f 58/31/4 118/31/4 119/34/4 59/34/4 
f 107/32/4 120/32/4 118/31/4 58/31/4 
f 85/33/4 121/33/4 120/32/4 107/32/4 
f 59/34/4 119/34/4 121/33/4 85/33/4 
f 86/12/4 85/33/4 122/33/4 123/12/4 
f 124/47/4 125/47/4 122/33/4 85/33/4 
f 126/48/4 127/48/4 125/47/4 124/47/4 
f 126/48/4 83/30/4 128/30/4 127/48/4 
f 84/9/4 129/9/4 128/30/4 83/30/4 
f 86/12/4 123/12/4 129/9/4 84/9/4 
f 110/9/5 13/9/5 16/12/5 111/12/5 
f 112/10/2 14/10/2 13/9/2 110/9/2 
f 113/11/1 15/11/1 14/10/1 112/10/1 
f 111/12/3 16/12/3 15/11/3 113/11/3 
f 114/27/5 41/27/5 44/30/5 115/30/5 
f 116/28/2 42/28/2 41/27/2 114/27/2 
f 117/29/1 43/29/1 42/28/1 116/28/1 
f 115/30/3 44/30/3 43/29/3 117/29/3 
f 118/31/1 45/31/1 48/34/1 119/34/1 
f 120/32/3 46/32/3 45/31/3 118/31/3 
f 121/33/5 47/33/5 46/32/5 120/32/5 
f 119/34/2 48/34/2 47/33/2 121/33/2 
f 122/33/1 90/33/1 69/12/1 123/12/1 
f 125/47/6 70/47/6 90/33/6 122/33/6 
f 127/48/5 71/48/5 70/47/5 125/47/5 
f 128/30/7 91/30/7 71/48/7 127/48/7 
f 129/9/1 72/9/1 91/30/1 128/30/1 
f 123/12/1 69/12/1 72/9/1 129/9/1 
s 4
f 130/56/1 131/55/1 34/24/1 33/23/1 
s 64
f 97/58/4 99/57/4 50/36/4 49/35/4 
f 92/48/4 89/47/4 88/19/4 132/18/4 
f 101/59/4 93/52/4 133/37/4 134/36/4 
s 8
f 104/53/2 103/54/2 66/46/2 65/45/2 
s 32
f 96/53/3 95/54/3 68/46/3 67/45/3 
s 64
f 103/53/4 106/61/4 75/50/4 66/45/4 
f 93/52/4 92/48/4 132/18/4 133/37/4 
f 108/60/4 28/20/4 27/19/4 109/51/4 
f 67/46/4 21/14/4 74/49/4 135/62/4 99/57/4 
f 55/40/4 54/39/4 136/50/4 87/51/4 
f 99/57/4 135/62/4 137/63/4 50/36/4 
f 102/49/4 101/59/4 134/36/4 138/63/4 139/62/4 
s off
f 83/30/5 94/30/5 100/27/5 73/27/5 
f 126/48/8 92/48/8 94/30/8 83/30/8 
f 124/47/5 89/47/5 92/48/5 126/48/5 
f 85/33/9 56/33/9 89/47/9 124/47/9 
f 107/32/5 53/32/5 56/33/5 85/33/5 
f 76/39/2 54/39/2 53/32/2 107/32/2 
f 75/50/2 136/50/2 54/39/2 76/39/2 
f 109/51/1 87/51/1 136/50/1 75/50/1 
f 27/19/1 88/19/1 87/51/1 109/51/1 
f 26/18/1 132/18/1 88/19/1 27/19/1 
f 51/37/1 133/37/1 132/18/1 26/18/1 
f 50/36/1 134/36/1 133/37/1 51/37/1 
f 137/63/10 138/63/10 134/36/10 50/36/10 
f 135/62/1 139/62/1 138/63/1 137/63/1 
f 74/49/3 102/49/3 139/62/3 135/62/3 
f 73/27/3 100/27/3 102/49/3 74/49/3 
f 140/23/1 141/23/1 142/5/1 77/5/1 
f 140/23/1 98/56/1 143/56/1 141/23/1 
f 97/55/1 144/55/1 143/56/1 98/56/1 
f 49/24/1 145/24/1 144/55/1 97/55/1 
f 49/24/1 52/6/1 146/6/1 145/24/1 
f 77/5/1 142/5/1 146/6/1 52/6/1 
f 147/4/1 148/4/1 149/8/1 150/8/1 
f 147/4/1 78/1/1 151/1/1 148/4/1 
f 25/2/1 152/2/1 151/1/1 78/1/1 
f 28/3/1 153/3/1 152/2/1 25/2/1 
f 108/7/1 154/7/1 153/3/1 28/3/1 
f 108/7/1 106/25/1 155/25/1 154/7/1 
f 105/26/1 156/26/1 155/25/1 106/25/1 
f 150/8/1 149/8/1 156/26/1 105/26/1 
f 148/4/3 4/4/3 3/3/3 153/3/3 
f 151/1/4 1/1/4 4/4/4 148/4/4 
f 152/2/2 2/2/2 1/1/2 151/1/2 
f 153/3/11 3/3/11 2/2/11 152/2/11 
f 141/23/4 33/23/4 36/5/4 142/5/4 
f 143/56/4 130/56/4 33/23/4 141/23/4 
f 144/55/2 131/55/2 130/56/2 143/56/2 
f 145/24/11 34/24/11 131/55/11 144/55/11 
f 146/6/11 35/6/11 34/24/11 145/24/11 
f 142/5/3 36/5/3 35/6/3 146/6/3 
f 154/7/2 40/7/2 39/8/2 149/8/2 
f 155/25/11 37/25/11 40/7/11 154/7/11 
f 156/26/3 38/26/3 37/25/3 155/25/3 
f 149/8/4 39/8/4 38/26/4 156/26/4 
f 149/8/12 80/8/12 79/7/12 154/7/12 
f 148/4/13 81/4/13 80/8/13 149/8/13 
f 153/3/14 82/3/14 81/4/14 148/4/14 
f 154/7/15 79/7/15 82/3/15 153/3/15 
f 150/38/3 157/38/3 158/37/3 159/37/3 
f 160/58/1 161/58/1 162/38/1 163/38/1 
f 164/57/2 165/57/2 166/58/2 105/58/2 
f 164/57/2 167/49/2 168/49/2 165/57/2 
f 159/37/3 158/37/3 169/52/3 170/52/3 
f 171/58/16 172/58/16 173/38/16 174/38/16 
f 166/58/2 161/58/2 160/58/2 105/58/2 
f 157/38/3 150/38/3 163/38/3 162/38/3 
f 105/58/17 175/58/17 176/38/17 150/38/17 
f 160/58/18 177/58/18 175/58/18 105/58/18 
f 163/38/19 178/38/19 177/58/19 160/58/19 
f 150/38/20 176/38/20 178/38/20 163/38/20 
f 175/58/21 171/58/21 174/38/21 176/38/21 
f 177/58/22 172/58/22 171/58/22 175/58/22 
f 178/38/23 173/38/23 172/58/23 177/58/23 
f 176/38/24 174/38/24 173/38/24 178/38/24 
# 154 polygons - 4 triangles

