# 3ds Max Wavefront OBJ Exporter v0.99 - (c)2007 guruware
# File Created: 19.05.2024 16:45:34

#
# object Box587
#

v  -5.0191 0.6333 0.0922
v  -5.0191 0.6333 -0.0891
v  -6.2453 0.6333 -0.0891
v  -6.2453 0.6333 0.0922
v  -6.2368 0.5595 0.0946
v  -5.0191 0.5595 0.0946
v  -5.0191 0.6061 0.0973
v  -6.2519 0.6061 0.0973
v  -6.2368 0.5595 -0.0915
v  -6.2519 0.6061 -0.0942
v  -5.0191 0.6061 -0.0942
v  -5.0191 0.5595 -0.0915
v  -6.1742 0.5595 -0.0428
v  -6.1742 0.1076 -0.0428
v  -6.1742 0.1076 0.0459
v  -6.1742 0.5595 0.0459
v  -6.0751 0.5595 -0.0428
v  -6.0751 0.1076 -0.0428
v  -6.0751 0.5595 0.0459
v  -6.0751 0.1076 0.0459
v  -6.1870 0.1011 -0.0480
v  -6.1996 0.0947 -0.0403
v  -6.1996 0.0947 0.0434
v  -6.1870 0.1011 0.0511
v  -6.0623 0.1011 -0.0480
v  -6.0661 0.0947 -0.0531
v  -6.1833 0.0947 -0.0531
v  -6.0623 0.1011 0.0511
v  -6.0497 0.0947 0.0434
v  -6.0497 0.0947 -0.0403
v  -6.1833 0.0947 0.0562
v  -6.0661 0.0947 0.0562
v  -6.1996 0.0032 -0.0403
v  -6.1996 0.0032 0.0434
v  -6.0661 0.0032 -0.0531
v  -6.1833 0.0032 -0.0531
v  -6.0497 0.0032 0.0434
v  -6.0497 0.0032 -0.0403
v  -6.1833 0.0032 0.0562
v  -6.0661 0.0032 0.0562
v  -5.0237 0.6333 -0.0891
v  -5.0237 0.6333 0.0922
v  -3.0115 0.6333 0.0922
v  -3.0115 0.6333 -0.0891
v  -5.0237 0.5595 -0.0915
v  -5.0237 0.6061 -0.0942
v  -3.0114 0.6061 -0.0942
v  -3.0115 0.5595 -0.0915
v  -3.0115 0.5595 0.0946
v  -3.0114 0.6061 0.0973
v  -5.0237 0.6061 0.0973
v  -5.0237 0.5595 0.0946
v  -3.0819 0.5595 0.0459
v  -3.0819 0.1076 0.0459
v  -3.0819 0.1076 -0.0428
v  -3.0819 0.5595 -0.0428
v  -3.1810 0.5595 0.0459
v  -3.1810 0.1076 0.0459
v  -3.1810 0.5595 -0.0428
v  -3.1810 0.1076 -0.0428
v  -3.0691 0.1011 0.0511
v  -3.0565 0.0947 0.0434
v  -3.0565 0.0947 -0.0403
v  -3.0691 0.1011 -0.0480
v  -3.1938 0.1011 0.0511
v  -3.1901 0.0947 0.0562
v  -3.0729 0.0947 0.0562
v  -3.1938 0.1011 -0.0480
v  -3.2064 0.0947 -0.0403
v  -3.2064 0.0947 0.0434
v  -3.0729 0.0947 -0.0531
v  -3.1901 0.0947 -0.0531
v  -3.0565 0.0032 0.0434
v  -3.0565 0.0032 -0.0403
v  -3.1901 0.0032 0.0562
v  -3.0729 0.0032 0.0562
v  -3.2064 0.0032 -0.0403
v  -3.2064 0.0032 0.0434
v  -3.0729 0.0032 -0.0531
v  -3.1901 0.0032 -0.0531
v  -3.0194 0.6333 -0.0891
v  -3.0194 0.6333 0.0922
v  -1.0071 0.6333 0.0922
v  -1.0071 0.6333 -0.0891
v  -3.0193 0.5595 -0.0915
v  -3.0194 0.6061 -0.0942
v  -1.0071 0.6061 -0.0942
v  -1.0072 0.5595 -0.0915
v  -1.0072 0.5595 0.0946
v  -1.0071 0.6061 0.0973
v  -3.0194 0.6061 0.0973
v  -3.0193 0.5595 0.0946
v  -1.0776 0.5595 0.0459
v  -1.0776 0.1076 0.0459
v  -1.0776 0.1076 -0.0428
v  -1.0776 0.5595 -0.0428
v  -1.1767 0.5595 0.0459
v  -1.1767 0.1076 0.0459
v  -1.1767 0.5595 -0.0428
v  -1.1767 0.1076 -0.0428
v  -1.0648 0.1011 0.0511
v  -1.0522 0.0947 0.0434
v  -1.0522 0.0947 -0.0403
v  -1.0648 0.1011 -0.0480
v  -1.1895 0.1011 0.0511
v  -1.1857 0.0947 0.0562
v  -1.0686 0.0947 0.0562
v  -1.1895 0.1011 -0.0480
v  -1.2021 0.0947 -0.0403
v  -1.2021 0.0947 0.0434
v  -1.0686 0.0947 -0.0531
v  -1.1857 0.0947 -0.0531
v  -1.0522 0.0032 0.0434
v  -1.0522 0.0032 -0.0403
v  -1.1857 0.0032 0.0562
v  -1.0686 0.0032 0.0562
v  -1.2021 0.0032 -0.0403
v  -1.2021 0.0032 0.0434
v  -1.0686 0.0032 -0.0531
v  -1.1857 0.0032 -0.0531
v  1.0065 0.6333 0.0891
v  1.0065 0.6333 -0.0922
v  -1.0057 0.6333 -0.0922
v  -1.0057 0.6333 0.0891
v  1.0065 0.5595 0.0915
v  1.0065 0.6061 0.0942
v  -1.0058 0.6061 0.0942
v  -1.0057 0.5595 0.0915
v  -1.0057 0.5595 -0.0946
v  -1.0058 0.6061 -0.0973
v  1.0065 0.6061 -0.0973
v  1.0065 0.5595 -0.0946
v  3.0172 0.6333 0.0912
v  3.0172 0.6333 -0.0900
v  1.0050 0.6333 -0.0900
v  1.0050 0.6333 0.0912
v  3.0172 0.5595 0.0937
v  3.0172 0.6061 0.0964
v  1.0050 0.6061 0.0964
v  1.0050 0.5595 0.0937
v  1.0050 0.5595 -0.0925
v  1.0050 0.6061 -0.0952
v  3.0172 0.6061 -0.0952
v  3.0172 0.5595 -0.0925
v  1.0755 0.5595 -0.0438
v  1.0755 0.1076 -0.0438
v  1.0755 0.1076 0.0450
v  1.0755 0.5595 0.0450
v  1.1746 0.5595 -0.0438
v  1.1746 0.1076 -0.0438
v  1.1746 0.5595 0.0450
v  1.1746 0.1076 0.0450
v  1.0626 0.1011 -0.0489
v  1.0501 0.0947 -0.0413
v  1.0501 0.0947 0.0425
v  1.0626 0.1011 0.0502
v  1.1874 0.1011 -0.0489
v  1.1836 0.0947 -0.0540
v  1.0664 0.0947 -0.0540
v  1.1874 0.1011 0.0502
v  1.2000 0.0947 0.0425
v  1.2000 0.0947 -0.0413
v  1.0664 0.0947 0.0552
v  1.1836 0.0947 0.0552
v  1.0501 0.0032 -0.0413
v  1.0501 0.0032 0.0425
v  1.1836 0.0032 -0.0540
v  1.0664 0.0032 -0.0540
v  1.2000 0.0032 0.0425
v  1.2000 0.0032 -0.0413
v  1.0664 0.0032 0.0552
v  1.1836 0.0032 0.0552
v  5.0280 0.6333 0.0922
v  5.0280 0.6333 -0.0891
v  3.0158 0.6333 -0.0891
v  3.0158 0.6333 0.0922
v  5.0280 0.5595 0.0946
v  5.0280 0.6061 0.0973
v  3.0158 0.6061 0.0973
v  3.0158 0.5595 0.0946
v  3.0158 0.5595 -0.0915
v  3.0158 0.6061 -0.0942
v  5.0280 0.6061 -0.0942
v  5.0280 0.5595 -0.0915
v  3.0863 0.5595 -0.0428
v  3.0863 0.1076 -0.0428
v  3.0863 0.1076 0.0459
v  3.0863 0.5595 0.0459
v  3.1854 0.5595 -0.0428
v  3.1854 0.1076 -0.0428
v  3.1854 0.5595 0.0459
v  3.1854 0.1076 0.0459
v  3.0735 0.1011 -0.0480
v  3.0609 0.0947 -0.0403
v  3.0609 0.0947 0.0434
v  3.0735 0.1011 0.0511
v  3.1982 0.1011 -0.0480
v  3.1944 0.0947 -0.0531
v  3.0772 0.0947 -0.0531
v  3.1982 0.1011 0.0511
v  3.2108 0.0947 0.0434
v  3.2108 0.0947 -0.0403
v  3.0772 0.0947 0.0562
v  3.1944 0.0947 0.0562
v  3.0609 0.0032 -0.0403
v  3.0609 0.0032 0.0434
v  3.1944 0.0032 -0.0531
v  3.0772 0.0032 -0.0531
v  3.2108 0.0032 0.0434
v  3.2108 0.0032 -0.0403
v  3.0772 0.0032 0.0562
v  3.1944 0.0032 0.0562
v  6.2453 0.6333 -0.0891
v  5.0191 0.6333 -0.0891
v  5.0191 0.6333 0.0922
v  6.2453 0.6333 0.0922
v  6.2368 0.5595 0.0946
v  6.2519 0.6061 0.0973
v  5.0191 0.6061 0.0973
v  5.0191 0.5595 0.0946
v  5.0191 0.6061 -0.0942
v  6.2519 0.6061 -0.0942
v  6.2368 0.5595 -0.0915
v  5.0191 0.5595 -0.0915
v  6.1742 0.1076 0.0459
v  6.1742 0.1076 -0.0428
v  6.1742 0.5595 -0.0428
v  6.1742 0.5595 0.0459
v  6.0751 0.1076 -0.0428
v  6.0751 0.5595 -0.0428
v  6.0751 0.1076 0.0459
v  6.0751 0.5595 0.0459
v  6.1996 0.0947 -0.0403
v  6.1870 0.1011 -0.0480
v  6.1870 0.1011 0.0511
v  6.1996 0.0947 0.0434
v  6.0661 0.0947 -0.0531
v  6.0623 0.1011 -0.0480
v  6.1833 0.0947 -0.0531
v  6.0497 0.0947 0.0434
v  6.0623 0.1011 0.0511
v  6.0497 0.0947 -0.0403
v  6.1833 0.0947 0.0562
v  6.0661 0.0947 0.0562
v  6.1996 0.0032 0.0434
v  6.1996 0.0032 -0.0403
v  6.1833 0.0032 -0.0531
v  6.0661 0.0032 -0.0531
v  6.0497 0.0032 -0.0403
v  6.0497 0.0032 0.0434
v  6.0661 0.0032 0.0562
v  6.1833 0.0032 0.0562
# 252 vertices

vn 0.0000 1.0000 -0.0000
vn 0.0000 -0.0578 0.9983
vn 0.0000 0.0637 0.9980
vn 0.0000 0.0674 0.9977
vn 0.0000 -0.0578 -0.9983
vn 0.0000 0.0674 -0.9977
vn 0.0000 0.0637 -0.9980
vn -0.9513 -0.3083 -0.0000
vn -0.9988 -0.0498 -0.0000
vn 0.0000 0.1843 0.9829
vn 0.0000 0.1843 -0.9829
vn -0.9718 0.2358 -0.0000
vn -1.0000 0.0000 -0.0000
vn 0.0000 0.0000 -1.0000
vn 1.0000 0.0000 -0.0000
vn 0.0000 0.0000 1.0000
vn -0.4528 0.8916 -0.0000
vn 0.0000 0.6239 -0.7815
vn 0.4528 0.8916 -0.0000
vn 0.0000 0.6239 0.7815
vn -0.6166 0.0557 -0.7853
vn -0.5963 0.2604 -0.7594
vn -0.6151 0.0908 -0.7832
vn 0.6129 0.0881 -0.7853
vn 0.5950 0.2543 -0.7624
vn 0.6144 0.0543 -0.7872
vn 0.6144 0.0543 0.7872
vn 0.5950 0.2543 0.7624
vn 0.6129 0.0881 0.7853
vn -0.6151 0.0908 0.7832
vn -0.5963 0.2604 0.7594
vn -0.6166 0.0557 0.7853
vn -0.6176 0.0000 -0.7865
vn 0.6153 0.0000 -0.7883
vn 0.6153 0.0000 0.7883
vn -0.6176 0.0000 0.7865
vn 0.0000 0.0636 -0.9980
vn 0.0000 0.0636 0.9980
vn 0.5951 0.2542 0.7624
vn -0.6151 0.0907 0.7832
vn -0.6151 0.0907 -0.7832
vn 0.5951 0.2542 -0.7624
vn 0.0000 0.0638 -0.9980
vn 0.0000 0.0638 0.9980
vn -0.6129 0.0881 0.7853
vn -0.5951 0.2542 0.7624
vn -0.6144 0.0543 0.7872
vn -0.6144 0.0543 -0.7872
vn -0.5951 0.2542 -0.7624
vn -0.6129 0.0881 -0.7853
vn -0.6153 0.0000 0.7883
vn -0.6153 0.0000 -0.7883
vn 0.0000 0.0655 0.9979
vn 0.0000 0.0655 -0.9979
vn 0.0000 0.1878 0.9822
vn 0.0000 0.1878 -0.9822
vn 0.0000 0.6204 -0.7843
vn 0.0000 0.6201 0.7846
vn -0.6137 0.0548 -0.7876
vn -0.5943 0.2550 -0.7628
vn -0.6122 0.0884 -0.7857
vn 0.6098 0.0893 -0.7875
vn 0.5916 0.2575 -0.7640
vn 0.6113 0.0552 -0.7894
vn 0.6114 0.0525 0.7896
vn 0.5934 0.2463 0.7663
vn 0.6100 0.0856 0.7877
vn -0.6124 0.0847 0.7860
vn -0.5961 0.2438 0.7650
vn -0.6138 0.0521 0.7878
vn -0.6146 0.0000 -0.7888
vn 0.6123 0.0000 -0.7907
vn 0.6123 0.0000 0.7907
vn -0.6146 0.0000 0.7888
vn 0.6129 0.0881 -0.7852
vn 0.6144 0.0543 -0.7871
vn 0.6144 0.0543 0.7871
vn 0.6129 0.0881 0.7852
vn 0.9988 -0.0498 -0.0000
vn 0.9513 -0.3083 -0.0000
vn 0.9718 0.2358 -0.0000
vn 0.6166 0.0557 -0.7853
vn 0.6151 0.0908 -0.7832
vn 0.5963 0.2604 -0.7594
vn -0.5950 0.2543 -0.7624
vn -0.5950 0.2543 0.7624
vn 0.6151 0.0908 0.7832
vn 0.6166 0.0557 0.7853
vn 0.5963 0.2604 0.7594
vn 0.6176 0.0000 -0.7865
vn 0.6176 0.0000 0.7865
# 91 vertex normals

vt 1.0000 0.0000 0.0000
vt 1.0000 1.0000 0.0000
vt 0.0000 1.0000 0.0000
vt 0.0000 0.0000 0.0000
vt 1.0000 0.8835 0.0000
vt 1.0000 0.1165 0.0000
vt 0.1091 1.0000 0.0000
vt 0.8909 1.0000 0.0000
vt 0.0000 0.1165 0.0000
vt 0.0000 0.8835 0.0000
vt 0.8909 0.0000 0.0000
vt 0.1091 0.0000 0.0000
# 12 texture coords

o Box587
g Box587
s 1
f 1/1/1 2/2/1 3/3/1 4/4/1 
s 2
f 5/4/2 6/1/2 7/2/3 8/3/4 
f 9/1/5 10/2/6 11/3/7 12/4/5 
s 4
f 5/1/8 8/2/9 10/3/9 9/4/8 
s 2
f 7/1/3 1/1/10 4/4/10 8/4/4 
f 11/2/7 10/3/6 3/3/11 2/2/11 
s 4
f 8/4/9 4/4/12 3/3/12 10/3/9 
s 2
f 13/2/13 14/2/13 15/1/13 16/1/13 
s 4
f 17/3/14 18/3/14 14/2/14 13/2/14 
s 2
f 19/4/15 20/4/15 18/3/15 17/3/15 
s 4
f 16/1/16 15/1/16 20/4/16 19/4/16 
s 1
f 14/2/17 21/2/17 22/5/17 23/6/17 24/1/17 15/1/17 
s 8
f 18/3/18 25/3/18 26/7/18 27/8/18 21/2/18 14/2/18 
s 1
f 20/4/19 28/4/19 29/9/19 30/10/19 25/3/19 18/3/19 
s 8
f 15/1/20 24/1/20 31/11/20 32/12/20 28/4/20 20/4/20 
s 2
f 22/5/13 33/5/13 34/6/13 23/6/13 
f 26/7/14 35/7/14 36/8/14 27/8/14 
f 29/9/15 37/9/15 38/10/15 30/10/15 
f 31/11/16 39/11/16 40/12/16 32/12/16 
s 4
f 22/5/21 21/2/22 27/8/23 
f 26/7/24 25/3/25 30/10/26 
f 29/9/27 28/4/28 32/12/29 
f 31/11/30 24/1/31 23/6/32 
f 22/5/21 27/8/23 36/8/33 33/5/33 
f 26/7/24 30/10/26 38/10/34 35/7/34 
f 29/9/27 32/12/29 40/12/35 37/9/35 
f 31/11/30 23/6/32 34/6/36 39/11/36 
s 1
f 41/1/1 42/2/1 43/3/1 44/4/1 
s 2
f 45/1/5 46/2/7 47/3/37 48/4/5 
f 49/1/2 50/2/38 51/3/3 52/4/2 
f 46/1/7 41/1/11 44/4/11 47/4/37 
f 50/3/38 43/3/10 42/2/10 51/2/3 
f 53/2/15 54/2/15 55/1/15 56/1/15 
s 4
f 57/3/16 58/3/16 54/2/16 53/2/16 
s 2
f 59/4/13 60/4/13 58/3/13 57/3/13 
s 4
f 56/1/14 55/1/14 60/4/14 59/4/14 
s 1
f 54/2/19 61/2/19 62/5/19 63/6/19 64/1/19 55/1/19 
s 8
f 58/3/20 65/3/20 66/7/20 67/8/20 61/2/20 54/2/20 
s 1
f 60/4/17 68/4/17 69/9/17 70/10/17 65/3/17 58/3/17 
s 8
f 55/1/18 64/1/18 71/11/18 72/12/18 68/4/18 60/4/18 
s 2
f 62/5/15 73/5/15 74/6/15 63/6/15 
f 66/7/16 75/7/16 76/8/16 67/8/16 
f 69/9/13 77/9/13 78/10/13 70/10/13 
f 71/11/14 79/11/14 80/12/14 72/12/14 
s 4
f 62/5/27 61/2/39 67/8/29 
f 66/7/40 65/3/31 70/10/32 
f 69/9/21 68/4/22 72/12/41 
f 71/11/24 64/1/42 63/6/26 
f 62/5/27 67/8/29 76/8/35 73/5/35 
f 66/7/40 70/10/32 78/10/36 75/7/36 
f 69/9/21 72/12/41 80/12/33 77/9/33 
f 71/11/24 63/6/26 74/6/34 79/11/34 
s 1
f 81/1/1 82/2/1 83/3/1 84/4/1 
s 2
f 85/1/5 86/2/43 87/3/43 88/4/5 
f 89/1/2 90/2/44 91/3/44 92/4/2 
f 86/1/43 81/1/11 84/4/11 87/4/43 
f 90/3/44 83/3/10 82/2/10 91/2/44 
f 93/2/15 94/2/15 95/1/15 96/1/15 
s 4
f 97/3/16 98/3/16 94/2/16 93/2/16 
s 2
f 99/4/13 100/4/13 98/3/13 97/3/13 
s 4
f 96/1/14 95/1/14 100/4/14 99/4/14 
s 1
f 94/2/19 101/2/19 102/5/19 103/6/19 104/1/19 95/1/19 
s 8
f 98/3/20 105/3/20 106/7/20 107/8/20 101/2/20 94/2/20 
s 1
f 100/4/17 108/4/17 109/9/17 110/10/17 105/3/17 98/3/17 
s 8
f 95/1/18 104/1/18 111/11/18 112/12/18 108/4/18 100/4/18 
s 2
f 102/5/15 113/5/15 114/6/15 103/6/15 
f 106/7/16 115/7/16 116/8/16 107/8/16 
f 109/9/13 117/9/13 118/10/13 110/10/13 
f 111/11/14 119/11/14 120/12/14 112/12/14 
s 4
f 102/5/27 101/2/39 107/8/29 
f 106/7/45 105/3/46 110/10/47 
f 109/9/48 108/4/49 112/12/50 
f 111/11/24 104/1/42 103/6/26 
f 102/5/27 107/8/29 116/8/35 113/5/35 
f 106/7/45 110/10/47 118/10/51 115/7/51 
f 109/9/48 112/12/50 120/12/52 117/9/52 
f 111/11/24 103/6/26 114/6/34 119/11/34 
s 1
f 121/1/1 122/2/1 123/3/1 124/4/1 
s 2
f 125/1/2 126/2/3 127/3/38 128/4/2 
f 129/1/5 130/2/37 131/3/7 132/4/5 
f 126/1/3 121/1/10 124/4/10 127/4/38 
f 130/3/37 123/3/11 122/2/11 131/2/7 
s 1
f 133/1/1 134/2/1 135/3/1 136/4/1 
s 2
f 137/1/2 138/2/53 139/3/53 140/4/2 
f 141/1/5 142/2/54 143/3/54 144/4/5 
f 138/1/53 133/1/55 136/4/55 139/4/53 
f 142/3/54 135/3/56 134/2/56 143/2/54 
f 145/2/13 146/2/13 147/1/13 148/1/13 
s 4
f 149/3/14 150/3/14 146/2/14 145/2/14 
s 2
f 151/4/15 152/4/15 150/3/15 149/3/15 
s 4
f 148/1/16 147/1/16 152/4/16 151/4/16 
s 1
f 146/2/17 153/2/17 154/5/17 155/6/17 156/1/17 147/1/17 
s 8
f 150/3/57 157/3/57 158/7/57 159/8/57 153/2/57 146/2/57 
s 1
f 152/4/19 160/4/19 161/9/19 162/10/19 157/3/19 150/3/19 
s 8
f 147/1/58 156/1/58 163/11/58 164/12/58 160/4/58 152/4/58 
s 2
f 154/5/13 165/5/13 166/6/13 155/6/13 
f 158/7/14 167/7/14 168/8/14 159/8/14 
f 161/9/15 169/9/15 170/10/15 162/10/15 
f 163/11/16 171/11/16 172/12/16 164/12/16 
s 4
f 154/5/59 153/2/60 159/8/61 
f 158/7/62 157/3/63 162/10/64 
f 161/9/65 160/4/66 164/12/67 
f 163/11/68 156/1/69 155/6/70 
f 154/5/59 159/8/61 168/8/71 165/5/71 
f 158/7/62 162/10/64 170/10/72 167/7/72 
f 161/9/65 164/12/67 172/12/73 169/9/73 
f 163/11/68 155/6/70 166/6/74 171/11/74 
s 1
f 173/1/1 174/2/1 175/3/1 176/4/1 
s 2
f 177/1/2 178/2/3 179/3/3 180/4/2 
f 181/1/5 182/2/7 183/3/7 184/4/5 
f 178/1/3 173/1/10 176/4/10 179/4/3 
f 182/3/7 175/3/11 174/2/11 183/2/7 
f 185/2/13 186/2/13 187/1/13 188/1/13 
s 4
f 189/3/14 190/3/14 186/2/14 185/2/14 
s 2
f 191/4/15 192/4/15 190/3/15 189/3/15 
s 4
f 188/1/16 187/1/16 192/4/16 191/4/16 
s 1
f 186/2/17 193/2/17 194/5/17 195/6/17 196/1/17 187/1/17 
s 8
f 190/3/18 197/3/18 198/7/18 199/8/18 193/2/18 186/2/18 
s 1
f 192/4/19 200/4/19 201/9/19 202/10/19 197/3/19 190/3/19 
s 8
f 187/1/20 196/1/20 203/11/20 204/12/20 200/4/20 192/4/20 
s 2
f 194/5/13 205/5/13 206/6/13 195/6/13 
f 198/7/14 207/7/14 208/8/14 199/8/14 
f 201/9/15 209/9/15 210/10/15 202/10/15 
f 203/11/16 211/11/16 212/12/16 204/12/16 
s 4
f 194/5/21 193/2/22 199/8/41 
f 198/7/75 197/3/42 202/10/76 
f 201/9/77 200/4/39 204/12/78 
f 203/11/40 196/1/31 195/6/32 
f 194/5/21 199/8/41 208/8/33 205/5/33 
f 198/7/75 202/10/76 210/10/34 207/7/34 
f 201/9/77 204/12/78 212/12/35 209/9/35 
f 203/11/40 195/6/32 206/6/36 211/11/36 
s 1
f 213/3/1 214/2/1 215/1/1 216/4/1 
s 2
f 217/4/2 218/3/4 219/2/3 220/1/2 
f 221/3/7 222/2/6 223/1/5 224/4/5 
s 4
f 222/3/79 218/2/79 217/1/80 223/4/80 
s 2
f 216/4/10 215/1/10 219/1/3 218/4/4 
f 221/2/7 214/2/11 213/3/11 222/3/6 
s 4
f 213/3/81 216/4/81 218/4/79 222/3/79 
s 2
f 225/1/15 226/2/15 227/2/15 228/1/15 
s 4
f 226/2/14 229/3/14 230/3/14 227/2/14 
s 2
f 229/3/13 231/4/13 232/4/13 230/3/13 
s 4
f 231/4/16 225/1/16 228/1/16 232/4/16 
s 1
f 233/5/19 234/2/19 226/2/19 225/1/19 235/1/19 236/6/19 
s 8
f 237/7/18 238/3/18 229/3/18 226/2/18 234/2/18 239/8/18 
s 1
f 240/9/17 241/4/17 231/4/17 229/3/17 238/3/17 242/10/17 
s 8
f 243/11/20 235/1/20 225/1/20 231/4/20 241/4/20 244/12/20 
s 2
f 245/6/15 246/5/15 233/5/15 236/6/15 
f 247/8/14 248/7/14 237/7/14 239/8/14 
f 249/10/13 250/9/13 240/9/13 242/10/13 
f 251/12/16 252/11/16 243/11/16 244/12/16 
s 4
f 233/5/82 239/8/83 234/2/84 
f 237/7/50 242/10/48 238/3/85 
f 240/9/47 244/12/45 241/4/86 
f 243/11/87 236/6/88 235/1/89 
f 247/8/90 239/8/83 233/5/82 246/5/90 
f 249/10/52 242/10/48 237/7/50 248/7/52 
f 251/12/51 244/12/45 240/9/47 250/9/51 
f 245/6/91 236/6/88 243/11/87 252/11/91 
# 135 polygons - 24 triangles

