# 3ds Max Wavefront OBJ Exporter v0.99 - (c)2007 guruware
# File Created: 19.05.2024 15:59:22

#
# object Sphere005
#

v  0.0000 0.7523 -0.2367
v  0.0000 0.6626 -0.3295
v  -0.0394 0.6662 -0.3244
v  -0.0749 0.6766 -0.3096
v  -0.1032 0.6928 -0.2865
v  -0.1213 0.7132 -0.2574
v  -0.1275 0.7358 -0.2251
v  -0.1213 0.7584 -0.1928
v  -0.1032 0.7788 -0.1637
v  -0.0749 0.7949 -0.1406
v  -0.0394 0.8053 -0.1257
v  0.0000 0.8089 -0.1206
v  0.0394 0.8053 -0.1257
v  0.0749 0.7949 -0.1406
v  0.1032 0.7788 -0.1637
v  0.1213 0.7584 -0.1928
v  0.1275 0.7358 -0.2251
v  0.1213 0.7132 -0.2574
v  0.1032 0.6928 -0.2865
v  0.0749 0.6766 -0.3096
v  0.0394 0.6662 -0.3244
v  0.0000 0.5487 -0.3901
v  -0.0749 0.5555 -0.3804
v  -0.1426 0.5752 -0.3522
v  -0.1962 0.6060 -0.3082
v  -0.2307 0.6448 -0.2529
v  -0.2425 0.6878 -0.1915
v  -0.2307 0.7308 -0.1301
v  -0.1962 0.7695 -0.0747
v  -0.1426 0.8003 -0.0307
v  -0.0749 0.8201 -0.0025
v  0.0000 0.8269 0.0072
v  0.0749 0.8201 -0.0025
v  0.1426 0.8003 -0.0307
v  0.1962 0.7695 -0.0747
v  0.2307 0.7308 -0.1301
v  0.2425 0.6878 -0.1915
v  0.2307 0.6448 -0.2529
v  0.1962 0.6060 -0.3082
v  0.1426 0.5752 -0.3522
v  0.0749 0.5555 -0.3804
v  0.0000 0.4215 -0.4126
v  -0.1032 0.4309 -0.3992
v  -0.1962 0.4581 -0.3603
v  -0.2701 0.5005 -0.2998
v  -0.3175 0.5538 -0.2236
v  -0.3338 0.6130 -0.1391
v  -0.3175 0.6722 -0.0546
v  -0.2701 0.7255 0.0216
v  -0.1962 0.7679 0.0821
v  -0.1032 0.7951 0.1210
v  0.0000 0.8045 0.1343
v  0.1032 0.7951 0.1210
v  0.1962 0.7679 0.0821
v  0.2701 0.7255 0.0216
v  0.3175 0.6722 -0.0546
v  0.3338 0.6130 -0.1391
v  0.3175 0.5538 -0.2236
v  0.2701 0.5005 -0.2998
v  0.1962 0.4581 -0.3603
v  0.1032 0.4309 -0.3992
v  0.0000 0.2937 -0.3946
v  -0.1213 0.3047 -0.3789
v  -0.2307 0.3367 -0.3332
v  -0.3175 0.3865 -0.2621
v  -0.3732 0.4492 -0.1725
v  -0.3924 0.5188 -0.0731
v  -0.3732 0.5883 0.0262
v  -0.3175 0.6511 0.1158
v  -0.2307 0.7009 0.1869
v  -0.1213 0.7328 0.2326
v  0.0000 0.7439 0.2483
v  0.1213 0.7328 0.2326
v  0.2307 0.7009 0.1869
v  0.3175 0.6511 0.1158
v  0.3732 0.5883 0.0262
v  0.3924 0.5188 -0.0731
v  0.3732 0.4492 -0.1725
v  0.3175 0.3865 -0.2621
v  0.2307 0.3367 -0.3332
v  0.1213 0.3047 -0.3789
v  0.0000 0.1777 -0.3380
v  -0.1275 0.1892 -0.3215
v  -0.2425 0.2229 -0.2734
v  -0.3338 0.2752 -0.1987
v  -0.3924 0.3412 -0.1044
v  -0.4126 0.4143 -0.0000
v  -0.3924 0.4875 0.1044
v  -0.3338 0.5534 0.1987
v  -0.2425 0.6058 0.2734
v  -0.1275 0.6394 0.3215
v  0.0000 0.6510 0.3380
v  0.1275 0.6394 0.3215
v  0.2425 0.6058 0.2734
v  0.3338 0.5534 0.1987
v  0.3924 0.4875 0.1044
v  0.4126 0.4143 -0.0000
v  0.3924 0.3412 -0.1044
v  0.3338 0.2752 -0.1987
v  0.2425 0.2229 -0.2734
v  0.1275 0.1892 -0.3215
v  0.0000 0.0848 -0.2483
v  -0.1213 0.0958 -0.2326
v  -0.2307 0.1278 -0.1869
v  -0.3175 0.1776 -0.1158
v  -0.3732 0.2403 -0.0262
v  -0.3924 0.3099 0.0731
v  -0.3732 0.3794 0.1725
v  -0.3175 0.4422 0.2621
v  -0.2307 0.4920 0.3332
v  -0.1213 0.5239 0.3789
v  0.0000 0.5350 0.3946
v  0.1213 0.5239 0.3789
v  0.2307 0.4920 0.3332
v  0.3175 0.4422 0.2621
v  0.3732 0.3794 0.1725
v  0.3924 0.3099 0.0731
v  0.3732 0.2403 -0.0262
v  0.3175 0.1776 -0.1158
v  0.2307 0.1278 -0.1869
v  0.1213 0.0958 -0.2326
v  0.0000 0.0242 -0.1343
v  -0.1032 0.0336 -0.1210
v  -0.1962 0.0608 -0.0821
v  -0.2701 0.1031 -0.0216
v  -0.3175 0.1565 0.0546
v  -0.3338 0.2157 0.1391
v  -0.3175 0.2748 0.2236
v  -0.2701 0.3282 0.2998
v  -0.1962 0.3706 0.3603
v  -0.1032 0.3978 0.3992
v  0.0000 0.4071 0.4126
v  0.1032 0.3978 0.3992
v  0.1962 0.3706 0.3603
v  0.2701 0.3282 0.2998
v  0.3175 0.2748 0.2236
v  0.3338 0.2157 0.1391
v  0.3175 0.1565 0.0546
v  0.2701 0.1031 -0.0216
v  0.1962 0.0608 -0.0821
v  0.1032 0.0336 -0.1210
v  0.0000 0.0018 -0.0072
v  -0.0749 0.0086 0.0025
v  -0.1426 0.0283 0.0307
v  -0.1962 0.0591 0.0747
v  -0.2307 0.0979 0.1301
v  -0.2425 0.1409 0.1915
v  -0.2307 0.1839 0.2529
v  -0.1962 0.2226 0.3082
v  -0.1426 0.2534 0.3522
v  -0.0749 0.2732 0.3804
v  0.0000 0.2800 0.3901
v  0.0749 0.2732 0.3804
v  0.1426 0.2534 0.3522
v  0.1962 0.2226 0.3082
v  0.2307 0.1839 0.2529
v  0.2425 0.1409 0.1915
v  0.2307 0.0979 0.1301
v  0.1962 0.0591 0.0747
v  0.1426 0.0283 0.0307
v  0.0749 0.0086 0.0025
v  0.0000 0.0197 0.1206
v  -0.0394 0.0233 0.1257
v  -0.0749 0.0337 0.1406
v  -0.1032 0.0499 0.1637
v  -0.1213 0.0703 0.1928
v  -0.1275 0.0929 0.2251
v  -0.1213 0.1155 0.2574
v  -0.1032 0.1359 0.2865
v  -0.0749 0.1520 0.3096
v  -0.0394 0.1624 0.3244
v  0.0000 0.1660 0.3295
v  0.0394 0.1624 0.3244
v  0.0749 0.1520 0.3096
v  0.1032 0.1359 0.2865
v  0.1213 0.1155 0.2574
v  0.1275 0.0929 0.2251
v  0.1213 0.0703 0.1928
v  0.1032 0.0499 0.1637
v  0.0749 0.0337 0.1406
v  0.0394 0.0233 0.1257
v  0.0000 0.0763 0.2367
# 182 vertices

vn -0.0000 0.8192 -0.5736
vn 0.0000 0.5899 -0.8075
vn -0.0994 0.5989 -0.7946
vn -0.1895 0.6252 -0.7571
vn -0.2612 0.6660 -0.6988
vn -0.3071 0.7180 -0.6247
vn -0.3228 0.7754 -0.5427
vn -0.3072 0.8325 -0.4611
vn -0.2610 0.8845 -0.3868
vn -0.1893 0.9253 -0.3285
vn -0.1000 0.9514 -0.2912
vn -0.0000 0.9605 -0.2784
vn 0.1000 0.9514 -0.2912
vn 0.1893 0.9253 -0.3285
vn 0.2610 0.8845 -0.3868
vn 0.3072 0.8325 -0.4611
vn 0.3228 0.7754 -0.5427
vn 0.3071 0.7180 -0.6247
vn 0.2612 0.6660 -0.6988
vn 0.1895 0.6252 -0.7571
vn 0.0994 0.5989 -0.7946
vn 0.0000 0.3141 -0.9494
vn -0.1846 0.3308 -0.9255
vn -0.3515 0.3792 -0.8560
vn -0.4836 0.4549 -0.7478
vn -0.5686 0.5505 -0.6112
vn -0.5979 0.6566 -0.4598
vn -0.5685 0.7627 -0.3084
vn -0.4834 0.8584 -0.1716
vn -0.3515 0.9340 -0.0636
vn -0.1848 0.9828 0.0057
vn -0.0000 0.9996 0.0297
vn 0.1848 0.9828 0.0057
vn 0.3515 0.9340 -0.0636
vn 0.4834 0.8584 -0.1716
vn 0.5685 0.7627 -0.3084
vn 0.5979 0.6566 -0.4598
vn 0.5686 0.5505 -0.6112
vn 0.4836 0.4549 -0.7478
vn 0.3515 0.3792 -0.8560
vn 0.1846 0.3308 -0.9255
vn 0.0000 0.0086 -1.0000
vn -0.2518 0.0315 -0.9673
vn -0.4787 0.0979 -0.8725
vn -0.6587 0.2011 -0.7250
vn -0.7745 0.3311 -0.5390
vn -0.8144 0.4753 -0.3329
vn -0.7745 0.6198 -0.1268
vn -0.6587 0.7500 0.0591
vn -0.4787 0.8534 0.2065
vn -0.2518 0.9196 0.3015
vn 0.0000 0.9426 0.3341
vn 0.2518 0.9196 0.3015
vn 0.4787 0.8534 0.2065
vn 0.6587 0.7500 0.0591
vn 0.7745 0.6198 -0.1268
vn 0.8144 0.4753 -0.3329
vn 0.7745 0.3311 -0.5390
vn 0.6587 0.2011 -0.7250
vn 0.4787 0.0979 -0.8725
vn 0.2518 0.0315 -0.9673
vn 0.0000 -0.2969 -0.9549
vn -0.2945 -0.2702 -0.9167
vn -0.5600 -0.1925 -0.8058
vn -0.7706 -0.0717 -0.6333
vn -0.9060 0.0806 -0.4156
vn -0.9525 0.2494 -0.1746
vn -0.9060 0.4181 0.0664
vn -0.7707 0.5705 0.2840
vn -0.5599 0.6914 0.4566
vn -0.2945 0.7689 0.5675
vn 0.0000 0.7958 0.6055
vn 0.2945 0.7689 0.5675
vn 0.5599 0.6914 0.4566
vn 0.7707 0.5705 0.2840
vn 0.9060 0.4181 0.0664
vn 0.9525 0.2494 -0.1746
vn 0.9060 0.0806 -0.4156
vn 0.7706 -0.0717 -0.6333
vn 0.5600 -0.1925 -0.8058
vn 0.2945 -0.2702 -0.9167
vn 0.0000 -0.5736 -0.8191
vn -0.3091 -0.5456 -0.7790
vn -0.5879 -0.4640 -0.6626
vn -0.8090 -0.3372 -0.4815
vn -0.9511 -0.1772 -0.2530
vn -1.0000 -0.0000 0.0000
vn -0.9511 0.1773 0.2530
vn -0.8090 0.3371 0.4815
vn -0.5878 0.4641 0.6626
vn -0.3091 0.5455 0.7790
vn 0.0000 0.5737 0.8191
vn 0.3091 0.5455 0.7790
vn 0.5878 0.4641 0.6626
vn 0.8090 0.3371 0.4815
vn 0.9511 0.1773 0.2530
vn 1.0000 -0.0000 0.0000
vn 0.9511 -0.1772 -0.2530
vn 0.8090 -0.3372 -0.4815
vn 0.5879 -0.4640 -0.6626
vn 0.3091 -0.5456 -0.7790
vn -0.0000 -0.7959 -0.6055
vn -0.2944 -0.7691 -0.5673
vn -0.5600 -0.6914 -0.4565
vn -0.7706 -0.5705 -0.2841
vn -0.9059 -0.4182 -0.0664
vn -0.9525 -0.2494 0.1746
vn -0.9059 -0.0807 0.4156
vn -0.7706 0.0718 0.6333
vn -0.5600 0.1926 0.8058
vn -0.2945 0.2701 0.9167
vn 0.0000 0.2970 0.9549
vn 0.2945 0.2701 0.9167
vn 0.5600 0.1926 0.8058
vn 0.7706 0.0718 0.6333
vn 0.9059 -0.0807 0.4156
vn 0.9525 -0.2494 0.1746
vn 0.9059 -0.4182 -0.0664
vn 0.7706 -0.5705 -0.2841
vn 0.5600 -0.6914 -0.4565
vn 0.2944 -0.7691 -0.5673
vn -0.0000 -0.9426 -0.3339
vn -0.2516 -0.9197 -0.3015
vn -0.4786 -0.8534 -0.2068
vn -0.6588 -0.7500 -0.0592
vn -0.7746 -0.6196 0.1270
vn -0.8144 -0.4754 0.3329
vn -0.7745 -0.3313 0.5389
vn -0.6587 -0.2010 0.7251
vn -0.4787 -0.0978 0.8725
vn -0.2517 -0.0315 0.9673
vn 0.0000 -0.0087 1.0000
vn 0.2517 -0.0315 0.9673
vn 0.4787 -0.0978 0.8725
vn 0.6587 -0.2010 0.7251
vn 0.7745 -0.3313 0.5389
vn 0.8144 -0.4754 0.3329
vn 0.7746 -0.6196 0.1270
vn 0.6588 -0.7500 -0.0592
vn 0.4786 -0.8534 -0.2068
vn 0.2516 -0.9197 -0.3015
vn -0.0000 -0.9995 -0.0300
vn -0.1846 -0.9828 -0.0062
vn -0.3513 -0.9341 0.0634
vn -0.4836 -0.8582 0.1720
vn -0.5687 -0.7624 0.3087
vn -0.5978 -0.6567 0.4598
vn -0.5686 -0.5507 0.6111
vn -0.4836 -0.4550 0.7477
vn -0.3515 -0.3792 0.8560
vn -0.1845 -0.3306 0.9256
vn -0.0000 -0.3140 0.9494
vn 0.1845 -0.3306 0.9256
vn 0.3515 -0.3792 0.8560
vn 0.4836 -0.4550 0.7477
vn 0.5686 -0.5507 0.6111
vn 0.5978 -0.6567 0.4598
vn 0.5687 -0.7624 0.3087
vn 0.4836 -0.8582 0.1720
vn 0.3513 -0.9341 0.0634
vn 0.1846 -0.9828 -0.0062
vn 0.0000 -0.9606 0.2780
vn -0.0999 -0.9516 0.2908
vn -0.1897 -0.9252 0.3288
vn -0.2616 -0.8840 0.3874
vn -0.3075 -0.8324 0.4611
vn -0.3231 -0.7753 0.5427
vn -0.3073 -0.7180 0.6246
vn -0.2617 -0.6662 0.6984
vn -0.1898 -0.6254 0.7569
vn -0.0993 -0.5988 0.7947
vn -0.0000 -0.5897 0.8076
vn 0.0993 -0.5988 0.7947
vn 0.1898 -0.6254 0.7569
vn 0.2617 -0.6662 0.6984
vn 0.3073 -0.7180 0.6246
vn 0.3231 -0.7753 0.5427
vn 0.3075 -0.8324 0.4611
vn 0.2616 -0.8840 0.3874
vn 0.1897 -0.9252 0.3288
vn 0.0999 -0.9516 0.2908
vn 0.0000 -0.8192 0.5736
# 182 vertex normals

vt 0.0000 1.0000 0.0000
vt 0.0000 0.9000 0.0000
vt 0.0500 0.9000 0.0000
vt 0.0500 1.0000 0.0000
vt 0.1000 0.9000 0.0000
vt 0.1000 1.0000 0.0000
vt 0.1500 0.9000 0.0000
vt 0.1500 1.0000 0.0000
vt 0.2000 0.9000 0.0000
vt 0.2000 1.0000 0.0000
vt 0.2500 0.9000 0.0000
vt 0.2500 1.0000 0.0000
vt 0.3000 0.9000 0.0000
vt 0.3000 1.0000 0.0000
vt 0.3500 0.9000 0.0000
vt 0.3500 1.0000 0.0000
vt 0.4000 0.9000 0.0000
vt 0.4000 1.0000 0.0000
vt 0.4500 0.9000 0.0000
vt 0.4500 1.0000 0.0000
vt 0.5000 0.9000 0.0000
vt 0.5000 1.0000 0.0000
vt 0.5500 0.9000 0.0000
vt 0.5500 1.0000 0.0000
vt 0.6000 0.9000 0.0000
vt 0.6000 1.0000 0.0000
vt 0.6500 0.9000 0.0000
vt 0.6500 1.0000 0.0000
vt 0.7000 0.9000 0.0000
vt 0.7000 1.0000 0.0000
vt 0.7500 0.9000 0.0000
vt 0.7500 1.0000 0.0000
vt 0.8000 0.9000 0.0000
vt 0.8000 1.0000 0.0000
vt 0.8500 0.9000 0.0000
vt 0.8500 1.0000 0.0000
vt 0.9000 0.9000 0.0000
vt 0.9000 1.0000 0.0000
vt 0.9500 0.9000 0.0000
vt 0.9500 1.0000 0.0000
vt 1.0000 0.9000 0.0000
vt 0.0000 0.8000 0.0000
vt 0.0500 0.8000 0.0000
vt 0.1000 0.8000 0.0000
vt 0.1500 0.8000 0.0000
vt 0.2000 0.8000 0.0000
vt 0.2500 0.8000 0.0000
vt 0.3000 0.8000 0.0000
vt 0.3500 0.8000 0.0000
vt 0.4000 0.8000 0.0000
vt 0.4500 0.8000 0.0000
vt 0.5000 0.8000 0.0000
vt 0.5500 0.8000 0.0000
vt 0.6000 0.8000 0.0000
vt 0.6500 0.8000 0.0000
vt 0.7000 0.8000 0.0000
vt 0.7500 0.8000 0.0000
vt 0.8000 0.8000 0.0000
vt 0.8500 0.8000 0.0000
vt 0.9000 0.8000 0.0000
vt 0.9500 0.8000 0.0000
vt 1.0000 0.8000 0.0000
vt 0.0000 0.7000 0.0000
vt 0.0500 0.7000 0.0000
vt 0.1000 0.7000 0.0000
vt 0.1500 0.7000 0.0000
vt 0.2000 0.7000 0.0000
vt 0.2500 0.7000 0.0000
vt 0.3000 0.7000 0.0000
vt 0.3500 0.7000 0.0000
vt 0.4000 0.7000 0.0000
vt 0.4500 0.7000 0.0000
vt 0.5000 0.7000 0.0000
vt 0.5500 0.7000 0.0000
vt 0.6000 0.7000 0.0000
vt 0.6500 0.7000 0.0000
vt 0.7000 0.7000 0.0000
vt 0.7500 0.7000 0.0000
vt 0.8000 0.7000 0.0000
vt 0.8500 0.7000 0.0000
vt 0.9000 0.7000 0.0000
vt 0.9500 0.7000 0.0000
vt 1.0000 0.7000 0.0000
vt 0.0000 0.6000 0.0000
vt 0.0500 0.6000 0.0000
vt 0.1000 0.6000 0.0000
vt 0.1500 0.6000 0.0000
vt 0.2000 0.6000 0.0000
vt 0.2500 0.6000 0.0000
vt 0.3000 0.6000 0.0000
vt 0.3500 0.6000 0.0000
vt 0.4000 0.6000 0.0000
vt 0.4500 0.6000 0.0000
vt 0.5000 0.6000 0.0000
vt 0.5500 0.6000 0.0000
vt 0.6000 0.6000 0.0000
vt 0.6500 0.6000 0.0000
vt 0.7000 0.6000 0.0000
vt 0.7500 0.6000 0.0000
vt 0.8000 0.6000 0.0000
vt 0.8500 0.6000 0.0000
vt 0.9000 0.6000 0.0000
vt 0.9500 0.6000 0.0000
vt 1.0000 0.6000 0.0000
vt 0.0000 0.5000 0.0000
vt 0.0500 0.5000 0.0000
vt 0.1000 0.5000 0.0000
vt 0.1500 0.5000 0.0000
vt 0.2000 0.5000 0.0000
vt 0.2500 0.5000 0.0000
vt 0.3000 0.5000 0.0000
vt 0.3500 0.5000 0.0000
vt 0.4000 0.5000 0.0000
vt 0.4500 0.5000 0.0000
vt 0.5000 0.5000 0.0000
vt 0.5500 0.5000 0.0000
vt 0.6000 0.5000 0.0000
vt 0.6500 0.5000 0.0000
vt 0.7000 0.5000 0.0000
vt 0.7500 0.5000 0.0000
vt 0.8000 0.5000 0.0000
vt 0.8500 0.5000 0.0000
vt 0.9000 0.5000 0.0000
vt 0.9500 0.5000 0.0000
vt 1.0000 0.5000 0.0000
vt 0.0000 0.4000 0.0000
vt 0.0500 0.4000 0.0000
vt 0.1000 0.4000 0.0000
vt 0.1500 0.4000 0.0000
vt 0.2000 0.4000 0.0000
vt 0.2500 0.4000 0.0000
vt 0.3000 0.4000 0.0000
vt 0.3500 0.4000 0.0000
vt 0.4000 0.4000 0.0000
vt 0.4500 0.4000 0.0000
vt 0.5000 0.4000 0.0000
vt 0.5500 0.4000 0.0000
vt 0.6000 0.4000 0.0000
vt 0.6500 0.4000 0.0000
vt 0.7000 0.4000 0.0000
vt 0.7500 0.4000 0.0000
vt 0.8000 0.4000 0.0000
vt 0.8500 0.4000 0.0000
vt 0.9000 0.4000 0.0000
vt 0.9500 0.4000 0.0000
vt 1.0000 0.4000 0.0000
vt 0.0000 0.3000 0.0000
vt 0.0500 0.3000 0.0000
vt 0.1000 0.3000 0.0000
vt 0.1500 0.3000 0.0000
vt 0.2000 0.3000 0.0000
vt 0.2500 0.3000 0.0000
vt 0.3000 0.3000 0.0000
vt 0.3500 0.3000 0.0000
vt 0.4000 0.3000 0.0000
vt 0.4500 0.3000 0.0000
vt 0.5000 0.3000 0.0000
vt 0.5500 0.3000 0.0000
vt 0.6000 0.3000 0.0000
vt 0.6500 0.3000 0.0000
vt 0.7000 0.3000 0.0000
vt 0.7500 0.3000 0.0000
vt 0.8000 0.3000 0.0000
vt 0.8500 0.3000 0.0000
vt 0.9000 0.3000 0.0000
vt 0.9500 0.3000 0.0000
vt 1.0000 0.3000 0.0000
vt 0.0000 0.2000 0.0000
vt 0.0500 0.2000 0.0000
vt 0.1000 0.2000 0.0000
vt 0.1500 0.2000 0.0000
vt 0.2000 0.2000 0.0000
vt 0.2500 0.2000 0.0000
vt 0.3000 0.2000 0.0000
vt 0.3500 0.2000 0.0000
vt 0.4000 0.2000 0.0000
vt 0.4500 0.2000 0.0000
vt 0.5000 0.2000 0.0000
vt 0.5500 0.2000 0.0000
vt 0.6000 0.2000 0.0000
vt 0.6500 0.2000 0.0000
vt 0.7000 0.2000 0.0000
vt 0.7500 0.2000 0.0000
vt 0.8000 0.2000 0.0000
vt 0.8500 0.2000 0.0000
vt 0.9000 0.2000 0.0000
vt 0.9500 0.2000 0.0000
vt 1.0000 0.2000 0.0000
vt 0.0000 0.1000 0.0000
vt 0.0500 0.1000 0.0000
vt 0.1000 0.1000 0.0000
vt 0.1500 0.1000 0.0000
vt 0.2000 0.1000 0.0000
vt 0.2500 0.1000 0.0000
vt 0.3000 0.1000 0.0000
vt 0.3500 0.1000 0.0000
vt 0.4000 0.1000 0.0000
vt 0.4500 0.1000 0.0000
vt 0.5000 0.1000 0.0000
vt 0.5500 0.1000 0.0000
vt 0.6000 0.1000 0.0000
vt 0.6500 0.1000 0.0000
vt 0.7000 0.1000 0.0000
vt 0.7500 0.1000 0.0000
vt 0.8000 0.1000 0.0000
vt 0.8500 0.1000 0.0000
vt 0.9000 0.1000 0.0000
vt 0.9500 0.1000 0.0000
vt 1.0000 0.1000 0.0000
vt 0.0000 -0.0000 0.0000
vt 0.0500 -0.0000 0.0000
vt 0.1000 -0.0000 0.0000
vt 0.1500 -0.0000 0.0000
vt 0.2000 -0.0000 0.0000
vt 0.2500 -0.0000 0.0000
vt 0.3000 -0.0000 0.0000
vt 0.3500 -0.0000 0.0000
vt 0.4000 -0.0000 0.0000
vt 0.4500 -0.0000 0.0000
vt 0.5000 -0.0000 0.0000
vt 0.5500 -0.0000 0.0000
vt 0.6000 -0.0000 0.0000
vt 0.6500 -0.0000 0.0000
vt 0.7000 -0.0000 0.0000
vt 0.7500 -0.0000 0.0000
vt 0.8000 -0.0000 0.0000
vt 0.8500 -0.0000 0.0000
vt 0.9000 -0.0000 0.0000
vt 0.9500 -0.0000 0.0000
# 229 texture coords

o Sphere005
g Sphere005
s 1
f 1/1/1 2/2/2 3/3/3 
f 1/4/1 3/3/3 4/5/4 
f 1/6/1 4/5/4 5/7/5 
f 1/8/1 5/7/5 6/9/6 
f 1/10/1 6/9/6 7/11/7 
f 1/12/1 7/11/7 8/13/8 
f 1/14/1 8/13/8 9/15/9 
f 1/16/1 9/15/9 10/17/10 
f 1/18/1 10/17/10 11/19/11 
f 1/20/1 11/19/11 12/21/12 
f 1/22/1 12/21/12 13/23/13 
f 1/24/1 13/23/13 14/25/14 
f 1/26/1 14/25/14 15/27/15 
f 1/28/1 15/27/15 16/29/16 
f 1/30/1 16/29/16 17/31/17 
f 1/32/1 17/31/17 18/33/18 
f 1/34/1 18/33/18 19/35/19 
f 1/36/1 19/35/19 20/37/20 
f 1/38/1 20/37/20 21/39/21 
f 1/40/1 21/39/21 2/41/2 
f 22/42/22 23/43/23 3/3/3 2/2/2 
f 23/43/23 24/44/24 4/5/4 3/3/3 
f 24/44/24 25/45/25 5/7/5 4/5/4 
f 25/45/25 26/46/26 6/9/6 5/7/5 
f 26/46/26 27/47/27 7/11/7 6/9/6 
f 27/47/27 28/48/28 8/13/8 7/11/7 
f 28/48/28 29/49/29 9/15/9 8/13/8 
f 29/49/29 30/50/30 10/17/10 9/15/9 
f 30/50/30 31/51/31 11/19/11 10/17/10 
f 31/51/31 32/52/32 12/21/12 11/19/11 
f 32/52/32 33/53/33 13/23/13 12/21/12 
f 33/53/33 34/54/34 14/25/14 13/23/13 
f 34/54/34 35/55/35 15/27/15 14/25/14 
f 35/55/35 36/56/36 16/29/16 15/27/15 
f 36/56/36 37/57/37 17/31/17 16/29/16 
f 37/57/37 38/58/38 18/33/18 17/31/17 
f 38/58/38 39/59/39 19/35/19 18/33/18 
f 39/59/39 40/60/40 20/37/20 19/35/19 
f 40/60/40 41/61/41 21/39/21 20/37/20 
f 41/61/41 22/62/22 2/41/2 21/39/21 
f 42/63/42 43/64/43 23/43/23 22/42/22 
f 43/64/43 44/65/44 24/44/24 23/43/23 
f 44/65/44 45/66/45 25/45/25 24/44/24 
f 45/66/45 46/67/46 26/46/26 25/45/25 
f 46/67/46 47/68/47 27/47/27 26/46/26 
f 47/68/47 48/69/48 28/48/28 27/47/27 
f 48/69/48 49/70/49 29/49/29 28/48/28 
f 49/70/49 50/71/50 30/50/30 29/49/29 
f 50/71/50 51/72/51 31/51/31 30/50/30 
f 51/72/51 52/73/52 32/52/32 31/51/31 
f 52/73/52 53/74/53 33/53/33 32/52/32 
f 53/74/53 54/75/54 34/54/34 33/53/33 
f 54/75/54 55/76/55 35/55/35 34/54/34 
f 55/76/55 56/77/56 36/56/36 35/55/35 
f 56/77/56 57/78/57 37/57/37 36/56/36 
f 57/78/57 58/79/58 38/58/38 37/57/37 
f 58/79/58 59/80/59 39/59/39 38/58/38 
f 59/80/59 60/81/60 40/60/40 39/59/39 
f 60/81/60 61/82/61 41/61/41 40/60/40 
f 61/82/61 42/83/42 22/62/22 41/61/41 
f 62/84/62 63/85/63 43/64/43 42/63/42 
f 63/85/63 64/86/64 44/65/44 43/64/43 
f 64/86/64 65/87/65 45/66/45 44/65/44 
f 65/87/65 66/88/66 46/67/46 45/66/45 
f 66/88/66 67/89/67 47/68/47 46/67/46 
f 67/89/67 68/90/68 48/69/48 47/68/47 
f 68/90/68 69/91/69 49/70/49 48/69/48 
f 69/91/69 70/92/70 50/71/50 49/70/49 
f 70/92/70 71/93/71 51/72/51 50/71/50 
f 71/93/71 72/94/72 52/73/52 51/72/51 
f 72/94/72 73/95/73 53/74/53 52/73/52 
f 73/95/73 74/96/74 54/75/54 53/74/53 
f 74/96/74 75/97/75 55/76/55 54/75/54 
f 75/97/75 76/98/76 56/77/56 55/76/55 
f 76/98/76 77/99/77 57/78/57 56/77/56 
f 77/99/77 78/100/78 58/79/58 57/78/57 
f 78/100/78 79/101/79 59/80/59 58/79/58 
f 79/101/79 80/102/80 60/81/60 59/80/59 
f 80/102/80 81/103/81 61/82/61 60/81/60 
f 81/103/81 62/104/62 42/83/42 61/82/61 
f 82/105/82 83/106/83 63/85/63 62/84/62 
f 83/106/83 84/107/84 64/86/64 63/85/63 
f 84/107/84 85/108/85 65/87/65 64/86/64 
f 85/108/85 86/109/86 66/88/66 65/87/65 
f 86/109/86 87/110/87 67/89/67 66/88/66 
f 87/110/87 88/111/88 68/90/68 67/89/67 
f 88/111/88 89/112/89 69/91/69 68/90/68 
f 89/112/89 90/113/90 70/92/70 69/91/69 
f 90/113/90 91/114/91 71/93/71 70/92/70 
f 91/114/91 92/115/92 72/94/72 71/93/71 
f 92/115/92 93/116/93 73/95/73 72/94/72 
f 93/116/93 94/117/94 74/96/74 73/95/73 
f 94/117/94 95/118/95 75/97/75 74/96/74 
f 95/118/95 96/119/96 76/98/76 75/97/75 
f 96/119/96 97/120/97 77/99/77 76/98/76 
f 97/120/97 98/121/98 78/100/78 77/99/77 
f 98/121/98 99/122/99 79/101/79 78/100/78 
f 99/122/99 100/123/100 80/102/80 79/101/79 
f 100/123/100 101/124/101 81/103/81 80/102/80 
f 101/124/101 82/125/82 62/104/62 81/103/81 
f 102/126/102 103/127/103 83/106/83 82/105/82 
f 103/127/103 104/128/104 84/107/84 83/106/83 
f 104/128/104 105/129/105 85/108/85 84/107/84 
f 105/129/105 106/130/106 86/109/86 85/108/85 
f 106/130/106 107/131/107 87/110/87 86/109/86 
f 107/131/107 108/132/108 88/111/88 87/110/87 
f 108/132/108 109/133/109 89/112/89 88/111/88 
f 109/133/109 110/134/110 90/113/90 89/112/89 
f 110/134/110 111/135/111 91/114/91 90/113/90 
f 111/135/111 112/136/112 92/115/92 91/114/91 
f 112/136/112 113/137/113 93/116/93 92/115/92 
f 113/137/113 114/138/114 94/117/94 93/116/93 
f 114/138/114 115/139/115 95/118/95 94/117/94 
f 115/139/115 116/140/116 96/119/96 95/118/95 
f 116/140/116 117/141/117 97/120/97 96/119/96 
f 117/141/117 118/142/118 98/121/98 97/120/97 
f 118/142/118 119/143/119 99/122/99 98/121/98 
f 119/143/119 120/144/120 100/123/100 99/122/99 
f 120/144/120 121/145/121 101/124/101 100/123/100 
f 121/145/121 102/146/102 82/125/82 101/124/101 
f 122/147/122 123/148/123 103/127/103 102/126/102 
f 123/148/123 124/149/124 104/128/104 103/127/103 
f 124/149/124 125/150/125 105/129/105 104/128/104 
f 125/150/125 126/151/126 106/130/106 105/129/105 
f 126/151/126 127/152/127 107/131/107 106/130/106 
f 127/152/127 128/153/128 108/132/108 107/131/107 
f 128/153/128 129/154/129 109/133/109 108/132/108 
f 129/154/129 130/155/130 110/134/110 109/133/109 
f 130/155/130 131/156/131 111/135/111 110/134/110 
f 131/156/131 132/157/132 112/136/112 111/135/111 
f 132/157/132 133/158/133 113/137/113 112/136/112 
f 133/158/133 134/159/134 114/138/114 113/137/113 
f 134/159/134 135/160/135 115/139/115 114/138/114 
f 135/160/135 136/161/136 116/140/116 115/139/115 
f 136/161/136 137/162/137 117/141/117 116/140/116 
f 137/162/137 138/163/138 118/142/118 117/141/117 
f 138/163/138 139/164/139 119/143/119 118/142/118 
f 139/164/139 140/165/140 120/144/120 119/143/119 
f 140/165/140 141/166/141 121/145/121 120/144/120 
f 141/166/141 122/167/122 102/146/102 121/145/121 
f 142/168/142 143/169/143 123/148/123 122/147/122 
f 143/169/143 144/170/144 124/149/124 123/148/123 
f 144/170/144 145/171/145 125/150/125 124/149/124 
f 145/171/145 146/172/146 126/151/126 125/150/125 
f 146/172/146 147/173/147 127/152/127 126/151/126 
f 147/173/147 148/174/148 128/153/128 127/152/127 
f 148/174/148 149/175/149 129/154/129 128/153/128 
f 149/175/149 150/176/150 130/155/130 129/154/129 
f 150/176/150 151/177/151 131/156/131 130/155/130 
f 151/177/151 152/178/152 132/157/132 131/156/131 
f 152/178/152 153/179/153 133/158/133 132/157/132 
f 153/179/153 154/180/154 134/159/134 133/158/133 
f 154/180/154 155/181/155 135/160/135 134/159/134 
f 155/181/155 156/182/156 136/161/136 135/160/135 
f 156/182/156 157/183/157 137/162/137 136/161/136 
f 157/183/157 158/184/158 138/163/138 137/162/137 
f 158/184/158 159/185/159 139/164/139 138/163/138 
f 159/185/159 160/186/160 140/165/140 139/164/139 
f 160/186/160 161/187/161 141/166/141 140/165/140 
f 161/187/161 142/188/142 122/167/122 141/166/141 
f 162/189/162 163/190/163 143/169/143 142/168/142 
f 163/190/163 164/191/164 144/170/144 143/169/143 
f 164/191/164 165/192/165 145/171/145 144/170/144 
f 165/192/165 166/193/166 146/172/146 145/171/145 
f 166/193/166 167/194/167 147/173/147 146/172/146 
f 167/194/167 168/195/168 148/174/148 147/173/147 
f 168/195/168 169/196/169 149/175/149 148/174/148 
f 169/196/169 170/197/170 150/176/150 149/175/149 
f 170/197/170 171/198/171 151/177/151 150/176/150 
f 171/198/171 172/199/172 152/178/152 151/177/151 
f 172/199/172 173/200/173 153/179/153 152/178/152 
f 173/200/173 174/201/174 154/180/154 153/179/153 
f 174/201/174 175/202/175 155/181/155 154/180/154 
f 175/202/175 176/203/176 156/182/156 155/181/155 
f 176/203/176 177/204/177 157/183/157 156/182/156 
f 177/204/177 178/205/178 158/184/158 157/183/157 
f 178/205/178 179/206/179 159/185/159 158/184/158 
f 179/206/179 180/207/180 160/186/160 159/185/159 
f 180/207/180 181/208/181 161/187/161 160/186/160 
f 181/208/181 162/209/162 142/188/142 161/187/161 
f 182/210/182 163/190/163 162/189/162 
f 182/211/182 164/191/164 163/190/163 
f 182/212/182 165/192/165 164/191/164 
f 182/213/182 166/193/166 165/192/165 
f 182/214/182 167/194/167 166/193/166 
f 182/215/182 168/195/168 167/194/167 
f 182/216/182 169/196/169 168/195/168 
f 182/217/182 170/197/170 169/196/169 
f 182/218/182 171/198/171 170/197/170 
f 182/219/182 172/199/172 171/198/171 
f 182/220/182 173/200/173 172/199/172 
f 182/221/182 174/201/174 173/200/173 
f 182/222/182 175/202/175 174/201/174 
f 182/223/182 176/203/176 175/202/175 
f 182/224/182 177/204/177 176/203/176 
f 182/225/182 178/205/178 177/204/177 
f 182/226/182 179/206/179 178/205/178 
f 182/227/182 180/207/180 179/206/179 
f 182/228/182 181/208/181 180/207/180 
f 182/229/182 162/209/162 181/208/181 
# 160 polygons - 40 triangles

