# 3ds Max Wavefront OBJ Exporter v0.99 - (c)2007 guruware
# File Created: 16.06.2024 16:43:58

#
# object Plane104
#

v  1.7232 0.0954 -1.1564
v  -1.7234 0.0954 -1.1564
v  1.7232 0.0954 1.5915
v  1.7232 -0.0000 -4.4566
v  -1.4053 -0.0000 -4.4566
v  1.7232 -0.0000 -1.9096
v  -1.4053 -0.0000 7.6397
v  1.7232 -0.0000 7.6397
v  -1.4053 -0.0000 5.0927
v  -1.7234 0.0954 4.3395
v  1.7232 0.0954 4.3395
v  -1.7234 0.0954 1.5915
v  -5.4880 -0.0000 -1.2735
v  -8.2984 -0.0000 -1.2735
v  -5.4880 -0.0000 1.5915
v  -4.7348 0.0954 -1.1564
v  5.4878 -0.0000 1.5915
v  8.2983 -0.0000 1.5915
v  5.4878 -0.0000 -1.2735
v  4.7346 0.0954 1.5915
v  -5.1699 -0.0000 -7.6397
v  -8.2984 -0.0000 -7.6397
v  -5.1699 -0.0000 -5.0928
v  -2.0414 -0.0000 -7.6397
v  -2.0414 -0.0000 -5.0928
v  5.4878 -0.0000 -4.7747
v  8.2983 -0.0000 -4.7747
v  5.4878 -0.0000 -7.6397
v  -5.1699 -0.0000 -4.4566
v  -8.2984 -0.0000 -4.4566
v  -5.1699 -0.0000 -1.9096
v  -2.0414 -0.0000 -4.4566
v  -2.0414 -0.0000 -1.9096
v  5.4878 -0.0000 -1.9096
v  8.2983 -0.0000 -1.9096
v  4.8516 -0.0000 -1.9096
v  5.1697 0.0954 7.9578
v  8.6164 0.0954 7.9578
v  5.1697 0.0954 4.7747
v  4.8516 -0.0000 7.6397
v  1.7232 -0.0000 5.0927
v  -5.1699 -0.0000 5.0927
v  -8.2984 -0.0000 5.0927
v  -5.1699 -0.0000 7.6397
v  -2.0414 -0.0000 5.0927
v  -2.0414 -0.0000 7.6397
v  5.4878 -0.0000 4.4566
v  8.2983 -0.0000 4.4566
v  4.7346 0.0954 4.3395
v  -8.2984 -0.0000 1.5915
v  -5.4880 -0.0000 4.4566
v  -4.7348 0.0954 1.5915
v  -8.6164 0.0954 -7.9578
v  -8.2984 0.0954 -5.0928
v  -8.2984 0.0954 -7.6397
v  -8.6164 0.0954 -4.7747
v  -5.1699 0.0954 -5.0928
v  -5.1699 0.0954 -4.7747
v  -2.0414 0.0954 -5.0928
v  -1.7234 0.0954 -4.7747
v  -2.0414 0.0954 -7.6397
v  -1.7234 0.0954 -7.9578
v  -5.1699 0.0954 -7.6397
v  -5.1699 0.0954 -7.9578
v  5.1697 0.0954 -7.9578
v  1.7232 0.0954 -7.6397
v  4.8516 0.0954 -7.6397
v  1.7232 0.0954 -7.9578
v  -1.4053 0.0954 -7.6397
v  -1.4053 0.0954 -5.0928
v  1.7232 0.0954 -5.0928
v  1.7232 0.0954 -4.7747
v  4.8516 0.0954 -5.0928
v  5.1697 0.0954 -4.7747
v  -8.2984 0.0954 -1.9096
v  -8.2984 0.0954 -4.4566
v  -8.6164 0.0954 -1.5916
v  -5.1699 0.0954 -1.9096
v  -5.1699 0.0954 -1.5916
v  -2.0414 0.0954 -1.9096
v  -1.7234 0.0954 -1.5916
v  -2.0414 0.0954 -4.4566
v  -5.1699 0.0954 -4.4566
v  1.7232 0.0954 -4.4566
v  4.8516 0.0954 -4.4566
v  -1.4053 0.0954 -4.4566
v  -1.4053 0.0954 -1.9096
v  1.7232 0.0954 -1.9096
v  1.7232 0.0954 -1.5916
v  4.8516 0.0954 -1.9096
v  5.1697 0.0954 -1.5916
v  -8.2984 0.0954 1.5915
v  -8.2984 0.0954 -1.2735
v  -8.6164 0.0954 1.5915
v  -8.2984 0.0954 4.4566
v  -8.6164 0.0954 4.7747
v  -5.4880 0.0954 4.4566
v  -5.1699 0.0954 4.7747
v  -5.4880 0.0954 1.5915
v  -5.1699 0.0954 1.5915
v  -5.4880 0.0954 -1.2735
v  8.6164 0.0954 -7.9578
v  5.4878 0.0954 -7.6397
v  8.2983 0.0954 -7.6397
v  5.4878 0.0954 -4.7747
v  5.4878 0.0954 -1.9096
v  8.2983 0.0954 -1.9096
v  8.6164 0.0954 -1.5916
v  8.2983 0.0954 -4.7747
v  8.6164 0.0954 -4.7747
v  8.6164 0.0954 4.7747
v  8.2983 0.0954 1.5915
v  8.2983 0.0954 4.4566
v  8.6164 0.0954 1.5915
v  8.2983 0.0954 -1.2735
v  5.4878 0.0954 -1.2735
v  5.4878 0.0954 1.5915
v  5.1697 0.0954 1.5915
v  5.4878 0.0954 4.4566
v  -8.6164 0.0954 7.9578
v  -5.1699 0.0954 7.6397
v  -8.2984 0.0954 7.6397
v  -5.1699 0.0954 7.9578
v  -2.0414 0.0954 7.6397
v  -1.7234 0.0954 7.9578
v  -2.0414 0.0954 5.0927
v  -1.7234 0.0954 4.7747
v  -5.1699 0.0954 5.0927
v  -8.2984 0.0954 5.0927
v  1.7232 0.0954 7.6397
v  -1.4053 0.0954 7.6397
v  1.7232 0.0954 7.9578
v  4.8516 0.0954 7.6397
v  4.8516 0.0954 5.0927
v  1.7232 0.0954 5.0927
v  1.7232 0.0954 4.7747
v  -1.4053 0.0954 5.0927
v  4.7346 0.0954 -1.1564
v  -4.7348 0.0954 4.3395
v  4.8516 -0.0000 -4.4566
v  -1.4053 -0.0000 -1.9096
v  4.8516 -0.0000 5.0927
v  -8.2984 -0.0000 4.4566
v  8.2983 -0.0000 -1.2735
v  -8.2984 -0.0000 -5.0928
v  8.2983 -0.0000 -7.6397
v  -8.2984 -0.0000 -1.9096
v  -8.2984 -0.0000 7.6397
# 148 vertices

vn 0.0000 1.0000 -0.0000
vn 0.0000 0.0000 1.0000
vn 1.0000 0.0000 -0.0000
vn 0.0000 0.0000 -1.0000
vn -1.0000 0.0000 -0.0000
# 5 vertex normals

vt 0.4294 0.3802 0.0000
vt 0.2882 0.3802 0.0000
vt 0.4294 0.2677 0.0000
vt 0.4293 0.5153 0.0000
vt 0.3021 0.5154 0.0000
vt 0.4293 0.4125 0.0000
vt 0.3023 0.0200 0.0000
vt 0.4295 0.0202 0.0000
vt 0.3023 0.1230 0.0000
vt 0.2882 0.1551 0.0000
vt 0.4294 0.1552 0.0000
vt 0.2882 0.2677 0.0000
vt 0.1328 0.3840 0.0000
vt 0.0191 0.3840 0.0000
vt 0.1327 0.2676 0.0000
vt 0.1649 0.3802 0.0000
vt 0.5849 0.2677 0.0000
vt 0.6985 0.2677 0.0000
vt 0.5848 0.3841 0.0000
vt 0.5527 0.2677 0.0000
vt 0.1467 0.6465 0.0000
vt 0.0194 0.6467 0.0000
vt 0.1467 0.5438 0.0000
vt 0.2739 0.6466 0.0000
vt 0.2739 0.5436 0.0000
vt 0.5850 0.5292 0.0000
vt 0.6985 0.5292 0.0000
vt 0.5849 0.6457 0.0000
vt 0.1467 0.5152 0.0000
vt 0.0194 0.5153 0.0000
vt 0.1467 0.4125 0.0000
vt 0.2739 0.5153 0.0000
vt 0.2739 0.4124 0.0000
vt 0.5849 0.4128 0.0000
vt 0.6986 0.4128 0.0000
vt 0.5565 0.4124 0.0000
vt 0.5709 0.0062 0.0000
vt 0.7121 0.0066 0.0000
vt 0.5707 0.1371 0.0000
vt 0.5567 0.0201 0.0000
vt 0.4295 0.1229 0.0000
vt 0.1467 0.1228 0.0000
vt 0.0195 0.1229 0.0000
vt 0.1467 0.0200 0.0000
vt 0.2739 0.1229 0.0000
vt 0.2739 0.0199 0.0000
vt 0.5848 0.1513 0.0000
vt 0.6986 0.1513 0.0000
vt 0.5527 0.1552 0.0000
vt 0.0192 0.2676 0.0000
vt 0.1328 0.1512 0.0000
vt 0.1649 0.2677 0.0000
vt 0.0052 0.6608 0.0000
vt 0.0180 0.5423 0.0000
vt 0.0180 0.6480 0.0000
vt 0.0052 0.5295 0.0000
vt 0.1467 0.5414 0.0000
vt 0.1466 0.5295 0.0000
vt 0.2754 0.5423 0.0000
vt 0.2881 0.5296 0.0000
vt 0.2754 0.6479 0.0000
vt 0.2882 0.6604 0.0000
vt 0.1467 0.6489 0.0000
vt 0.1467 0.6612 0.0000
vt 0.5706 0.6600 0.0000
vt 0.4293 0.6470 0.0000
vt 0.5574 0.6470 0.0000
vt 0.4294 0.6601 0.0000
vt 0.3012 0.6471 0.0000
vt 0.3012 0.5428 0.0000
vt 0.4293 0.5427 0.0000
vt 0.4293 0.5298 0.0000
vt 0.5574 0.5427 0.0000
vt 0.5705 0.5295 0.0000
vt 0.0180 0.4110 0.0000
vt 0.0179 0.5167 0.0000
vt 0.0051 0.3983 0.0000
vt 0.1467 0.4101 0.0000
vt 0.1469 0.3980 0.0000
vt 0.2754 0.4110 0.0000
vt 0.2881 0.3982 0.0000
vt 0.2754 0.5167 0.0000
vt 0.1467 0.5176 0.0000
vt 0.4293 0.5177 0.0000
vt 0.5579 0.5167 0.0000
vt 0.3007 0.5167 0.0000
vt 0.3007 0.4110 0.0000
vt 0.4293 0.4101 0.0000
vt 0.4294 0.3979 0.0000
vt 0.5580 0.4110 0.0000
vt 0.5707 0.3983 0.0000
vt 0.0168 0.2676 0.0000
vt 0.0177 0.3855 0.0000
vt 0.0045 0.2676 0.0000
vt 0.0177 0.1498 0.0000
vt 0.0051 0.1370 0.0000
vt 0.1342 0.1498 0.0000
vt 0.1469 0.1373 0.0000
vt 0.1351 0.2676 0.0000
vt 0.1472 0.2677 0.0000
vt 0.1342 0.3855 0.0000
vt 0.7127 0.6599 0.0000
vt 0.5835 0.6472 0.0000
vt 0.7000 0.6471 0.0000
vt 0.5825 0.5292 0.0000
vt 0.5835 0.4113 0.0000
vt 0.7000 0.4112 0.0000
vt 0.7127 0.3984 0.0000
vt 0.7010 0.5292 0.0000
vt 0.7132 0.5292 0.0000
vt 0.7125 0.1370 0.0000
vt 0.7009 0.2677 0.0000
vt 0.6999 0.1498 0.0000
vt 0.7131 0.2677 0.0000
vt 0.7000 0.3856 0.0000
vt 0.5835 0.3856 0.0000
vt 0.5825 0.2677 0.0000
vt 0.5704 0.2677 0.0000
vt 0.5834 0.1498 0.0000
vt 0.0052 0.0057 0.0000
vt 0.1467 0.0176 0.0000
vt 0.0179 0.0185 0.0000
vt 0.1466 0.0053 0.0000
vt 0.2754 0.0186 0.0000
vt 0.2881 0.0058 0.0000
vt 0.2754 0.1243 0.0000
vt 0.2881 0.1372 0.0000
vt 0.1467 0.1252 0.0000
vt 0.0180 0.1242 0.0000
vt 0.4295 0.0177 0.0000
vt 0.3008 0.0186 0.0000
vt 0.4295 0.0055 0.0000
vt 0.5582 0.0187 0.0000
vt 0.5581 0.1244 0.0000
vt 0.4295 0.1253 0.0000
vt 0.4294 0.1375 0.0000
vt 0.3008 0.1244 0.0000
vt 0.5527 0.3803 0.0000
vt 0.1649 0.1551 0.0000
vt 0.5565 0.5154 0.0000
vt 0.3022 0.4124 0.0000
vt 0.5567 0.1231 0.0000
vt 0.0191 0.1512 0.0000
vt 0.6986 0.3841 0.0000
vt 0.0194 0.5437 0.0000
vt 0.6986 0.6456 0.0000
vt 0.0195 0.4124 0.0000
vt 0.0194 0.0199 0.0000
# 148 texture coords

o Plane104
g Plane104
s 1
f 1/1/1 2/2/1 3/3/1 
f 4/4/1 5/5/1 6/6/1 
f 7/7/1 8/8/1 9/9/1 
f 10/10/1 11/11/1 12/12/1 
f 13/13/1 14/14/1 15/15/1 
f 2/2/1 16/16/1 12/12/1 
f 17/17/1 18/18/1 19/19/1 
f 3/3/1 20/20/1 1/1/1 
f 21/21/1 22/22/1 23/23/1 
f 24/24/1 21/21/1 25/25/1 
f 26/26/1 27/27/1 28/28/1 
f 29/29/1 30/30/1 31/31/1 
f 32/32/1 29/29/1 33/33/1 
f 34/34/1 35/35/1 26/26/1 
f 6/6/1 36/36/1 4/4/1 
f 37/37/1 38/38/1 39/39/1 
f 8/8/1 40/40/1 41/41/1 
f 42/42/1 43/43/1 44/44/1 
f 45/45/1 42/42/1 46/46/1 
f 47/47/1 48/48/1 17/17/1 
f 11/11/1 49/49/1 3/3/1 
f 15/15/1 50/50/1 51/51/1 
f 12/12/1 52/52/1 10/10/1 
s off
f 53/53/1 54/54/1 55/55/1 
f 56/56/1 57/57/1 54/54/1 
f 58/58/1 59/59/1 57/57/1 
f 60/60/1 61/61/1 59/59/1 
f 62/62/1 63/63/1 61/61/1 
f 64/64/1 55/55/1 63/63/1 
f 65/65/1 66/66/1 67/67/1 
f 68/68/1 69/69/1 66/66/1 
f 62/62/1 70/70/1 69/69/1 
f 60/60/1 71/71/1 70/70/1 
f 72/72/1 73/73/1 71/71/1 
f 74/74/1 67/67/1 73/73/1 
f 56/56/1 75/75/1 76/76/1 
f 77/77/1 78/78/1 75/75/1 
f 79/79/1 80/80/1 78/78/1 
f 81/81/1 82/82/1 80/80/1 
f 60/60/1 83/83/1 82/82/1 
f 58/58/1 76/76/1 83/83/1 
f 74/74/1 84/84/1 85/85/1 
f 72/72/1 86/86/1 84/84/1 
f 60/60/1 87/87/1 86/86/1 
f 81/81/1 88/88/1 87/87/1 
f 89/89/1 90/90/1 88/88/1 
f 91/91/1 85/85/1 90/90/1 
f 77/77/1 92/92/1 93/93/1 
f 94/94/1 95/95/1 92/92/1 
f 96/96/1 97/97/1 95/95/1 
f 98/98/1 99/99/1 97/97/1 
f 100/100/1 101/101/1 99/99/1 
f 79/79/1 93/93/1 101/101/1 
f 102/102/1 103/103/1 104/104/1 
f 65/65/1 105/105/1 103/103/1 
f 74/74/1 106/106/1 105/105/1 
f 91/91/1 107/107/1 106/106/1 
f 108/108/1 109/109/1 107/107/1 
f 110/110/1 104/104/1 109/109/1 
f 111/111/1 112/112/1 113/113/1 
f 114/114/1 115/115/1 112/112/1 
f 108/108/1 116/116/1 115/115/1 
f 91/91/1 117/117/1 116/116/1 
f 118/118/1 119/119/1 117/117/1 
f 39/39/1 113/113/1 119/119/1 
f 120/120/1 121/121/1 122/122/1 
f 123/123/1 124/124/1 121/121/1 
f 125/125/1 126/126/1 124/124/1 
f 127/127/1 128/128/1 126/126/1 
f 98/98/1 129/129/1 128/128/1 
f 96/96/1 122/122/1 129/129/1 
f 125/125/1 130/130/1 131/131/1 
f 132/132/1 133/133/1 130/130/1 
f 37/37/1 134/134/1 133/133/1 
f 39/39/1 135/135/1 134/134/1 
f 136/136/1 137/137/1 135/135/1 
f 127/127/1 131/131/1 137/137/1 
f 91/91/1 1/1/1 138/138/1 
f 89/89/1 2/2/1 1/1/1 
f 81/81/1 16/16/1 2/2/1 
f 79/79/1 52/52/1 16/16/1 
f 100/100/1 139/139/1 52/52/1 
f 98/98/1 10/10/1 139/139/1 
f 127/127/1 11/11/1 10/10/1 
f 136/136/1 49/49/1 11/11/1 
f 39/39/1 20/20/1 49/49/1 
f 118/118/1 138/138/1 20/20/1 
f 85/85/2 4/4/2 140/140/2 
f 84/84/2 5/5/2 4/4/2 
f 86/86/3 141/141/3 5/5/3 
f 87/87/4 6/6/4 141/141/4 
f 88/88/4 36/36/4 6/6/4 
f 90/90/5 140/140/5 36/36/5 
f 131/131/4 8/8/4 7/7/4 
f 130/130/4 40/40/4 8/8/4 
f 133/133/5 142/142/5 40/40/5 
f 134/134/2 41/41/2 142/142/2 
f 135/135/2 9/9/2 41/41/2 
f 137/137/3 7/7/3 9/9/3 
f 93/93/3 50/50/3 14/14/3 
f 92/92/3 143/143/3 50/50/3 
f 95/95/4 51/51/4 143/143/4 
f 97/97/5 15/15/5 51/51/5 
f 99/99/5 13/13/5 15/15/5 
f 101/101/2 14/14/2 13/13/2 
f 113/113/5 18/18/5 48/48/5 
f 112/112/5 144/144/5 18/18/5 
f 115/115/2 19/19/2 144/144/2 
f 116/116/3 17/17/3 19/19/3 
f 117/117/3 47/47/3 17/17/3 
f 119/119/4 48/48/4 47/47/4 
f 55/55/3 145/145/3 22/22/3 
f 54/54/4 23/23/4 145/145/4 
f 57/57/4 25/25/4 23/23/4 
f 59/59/5 24/24/5 25/25/5 
f 61/61/2 21/21/2 24/24/2 
f 63/63/2 22/22/2 21/21/2 
f 104/104/2 28/28/2 146/146/2 
f 103/103/3 26/26/3 28/28/3 
f 105/105/3 34/34/3 26/26/3 
f 106/106/4 35/35/4 34/34/4 
f 107/107/5 27/27/5 35/35/5 
f 109/109/5 146/146/5 27/27/5 
f 76/76/3 147/147/3 30/30/3 
f 75/75/4 31/31/4 147/147/4 
f 78/78/4 33/33/4 31/31/4 
f 80/80/5 32/32/5 33/33/5 
f 82/82/2 29/29/2 32/32/2 
f 83/83/2 30/30/2 29/29/2 
f 122/122/4 44/44/4 148/148/4 
f 121/121/4 46/46/4 44/44/4 
f 124/124/5 45/45/5 46/46/5 
f 126/126/2 42/42/2 45/45/2 
f 128/128/2 43/43/2 42/42/2 
f 129/129/3 148/148/3 43/43/3 
f 71/71/1 73/73/1 66/66/1 
f 66/66/1 69/69/1 71/71/1 
s 1
f 2/2/1 12/12/1 3/3/1 
f 5/5/1 141/141/1 6/6/1 
f 8/8/1 41/41/1 9/9/1 
f 11/11/1 3/3/1 12/12/1 
f 14/14/1 50/50/1 15/15/1 
f 16/16/1 52/52/1 12/12/1 
f 18/18/1 144/144/1 19/19/1 
f 20/20/1 138/138/1 1/1/1 
f 22/22/1 145/145/1 23/23/1 
f 21/21/1 23/23/1 25/25/1 
f 27/27/1 146/146/1 28/28/1 
f 30/30/1 147/147/1 31/31/1 
f 29/29/1 31/31/1 33/33/1 
f 35/35/1 27/27/1 26/26/1 
f 36/36/1 140/140/1 4/4/1 
f 38/38/1 111/111/1 39/39/1 
f 40/40/1 142/142/1 41/41/1 
f 43/43/1 148/148/1 44/44/1 
f 42/42/1 44/44/1 46/46/1 
f 48/48/1 18/18/1 17/17/1 
f 49/49/1 20/20/1 3/3/1 
f 50/50/1 143/143/1 51/51/1 
f 52/52/1 139/139/1 10/10/1 
s off
f 53/53/1 56/56/1 54/54/1 
f 56/56/1 58/58/1 57/57/1 
f 58/58/1 60/60/1 59/59/1 
f 60/60/1 62/62/1 61/61/1 
f 62/62/1 64/64/1 63/63/1 
f 64/64/1 53/53/1 55/55/1 
f 65/65/1 68/68/1 66/66/1 
f 68/68/1 62/62/1 69/69/1 
f 62/62/1 60/60/1 70/70/1 
f 60/60/1 72/72/1 71/71/1 
f 72/72/1 74/74/1 73/73/1 
f 74/74/1 65/65/1 67/67/1 
f 56/56/1 77/77/1 75/75/1 
f 77/77/1 79/79/1 78/78/1 
f 79/79/1 81/81/1 80/80/1 
f 81/81/1 60/60/1 82/82/1 
f 60/60/1 58/58/1 83/83/1 
f 58/58/1 56/56/1 76/76/1 
f 74/74/1 72/72/1 84/84/1 
f 72/72/1 60/60/1 86/86/1 
f 60/60/1 81/81/1 87/87/1 
f 81/81/1 89/89/1 88/88/1 
f 89/89/1 91/91/1 90/90/1 
f 91/91/1 74/74/1 85/85/1 
f 77/77/1 94/94/1 92/92/1 
f 94/94/1 96/96/1 95/95/1 
f 96/96/1 98/98/1 97/97/1 
f 98/98/1 100/100/1 99/99/1 
f 100/100/1 79/79/1 101/101/1 
f 79/79/1 77/77/1 93/93/1 
f 102/102/1 65/65/1 103/103/1 
f 65/65/1 74/74/1 105/105/1 
f 74/74/1 91/91/1 106/106/1 
f 91/91/1 108/108/1 107/107/1 
f 108/108/1 110/110/1 109/109/1 
f 110/110/1 102/102/1 104/104/1 
f 111/111/1 114/114/1 112/112/1 
f 114/114/1 108/108/1 115/115/1 
f 108/108/1 91/91/1 116/116/1 
f 91/91/1 118/118/1 117/117/1 
f 118/118/1 39/39/1 119/119/1 
f 39/39/1 111/111/1 113/113/1 
f 120/120/1 123/123/1 121/121/1 
f 123/123/1 125/125/1 124/124/1 
f 125/125/1 127/127/1 126/126/1 
f 127/127/1 98/98/1 128/128/1 
f 98/98/1 96/96/1 129/129/1 
f 96/96/1 120/120/1 122/122/1 
f 125/125/1 132/132/1 130/130/1 
f 132/132/1 37/37/1 133/133/1 
f 37/37/1 39/39/1 134/134/1 
f 39/39/1 136/136/1 135/135/1 
f 136/136/1 127/127/1 137/137/1 
f 127/127/1 125/125/1 131/131/1 
f 91/91/1 89/89/1 1/1/1 
f 89/89/1 81/81/1 2/2/1 
f 81/81/1 79/79/1 16/16/1 
f 79/79/1 100/100/1 52/52/1 
f 100/100/1 98/98/1 139/139/1 
f 98/98/1 127/127/1 10/10/1 
f 127/127/1 136/136/1 11/11/1 
f 136/136/1 39/39/1 49/49/1 
f 39/39/1 118/118/1 20/20/1 
f 118/118/1 91/91/1 138/138/1 
f 85/85/2 84/84/2 4/4/2 
f 84/84/2 86/86/2 5/5/2 
f 86/86/3 87/87/3 141/141/3 
f 87/87/4 88/88/4 6/6/4 
f 88/88/4 90/90/4 36/36/4 
f 90/90/5 85/85/5 140/140/5 
f 131/131/4 130/130/4 8/8/4 
f 130/130/4 133/133/4 40/40/4 
f 133/133/5 134/134/5 142/142/5 
f 134/134/2 135/135/2 41/41/2 
f 135/135/2 137/137/2 9/9/2 
f 137/137/3 131/131/3 7/7/3 
f 93/93/3 92/92/3 50/50/3 
f 92/92/3 95/95/3 143/143/3 
f 95/95/4 97/97/4 51/51/4 
f 97/97/5 99/99/5 15/15/5 
f 99/99/5 101/101/5 13/13/5 
f 101/101/2 93/93/2 14/14/2 
f 113/113/5 112/112/5 18/18/5 
f 112/112/5 115/115/5 144/144/5 
f 115/115/2 116/116/2 19/19/2 
f 116/116/3 117/117/3 17/17/3 
f 117/117/3 119/119/3 47/47/3 
f 119/119/4 113/113/4 48/48/4 
f 55/55/3 54/54/3 145/145/3 
f 54/54/4 57/57/4 23/23/4 
f 57/57/4 59/59/4 25/25/4 
f 59/59/5 61/61/5 24/24/5 
f 61/61/2 63/63/2 21/21/2 
f 63/63/2 55/55/2 22/22/2 
f 104/104/2 103/103/2 28/28/2 
f 103/103/3 105/105/3 26/26/3 
f 105/105/3 106/106/3 34/34/3 
f 106/106/4 107/107/4 35/35/4 
f 107/107/5 109/109/5 27/27/5 
f 109/109/5 104/104/5 146/146/5 
f 76/76/3 75/75/3 147/147/3 
f 75/75/4 78/78/4 31/31/4 
f 78/78/4 80/80/4 33/33/4 
f 80/80/5 82/82/5 32/32/5 
f 82/82/2 83/83/2 29/29/2 
f 83/83/2 76/76/2 30/30/2 
f 122/122/4 121/121/4 44/44/4 
f 121/121/4 124/124/4 46/46/4 
f 124/124/5 126/126/5 45/45/5 
f 126/126/2 128/128/2 42/42/2 
f 128/128/2 129/129/2 43/43/2 
f 129/129/3 122/122/3 148/148/3 
f 73/73/1 67/67/1 66/66/1 
f 69/69/1 70/70/1 71/71/1 
# 0 polygons - 274 triangles

