# 3ds Max Wavefront OBJ Exporter v0.99 - (c)2007 guruware
# File Created: 19.05.2024 16:58:45

#
# object Box643
#

v  1.8631 1.2578 -1.0075
v  1.7008 1.2578 -0.0000
v  3.1111 0.0089 -0.0816
v  3.4080 0.0089 -2.2523
v  1.0075 1.2578 1.8631
v  0.6526 1.2578 1.7335
v  1.1657 0.0089 3.1477
v  2.5343 0.0089 3.2053
v  2.1707 0.0089 -3.4896
v  1.0075 1.2578 -1.8631
v  1.6492 1.2578 -1.6492
v  3.0987 0.0089 -3.1802
v  3.4070 0.0089 2.0817
v  1.8631 1.2578 1.0066
v  1.6492 1.2578 1.6492
v  3.1845 0.0089 2.7568
v  0.6518 1.2578 -1.7335
v  0.8105 0.0089 -3.2525
v  0.0000 0.0089 -3.0157
v  0.0000 1.2578 -1.6040
v  0.6143 2.2959 1.4169
v  0.0000 2.2999 1.4175
v  0.0000 1.2580 1.4175
v  0.6143 1.2580 1.4167
v  1.6492 2.2997 1.6492
v  1.0075 2.2997 1.8631
v  1.8631 2.2997 1.0075
v  1.8631 2.2997 -1.0075
v  1.7008 2.2997 -0.0000
v  1.6492 2.2997 -1.6492
v  1.0075 2.2997 -1.8631
v  0.6526 2.2997 -1.7335
v  0.0000 0.0629 1.4118
v  0.6150 0.0629 1.4187
v  0.8644 2.2711 1.8656
v  0.6619 2.2711 1.7916
v  0.6619 1.2865 1.7916
v  0.9629 1.2865 1.9016
v  0.9629 2.1662 1.9016
v  0.4024 3.2439 1.4171
v  0.0000 3.2439 1.4175
v  1.0075 3.3416 1.8631
v  1.6492 3.3416 1.6492
v  1.8631 3.3416 1.0075
v  1.7008 3.3416 -0.0000
v  1.8627 3.3416 -1.0050
v  1.6492 3.3416 -1.6492
v  1.0090 3.3416 -1.8626
v  0.6526 3.3416 -1.7335
v  0.6526 2.2997 1.7335
v  0.0000 2.2997 -1.6039
v  0.0000 3.3416 -1.6039
v  0.8114 0.0239 2.0741
v  0.4334 3.3416 1.7337
v  0.6463 1.2579 1.6364
v  0.6470 0.0304 1.6387
v  0.6463 2.2991 1.6364
v  0.4283 3.3421 1.6367
v  0.0000 3.3419 1.6369
v  0.0000 3.2437 1.6371
v  0.4020 3.2437 1.6367
v  0.6140 1.2579 1.6362
v  0.6147 0.0627 1.6382
v  0.6140 2.2957 1.6365
v  1.4405 4.1437 2.6545
v  0.6169 4.1437 2.4689
v  2.3609 4.1437 2.3477
v  2.6679 4.1437 1.4275
v  2.4350 4.1437 -0.0173
v  2.6672 4.1437 -1.4582
v  2.3609 4.1437 -2.3823
v  1.4427 4.1437 -2.6883
v  0.9316 4.1437 -2.5032
v  0.0000 4.1437 -2.3182
v  1.4486 4.2352 2.8157
v  0.4678 4.2367 2.5947
v  2.4839 4.2352 2.4706
v  2.8275 4.2352 1.4404
v  2.5925 4.2352 -0.0173
v  2.8237 4.2371 -1.4320
v  2.4839 4.2352 -2.5052
v  1.4934 4.2352 -2.8354
v  0.8895 4.2352 -2.6534
v  0.0000 4.2352 -2.4768
v  1.4213 4.8207 2.7647
v  0.4591 4.8221 2.5478
v  2.4369 4.8207 2.4261
v  2.7740 4.8207 1.4155
v  2.5435 4.8207 -0.0146
v  2.7703 4.8226 -1.4020
v  2.4369 4.8207 -2.4553
v  1.4657 4.8207 -2.7790
v  0.8728 4.8207 -2.6007
v  0.0000 4.8207 -2.4274
v  0.0000 4.1437 2.4689
v  0.0000 3.3416 1.7337
v  0.0000 4.2366 2.5947
v  0.0000 4.8221 2.5479
v  0.9805 2.1662 1.8532
v  0.9805 1.2865 1.8532
v  0.6796 2.2711 1.7433
v  0.8820 2.2711 1.8172
v  0.6796 1.2865 1.7433
v  -1.8631 1.2578 -1.0075
v  -3.4080 0.0089 -2.2523
v  -3.1111 0.0089 -0.0816
v  -1.7008 1.2578 -0.0000
v  -1.0075 1.2578 1.8631
v  -2.5343 0.0089 3.2053
v  -1.1657 0.0089 3.1477
v  -0.6526 1.2578 1.7335
v  -2.1707 0.0089 -3.4896
v  -3.0987 0.0089 -3.1802
v  -1.6492 1.2578 -1.6492
v  -1.0075 1.2578 -1.8631
v  -3.4070 0.0089 2.0817
v  -3.1845 0.0089 2.7568
v  -1.6492 1.2578 1.6492
v  -1.8631 1.2578 1.0066
v  -0.6518 1.2578 -1.7335
v  -0.8105 0.0089 -3.2525
v  -0.6143 2.2959 1.4169
v  -0.6143 1.2580 1.4167
v  -1.0075 2.2997 1.8631
v  -1.6492 2.2997 1.6492
v  -1.8631 2.2997 1.0075
v  -1.7008 2.2997 -0.0000
v  -1.8631 2.2997 -1.0075
v  -1.6492 2.2997 -1.6492
v  -1.0075 2.2997 -1.8631
v  -0.6526 2.2997 -1.7335
v  -0.6150 0.0629 1.4187
v  -0.4024 3.2439 1.4171
v  -1.0075 3.3416 1.8631
v  -1.6492 3.3416 1.6492
v  -1.8631 3.3416 1.0075
v  -1.7008 3.3416 -0.0000
v  -1.8627 3.3416 -1.0050
v  -1.6492 3.3416 -1.6492
v  -1.0090 3.3416 -1.8626
v  -0.6526 3.3416 -1.7335
v  -0.6526 2.2997 1.7335
v  -0.8114 0.0239 2.0741
v  -0.4334 3.3416 1.7337
v  -0.6470 0.0304 1.6387
v  -0.6463 1.2579 1.6364
v  -0.6463 2.2991 1.6364
v  -0.4283 3.3421 1.6367
v  -0.4020 3.2437 1.6367
v  -0.6147 0.0627 1.6382
v  -0.6140 1.2579 1.6362
v  -0.6140 2.2957 1.6365
v  -0.6169 4.1437 2.4689
v  -1.4405 4.1437 2.6545
v  -2.3609 4.1437 2.3477
v  -2.6679 4.1437 1.4275
v  -2.4350 4.1437 -0.0173
v  -2.6672 4.1437 -1.4582
v  -2.3609 4.1437 -2.3823
v  -1.4427 4.1437 -2.6883
v  -0.9316 4.1437 -2.5032
v  -0.4678 4.2367 2.5947
v  -1.4486 4.2352 2.8157
v  -2.4839 4.2352 2.4706
v  -2.8275 4.2352 1.4404
v  -2.5925 4.2352 -0.0173
v  -2.8237 4.2371 -1.4320
v  -2.4839 4.2352 -2.5052
v  -1.4934 4.2352 -2.8354
v  -0.8895 4.2352 -2.6534
v  -0.4591 4.8221 2.5478
v  -1.4213 4.8207 2.7647
v  -2.4369 4.8207 2.4261
v  -2.7740 4.8207 1.4155
v  -2.5435 4.8207 -0.0146
v  -2.7703 4.8226 -1.4020
v  -2.4369 4.8207 -2.4553
v  -1.4658 4.8207 -2.7790
v  -0.8728 4.8207 -2.6007
# 179 vertices

vn 0.6248 0.7807 -0.0020
vn 0.6673 0.7448 -0.0024
vn 0.6675 0.7446 0.0029
vn 0.5808 0.8093 -0.0882
vn 0.0296 0.7577 0.6519
vn -0.0760 0.7102 0.6999
vn 0.1553 0.7988 0.5812
vn 0.0692 0.8179 -0.5712
vn -0.0272 0.7902 -0.6123
vn 0.3644 0.8602 -0.3567
vn 0.3587 0.8603 -0.3622
vn 0.5402 0.8223 0.1789
vn 0.4010 0.8408 0.3636
vn 0.4120 0.8410 0.3506
vn 0.6612 0.7441 -0.0956
vn -0.1525 0.7466 -0.6476
vn -0.1485 0.7465 -0.6486
vn 0.0000 0.7567 -0.6538
vn 0.0011 -0.0000 1.0000
vn 0.0000 -0.0000 1.0000
vn -0.0000 -0.0024 1.0000
vn -0.0007 -0.0015 1.0000
vn 0.3162 0.0000 0.9487
vn 0.9967 -0.0000 0.0809
vn 0.9487 -0.0001 0.3161
vn 0.9487 -0.0001 0.3160
vn 0.9967 -0.0000 0.0807
vn 0.9967 0.0001 -0.0809
vn 1.0000 0.0000 -0.0000
vn 0.9967 0.0000 -0.0809
vn 0.9488 0.0003 -0.3158
vn 0.9487 0.0000 -0.3162
vn 0.3162 0.0000 -0.9487
vn -0.2693 0.0002 -0.9630
vn -0.3422 0.0003 -0.9396
vn -0.3427 0.0001 -0.9395
vn -0.2695 0.0001 -0.9630
vn -0.0000 -0.0003 1.0000
vn -0.0112 0.0017 0.9999
vn -0.3432 0.0000 0.9392
vn 0.0010 0.0000 1.0000
vn 0.0000 0.0000 1.0000
vn 0.9487 0.0000 0.3162
vn 0.9967 0.0000 0.0809
vn 1.0000 -0.0000 0.0000
vn 0.9968 0.0003 -0.0801
vn 0.9490 0.0006 -0.3154
vn -0.3418 0.0005 -0.9398
vn -0.2691 0.0002 -0.9631
vn -0.3433 -0.0002 0.9392
vn -0.2473 -0.0362 0.9683
vn -0.3228 -0.0081 0.9464
vn 0.0000 0.0001 -1.0000
vn 0.0000 0.0000 -1.0000
vn -0.9769 -0.0142 0.2134
vn -0.9504 -0.0292 0.3096
vn -0.9492 -0.0358 0.3127
vn -0.2196 -0.0464 0.9745
vn -0.9825 -0.0097 0.1861
vn -0.9522 -0.0192 0.3050
vn -0.9928 -0.1030 0.0614
vn -0.9771 -0.2049 0.0575
vn 0.0000 0.0009 1.0000
vn 0.0012 0.0004 1.0000
vn 0.0009 0.0007 1.0000
vn -0.0057 0.0008 1.0000
vn -0.0100 0.0018 0.9999
vn 0.0000 -1.0000 -0.0009
vn -0.0000 -1.0000 -0.0009
vn -1.0000 -0.0003 -0.0014
vn -1.0000 -0.0006 -0.0014
vn -0.9940 -0.1097 -0.0016
vn -0.9940 -0.1098 -0.0016
vn -0.9759 -0.2182 -0.0018
vn -0.0133 -0.6986 0.7154
vn 0.0433 -0.8109 0.5836
vn -0.0907 -0.7567 0.6475
vn -0.0708 -0.6652 0.7433
vn 0.4418 -0.7792 0.4446
vn 0.3739 -0.8489 0.3735
vn 0.7007 -0.7132 0.0194
vn 0.5806 -0.8121 0.0590
vn 0.7376 -0.6752 -0.0011
vn 0.6363 -0.7714 0.0007
vn 0.7015 -0.7125 -0.0156
vn 0.5860 -0.8074 -0.0683
vn 0.4393 -0.7865 -0.4340
vn 0.3786 -0.8474 -0.3722
vn -0.0799 -0.6937 -0.7158
vn -0.0043 -0.8092 -0.5875
vn -0.1907 -0.6443 -0.7406
vn -0.1835 -0.7479 -0.6379
vn 0.0000 -0.6650 -0.7468
vn -0.0000 -0.7659 -0.6430
vn 0.0240 -0.8692 0.4940
vn -0.0337 -0.8231 0.5669
vn 0.3293 -0.8849 0.3293
vn 0.4945 -0.8683 0.0401
vn 0.5024 -0.8647 0.0000
vn 0.5061 -0.8622 -0.0230
vn 0.3412 -0.8795 -0.3318
vn 0.0289 -0.8636 -0.5033
vn -0.1345 -0.8502 -0.5089
vn 0.0000 -0.8662 -0.4998
vn -0.1119 0.0776 0.9907
vn -0.2191 0.0746 0.9728
vn -0.1085 0.0777 0.9911
vn 0.3148 0.0970 0.9442
vn 0.9918 0.0943 0.0857
vn 0.9927 0.0939 0.0753
vn 0.9439 0.0997 0.3148
vn 0.9965 0.0834 0.0016
vn 0.9965 0.0834 0.0007
vn 0.9924 0.0945 -0.0783
vn 0.9934 0.0939 -0.0653
vn 0.9484 0.1018 -0.3004
vn 0.3145 0.1057 -0.9434
vn -0.2425 0.0803 -0.9668
vn -0.2396 0.0804 -0.9675
vn -0.2874 0.0780 -0.9546
vn 0.0000 0.0841 -0.9965
vn 0.0000 -0.7434 0.6688
vn 0.0000 -0.6757 0.7372
vn 0.0000 -0.8043 0.5943
vn 0.0000 0.0798 0.9968
vn 0.0000 -1.0000 -0.0041
vn 0.0002 -1.0000 -0.0041
vn -0.3441 -0.0000 0.9390
vn -0.3436 0.0008 0.9391
vn -0.3437 0.0008 0.9391
vn -0.3421 -0.0011 0.9397
vn -0.3431 -0.0017 0.9393
vn -0.3421 0.0008 0.9397
vn 0.9398 0.0000 0.3417
vn 0.0000 1.0000 -0.0000
vn -0.9389 0.0000 -0.3441
vn 0.0000 -1.0000 -0.0000
vn 0.6646 0.7070 0.2417
vn -0.6248 0.7807 -0.0020
vn -0.5808 0.8093 -0.0882
vn -0.6675 0.7446 0.0029
vn -0.6673 0.7448 -0.0024
vn -0.0296 0.7577 0.6519
vn -0.1553 0.7988 0.5812
vn 0.0760 0.7102 0.6999
vn -0.0692 0.8179 -0.5712
vn -0.3587 0.8603 -0.3622
vn -0.3644 0.8602 -0.3567
vn 0.0272 0.7902 -0.6123
vn -0.5402 0.8223 0.1789
vn -0.4120 0.8410 0.3506
vn -0.4010 0.8408 0.3636
vn -0.6612 0.7441 -0.0956
vn 0.1525 0.7466 -0.6476
vn 0.1485 0.7465 -0.6486
vn -0.0011 -0.0000 1.0000
vn 0.0007 -0.0015 1.0000
vn -0.3162 0.0000 0.9487
vn -0.9487 -0.0001 0.3160
vn -0.9487 -0.0001 0.3161
vn -0.9967 -0.0000 0.0809
vn -0.9967 -0.0000 0.0807
vn -1.0000 0.0000 -0.0000
vn -0.9967 0.0001 -0.0809
vn -0.9967 0.0000 -0.0809
vn -0.9488 0.0003 -0.3158
vn -0.9487 0.0000 -0.3162
vn -0.3162 0.0000 -0.9487
vn 0.3427 0.0001 -0.9395
vn 0.3422 0.0003 -0.9396
vn 0.2693 0.0002 -0.9630
vn 0.2695 0.0001 -0.9630
vn 0.0112 0.0017 0.9999
vn -0.0010 0.0000 1.0000
vn -0.9487 0.0000 0.3162
vn -0.9967 0.0000 0.0809
vn -1.0000 -0.0000 0.0000
vn -0.9968 0.0003 -0.0801
vn -0.9490 0.0006 -0.3154
vn 0.3418 0.0005 -0.9398
vn 0.2691 0.0002 -0.9631
vn 0.3430 0.0000 0.9393
vn 0.3232 -0.0076 0.9463
vn 0.2473 -0.0362 0.9683
vn 0.9769 -0.0142 0.2134
vn 0.9492 -0.0358 0.3127
vn 0.9504 -0.0292 0.3096
vn 0.2196 -0.0464 0.9745
vn 0.9522 -0.0192 0.3050
vn 0.9825 -0.0097 0.1861
vn 0.9928 -0.1030 0.0614
vn 0.9771 -0.2049 0.0575
vn -0.0012 0.0004 1.0000
vn -0.0009 0.0007 1.0000
vn 0.0100 0.0018 0.9999
vn 0.0057 0.0008 1.0000
vn -0.0000 -0.0000 1.0000
vn 1.0000 -0.0006 -0.0014
vn 1.0000 -0.0003 -0.0014
vn 0.9940 -0.1098 -0.0016
vn 0.9940 -0.1097 -0.0016
vn 0.9759 -0.2182 -0.0018
vn 0.0907 -0.7567 0.6475
vn -0.0433 -0.8109 0.5836
vn 0.0133 -0.6986 0.7154
vn 0.0708 -0.6652 0.7433
vn -0.3739 -0.8489 0.3735
vn -0.4418 -0.7792 0.4446
vn -0.5806 -0.8121 0.0590
vn -0.7007 -0.7132 0.0194
vn -0.6363 -0.7714 0.0007
vn -0.7376 -0.6752 -0.0011
vn -0.5860 -0.8074 -0.0683
vn -0.7015 -0.7125 -0.0156
vn -0.3786 -0.8474 -0.3722
vn -0.4393 -0.7865 -0.4340
vn 0.0043 -0.8092 -0.5875
vn 0.0799 -0.6937 -0.7158
vn 0.1835 -0.7479 -0.6379
vn 0.1907 -0.6443 -0.7406
vn 0.0337 -0.8231 0.5669
vn -0.0240 -0.8692 0.4940
vn -0.3293 -0.8849 0.3293
vn -0.4945 -0.8683 0.0401
vn -0.5024 -0.8647 0.0000
vn -0.5061 -0.8622 -0.0230
vn -0.3412 -0.8795 -0.3318
vn -0.0289 -0.8636 -0.5033
vn 0.1345 -0.8502 -0.5089
vn 0.1119 0.0776 0.9907
vn 0.1085 0.0777 0.9911
vn 0.2191 0.0746 0.9728
vn -0.3148 0.0970 0.9442
vn -0.9439 0.0997 0.3148
vn -0.9927 0.0939 0.0753
vn -0.9918 0.0943 0.0857
vn -0.9965 0.0834 0.0007
vn -0.9965 0.0834 0.0016
vn -0.9934 0.0939 -0.0653
vn -0.9924 0.0945 -0.0783
vn -0.9484 0.1018 -0.3004
vn -0.3145 0.1057 -0.9434
vn 0.2874 0.0781 -0.9546
vn 0.2395 0.0804 -0.9675
vn 0.2425 0.0803 -0.9668
vn -0.0002 -1.0000 -0.0041
# 246 vertex normals

vt 0.0000 0.7704 0.0000
vt 0.0000 0.5000 0.0000
vt 0.0000 0.8185 0.0000
vt 0.2296 0.0000 0.0000
vt 0.3648 0.0000 0.0000
vt 0.3408 0.0000 0.0000
vt 0.1815 0.0000 0.0000
vt 0.1815 1.0000 0.0000
vt 0.2296 1.0000 0.0000
vt 0.0000 1.0000 0.0000
vt 0.0000 0.2611 0.0000
vt 0.0000 0.2296 0.0000
vt 0.0000 0.0000 0.0000
vt 0.0000 0.3648 0.0000
vt 0.3648 1.0000 0.0000
vt 0.3408 1.0000 0.0000
vt 0.4998 1.0000 0.0000
vt 0.5000 0.0000 0.0000
vt 0.0000 0.2972 0.0000
vt 0.2739 0.0000 0.0000
vt 0.0000 0.7697 0.0000
vt 0.2291 1.0000 0.0000
vt 0.5000 1.0000 0.0000
vt 0.4994 1.0000 0.0000
vt 0.4992 0.0000 0.0000
vt 0.4988 0.0000 0.0000
vt 0.4987 0.0000 0.0000
vt 0.5001 0.0000 0.0000
# 28 texture coords

o Box643
g Box643
s 4
f 1/1/1 2/2/2 3/2/3 4/3/4 
s 2
f 5/4/5 6/5/6 7/6/6 8/7/7 
s 4
f 9/8/8 10/9/9 11/10/10 12/10/11 
s 2
f 13/11/12 14/12/12 15/13/13 16/13/14 
s 4
f 4/3/4 12/10/11 11/10/10 1/1/1 
s 2
f 8/7/7 16/13/14 15/13/13 5/4/5 
s 4
f 14/14/15 13/11/15 3/2/3 2/2/2 
f 17/15/16 18/16/17 19/17/18 20/17/18 
s 1
f 21/5/19 22/18/20 23/18/21 24/5/22 
f 25/13/23 26/4/23 5/4/23 15/13/23 
s 8
f 27/19/24 25/13/25 15/13/26 14/12/27 
f 28/1/28 29/2/29 2/2/29 1/1/30 
f 30/10/31 28/1/28 1/1/30 11/10/32 
s 1
f 31/9/33 30/10/33 11/10/33 10/9/33 
s 2
f 32/15/34 31/9/35 10/9/36 17/15/37 
s 1
f 24/5/22 33/18/38 34/6/39 
s 4
f 10/9/9 9/8/8 18/16/17 17/15/16 
s 1
f 35/20/40 36/5/40 37/5/40 38/4/40 39/4/40 
f 40/5/41 41/18/42 22/18/20 21/5/19 
f 42/4/23 26/4/23 25/13/23 43/13/23 
s 8
f 43/13/43 25/13/25 27/19/24 44/19/44 
f 44/19/44 27/19/24 29/2/29 45/2/45 
f 46/21/46 45/2/45 29/2/29 28/1/28 
f 46/21/46 28/1/28 30/10/31 47/10/47 
s 1
f 48/22/33 47/10/33 30/10/33 31/9/33 
s 2
f 48/22/48 31/9/35 32/15/34 49/15/49 
s 4
f 26/4/50 42/4/51 50/5/52 
s 2
f 49/15/49 32/15/34 51/23/53 52/23/54 
s 8
f 29/2/29 27/19/24 14/14/27 2/2/29 
f 6/5/55 53/6/56 7/6/57 
s 1
f 24/5/22 23/18/21 33/18/38 
s 4
f 42/4/51 54/5/58 50/5/52 
s 8
f 6/5/55 55/5/59 56/6/60 53/6/56 
f 50/5/61 57/5/61 55/5/59 6/5/55 
f 54/5/62 58/5/62 57/5/61 50/5/61 
s 1
f 59/18/63 60/18/63 61/5/64 58/5/65 
f 55/5/66 62/5/66 63/6/67 56/6/67 
f 57/5/20 64/5/20 62/5/66 55/5/66 
f 57/5/20 58/5/65 61/5/64 64/5/20 
s 2
f 60/18/68 41/18/68 40/5/69 61/5/69 
s 4
f 62/5/70 24/5/70 34/6/71 63/6/71 
f 64/5/72 21/5/73 24/5/70 62/5/70 
f 61/5/74 40/5/74 21/5/73 64/5/72 
s 16
f 42/4/75 65/4/76 66/5/77 54/5/78 
f 43/13/79 67/13/80 65/4/76 42/4/75 
f 43/13/79 44/19/81 68/19/82 67/13/80 
f 44/19/81 45/2/83 69/2/84 68/19/82 
f 46/21/85 70/21/86 69/2/84 45/2/83 
f 47/10/87 71/10/88 70/21/86 46/21/85 
f 47/10/87 48/22/89 72/22/90 71/10/88 
f 48/22/89 49/15/91 73/15/92 72/22/90 
f 49/15/91 52/23/93 74/24/94 73/15/92 
f 66/5/77 65/4/76 75/4/95 76/5/96 
f 67/13/80 77/13/97 75/4/95 65/4/76 
f 67/13/80 68/19/82 78/19/98 77/13/97 
f 68/19/82 69/2/84 79/2/99 78/19/98 
f 70/21/86 80/21/100 79/2/99 69/2/84 
f 71/10/88 81/10/101 80/21/100 70/21/86 
f 71/10/88 72/22/90 82/22/102 81/10/101 
f 72/22/90 73/15/92 83/15/103 82/22/102 
f 73/15/92 74/24/94 84/24/104 83/15/103 
s 2
f 76/5/105 75/4/106 85/4/106 86/5/107 
s 4
f 75/4/108 77/13/108 87/13/108 85/4/108 
s 2
f 78/19/109 88/19/110 87/13/111 77/13/111 
f 79/2/112 89/2/113 88/19/110 78/19/109 
f 79/2/112 80/21/114 90/21/115 89/2/113 
f 80/21/114 81/10/116 91/10/116 90/21/115 
s 4
f 82/22/117 92/22/117 91/10/117 81/10/117 
s 2
f 83/15/118 93/15/119 92/22/120 82/22/120 
f 84/24/121 94/24/121 93/15/119 83/15/118 
s 16
f 95/25/122 96/18/123 54/5/78 66/5/77 
f 76/5/96 97/26/124 95/25/122 66/5/77 
s 2
f 86/5/107 98/27/125 97/26/125 76/5/105 
s 32
f 96/18/126 59/28/126 58/5/127 54/5/127 
s 4
f 99/4/128 100/4/129 5/4/130 26/4/50 
f 50/5/52 101/5/131 102/20/132 26/4/50 
f 6/5/133 103/5/133 101/5/131 50/5/52 
f 5/4/130 100/4/129 103/5/133 6/5/133 
s 2
f 39/4/134 38/4/134 100/4/134 99/4/134 
f 36/5/135 35/20/135 102/20/135 101/5/135 
s 8
f 103/5/136 37/5/136 36/5/136 101/5/136 
s 16
f 100/4/137 38/4/137 37/5/137 103/5/137 
s 4
f 99/4/128 26/4/50 102/20/132 
s 8
f 99/4/138 102/20/138 35/20/138 39/4/138 
s 2
f 32/15/34 17/15/37 20/17/53 51/23/53 
s 4
f 104/1/139 105/3/140 106/2/141 107/2/142 
s 2
f 108/4/143 109/7/144 110/6/145 111/5/145 
s 4
f 112/8/146 113/10/147 114/10/148 115/9/149 
s 2
f 116/11/150 117/13/151 118/13/152 119/12/150 
s 4
f 114/10/148 113/10/147 105/3/140 104/1/139 
s 2
f 118/13/152 117/13/151 109/7/144 108/4/143 
s 4
f 119/14/153 107/2/142 106/2/141 116/11/153 
f 120/15/154 20/17/18 19/17/18 121/16/155 
s 1
f 23/18/21 22/18/20 122/5/156 123/5/157 
f 108/4/158 124/4/158 125/13/158 118/13/158 
s 8
f 118/13/159 125/13/160 126/19/161 119/12/162 
f 107/2/163 127/2/163 128/1/164 104/1/165 
f 104/1/165 128/1/164 129/10/166 114/10/167 
s 1
f 114/10/168 129/10/168 130/9/168 115/9/168 
s 2
f 115/9/169 130/9/170 131/15/171 120/15/172 
s 1
f 123/5/157 132/6/173 33/18/38 
s 4
f 115/9/149 120/15/154 121/16/155 112/8/146 
s 1
f 133/5/174 122/5/156 22/18/20 41/18/42 
f 125/13/158 124/4/158 134/4/158 135/13/158 
s 8
f 126/19/161 125/13/160 135/13/175 136/19/176 
f 127/2/163 126/19/161 136/19/176 137/2/177 
f 127/2/163 137/2/177 138/21/178 128/1/164 
f 129/10/166 128/1/164 138/21/178 139/10/179 
s 1
f 129/10/168 139/10/168 140/22/168 130/9/168 
s 2
f 131/15/171 130/9/170 140/22/180 141/15/181 
s 4
f 124/4/182 142/5/183 134/4/184 
s 2
f 51/23/53 131/15/171 141/15/181 52/23/54 
s 8
f 119/14/162 126/19/161 127/2/163 107/2/163 
f 111/5/185 110/6/186 143/6/187 
s 1
f 123/5/157 33/18/38 23/18/21 
s 4
f 134/4/184 142/5/183 144/5/188 
s 8
f 145/6/189 146/5/190 111/5/185 143/6/187 
f 146/5/190 147/5/191 142/5/191 111/5/185 
f 147/5/191 148/5/192 144/5/192 142/5/191 
s 1
f 149/5/193 60/18/63 59/18/63 148/5/194 
f 150/6/195 151/5/196 146/5/196 145/6/195 
f 151/5/196 152/5/197 147/5/197 146/5/196 
f 147/5/197 152/5/197 149/5/193 148/5/194 
s 2
f 133/5/68 41/18/68 60/18/68 149/5/68 
s 4
f 132/6/198 123/5/199 151/5/199 150/6/198 
f 123/5/199 122/5/200 152/5/201 151/5/199 
f 122/5/200 133/5/202 149/5/202 152/5/201 
s 16
f 153/5/203 154/4/204 134/4/205 144/5/206 
f 154/4/204 155/13/207 135/13/208 134/4/205 
f 135/13/208 155/13/207 156/19/209 136/19/210 
f 136/19/210 156/19/209 157/2/211 137/2/212 
f 157/2/211 158/21/213 138/21/214 137/2/212 
f 158/21/213 159/10/215 139/10/216 138/21/214 
f 139/10/216 159/10/215 160/22/217 140/22/218 
f 140/22/218 160/22/217 161/15/219 141/15/220 
f 141/15/220 161/15/219 74/24/94 52/23/93 
f 153/5/203 162/5/221 163/4/222 154/4/204 
f 163/4/222 164/13/223 155/13/207 154/4/204 
f 155/13/207 164/13/223 165/19/224 156/19/209 
f 156/19/209 165/19/224 166/2/225 157/2/211 
f 166/2/225 167/21/226 158/21/213 157/2/211 
f 167/21/226 168/10/227 159/10/215 158/21/213 
f 159/10/215 168/10/227 169/22/228 160/22/217 
f 160/22/217 169/22/228 170/15/229 161/15/219 
f 161/15/219 170/15/229 84/24/104 74/24/94 
s 2
f 162/5/230 171/5/231 172/4/232 163/4/232 
s 4
f 163/4/233 172/4/233 173/13/233 164/13/233 
s 2
f 173/13/234 174/19/235 165/19/236 164/13/234 
f 174/19/235 175/2/237 166/2/238 165/19/236 
f 166/2/238 175/2/237 176/21/239 167/21/240 
f 167/21/240 176/21/239 177/10/241 168/10/241 
s 4
f 177/10/242 178/22/242 169/22/242 168/10/242 
s 2
f 178/22/243 179/15/244 170/15/245 169/22/243 
f 179/15/244 94/24/121 84/24/121 170/15/245 
s 16
f 144/5/206 96/18/123 95/25/122 153/5/203 
f 162/5/221 153/5/203 95/25/122 97/26/124 
s 2
f 171/5/231 162/5/230 97/26/125 98/27/125 
s 32
f 148/5/246 59/28/126 96/18/126 144/5/246 
s 4
f 124/4/182 108/4/182 111/5/182 142/5/183 
s 2
f 20/17/53 120/15/172 131/15/171 51/23/53 
# 149 polygons - 11 triangles

