# 3ds Max Wavefront OBJ Exporter v0.99 - (c)2007 guruware
# File Created: 19.05.2024 16:59:09

#
# object Box642
#

v  -2.4888 0.0000 -7.9956
v  -2.4888 0.2706 -7.9956
v  0.0000 0.2706 -7.9956
v  0.0000 0.0000 -7.9956
v  -2.9684 0.5850 10.1584
v  -2.4888 0.6192 6.5689
v  -4.2908 0.6192 6.5669
v  -5.0679 0.2706 -6.7070
v  -5.0679 0.0000 -6.7070
v  -8.4300 0.0007 -6.7097
v  -8.4300 0.2704 -6.7097
v  -4.2908 0.0000 -7.3513
v  -4.2908 0.2706 -7.3513
v  -2.4888 0.2706 -7.1794
v  0.0000 0.2706 -7.1794
v  -5.0679 0.2706 -5.8787
v  -4.2908 0.2706 -6.5291
v  -11.9589 0.2706 -6.7124
v  -11.9589 0.5509 -6.7124
v  -11.1743 0.5509 -6.7124
v  -11.1743 0.2706 -6.7124
v  -5.0679 0.5509 -5.8787
v  -4.2908 0.5509 -6.5291
v  -2.4888 0.5509 -7.1794
v  0.0000 0.5509 -7.1794
v  -5.0679 0.5509 -5.9753
v  -5.0679 0.6192 -5.9753
v  -4.2908 0.6192 -6.6257
v  -4.2908 0.5509 -6.6257
v  -2.4888 0.5509 -7.2761
v  -2.4888 0.6192 -7.2761
v  0.0000 0.6192 -7.2761
v  0.0000 0.5509 -7.2761
v  -2.4888 0.6192 -7.1794
v  -4.2908 0.6192 -6.5291
v  -5.0679 0.6192 -5.8787
v  -8.4297 0.6192 -5.9753
v  -8.4297 0.6192 -5.8787
v  0.0000 0.6192 6.5689
v  0.0000 0.6192 5.8575
v  -2.4888 0.6192 5.8575
v  -8.4300 0.2704 -5.8787
v  -8.4297 0.5509 -5.8787
v  -8.4297 0.5509 -5.9753
v  -5.0679 0.6192 3.6252
v  -5.0679 0.6192 2.9946
v  -8.4297 0.6192 2.9946
v  -8.4297 0.6192 3.6252
v  -2.4888 0.6192 2.9930
v  -2.4888 0.6192 3.6238
v  0.0000 0.6192 3.6238
v  0.0000 0.6192 2.9930
v  -4.2908 0.6192 2.9938
v  -4.2908 0.6192 3.6245
v  -4.2908 0.6192 5.8556
v  -8.4297 5.4861 5.8577
v  -5.0679 5.4861 5.8577
v  -5.0679 0.6192 5.8577
v  -8.4297 0.6192 5.8577
v  -4.2908 5.4861 5.8556
v  -4.2908 5.4861 6.5669
v  -3.0064 5.4861 10.1554
v  -11.1743 0.6192 5.8605
v  -10.3447 5.4861 5.8605
v  -9.8816 0.6184 3.6252
v  -9.8816 0.6184 2.9946
v  -9.0871 5.2717 2.9946
v  -9.0871 5.2717 3.6252
v  0.0000 0.5850 10.1584
v  0.0000 0.6192 -7.1794
v  -11.1743 0.6192 3.6252
v  -10.9830 0.6192 -5.6873
v  -10.9830 0.6192 2.8033
v  -8.6210 0.6192 2.8033
v  -8.6210 0.6192 -5.6873
v  -11.3317 0.9292 4.1880
v  -11.3258 0.9642 4.0817
v  -11.3159 1.0224 3.9989
v  -11.3019 1.1040 3.9398
v  -11.2841 1.2088 3.9044
v  -11.2622 1.3370 3.8926
v  -10.6655 4.8380 3.8926
v  -10.6436 4.9661 3.9044
v  -10.6257 5.0710 3.9398
v  -10.6118 5.1525 3.9989
v  -10.6019 5.2108 4.0817
v  -10.5960 5.2458 4.1880
v  -10.5940 5.2574 4.3180
v  -10.5940 5.2574 5.1677
v  -10.5960 5.2458 5.2977
v  -10.6019 5.2108 5.4041
v  -10.6118 5.1525 5.4869
v  -10.6257 5.0710 5.5459
v  -10.6436 4.9661 5.5814
v  -10.6655 4.8380 5.5932
v  -11.2622 1.3370 5.5932
v  -11.2841 1.2088 5.5814
v  -11.3019 1.1040 5.5459
v  -11.3159 1.0224 5.4869
v  -11.3258 0.9642 5.4041
v  -11.3317 0.9292 5.2977
v  -11.3337 0.9176 5.1677
v  -11.3337 0.9176 4.3180
v  -10.3447 5.4861 -1.4420
v  -10.3447 5.4861 2.9946
v  -11.1743 0.6192 2.9946
v  -11.1743 0.6192 -1.4420
v  -10.3447 5.4861 3.6252
v  -11.1743 0.6192 -5.8787
v  -11.9589 0.6192 -6.7124
v  -11.1743 0.6192 -6.7124
v  -8.4304 0.3386 -5.8787
v  -8.4304 0.3386 -6.7124
v  -8.4280 5.4823 -6.7124
v  -8.4280 5.4823 -5.8787
v  -11.1743 0.5509 -5.8787
v  -11.1743 0.2706 -5.8787
v  -8.4300 0.0007 -5.8787
v  -10.3447 5.4861 -6.7124
v  -10.3447 5.4861 -5.8787
v  2.4888 0.2706 -7.9956
v  2.4888 0.0000 -7.9956
v  2.9684 0.5850 10.1584
v  4.2908 0.6192 6.5669
v  2.4888 0.6192 6.5689
v  8.4300 0.0007 -6.7097
v  5.0679 0.0000 -6.7070
v  5.0679 0.2706 -6.7070
v  8.4300 0.2704 -6.7097
v  4.2908 0.0000 -7.3513
v  4.2908 0.2706 -7.3513
v  2.4888 0.2706 -7.1794
v  4.2908 0.2706 -6.5291
v  5.0679 0.2706 -5.8787
v  11.1743 0.5509 -6.7124
v  11.9589 0.5509 -6.7124
v  11.9589 0.2706 -6.7124
v  11.1743 0.2706 -6.7124
v  4.2908 0.5509 -6.5291
v  5.0679 0.5509 -5.8787
v  2.4888 0.5509 -7.1794
v  4.2908 0.6192 -6.6257
v  5.0679 0.6192 -5.9753
v  5.0679 0.5509 -5.9753
v  4.2908 0.5509 -6.6257
v  2.4888 0.6192 -7.2761
v  2.4888 0.5509 -7.2761
v  2.4888 0.6192 -7.1794
v  4.2908 0.6192 -6.5291
v  8.4297 0.6192 -5.9753
v  5.0679 0.6192 -5.8787
v  8.4297 0.6192 -5.8787
v  2.4888 0.6192 5.8575
v  8.4300 0.2704 -5.8787
v  8.4297 0.5509 -5.8787
v  8.4297 0.5509 -5.9753
v  8.4297 0.6192 2.9946
v  5.0679 0.6192 2.9946
v  5.0679 0.6192 3.6252
v  8.4297 0.6192 3.6252
v  2.4888 0.6192 3.6238
v  2.4888 0.6192 2.9930
v  4.2908 0.6192 2.9938
v  4.2908 0.6192 3.6245
v  4.2908 0.6192 5.8556
v  5.0679 0.6192 5.8577
v  5.0679 5.4861 5.8577
v  8.4297 5.4861 5.8577
v  8.4297 0.6192 5.8577
v  4.2908 5.4861 5.8556
v  4.2908 5.4861 6.5669
v  3.0064 5.4861 10.1554
v  10.3447 5.4861 5.8605
v  11.1743 0.6192 5.8605
v  9.0871 5.2717 2.9946
v  9.8816 0.6184 2.9946
v  9.8816 0.6184 3.6252
v  9.0871 5.2717 3.6252
v  11.1743 0.6192 3.6252
v  8.6210 0.6192 2.8033
v  10.9830 0.6192 2.8033
v  10.9830 0.6192 -5.6873
v  8.6210 0.6192 -5.6873
v  10.3447 5.4861 3.6252
v  11.1743 0.6192 -1.4420
v  10.3447 5.4861 -1.4420
v  10.3447 5.4861 -5.8787
v  11.1743 0.6192 -5.8787
v  10.3447 5.4861 2.9946
v  11.1743 0.6192 2.9946
v  11.1743 0.6192 -6.7124
v  11.9589 0.6192 -6.7124
v  8.4280 5.4823 -6.7124
v  8.4304 0.3386 -6.7124
v  8.4304 0.3386 -5.8787
v  8.4280 5.4823 -5.8787
v  11.1743 0.5509 -5.8787
v  8.4300 0.0007 -5.8787
v  11.1743 0.2706 -5.8787
v  10.3447 5.4861 -6.7124
v  -10.3731 5.3195 5.2661
v  -10.3731 5.3195 4.2197
v  -11.0744 1.2052 5.6916
v  -10.4446 4.9001 5.6916
v  -11.1459 0.7857 4.2197
v  -11.1459 0.7857 5.2661
v  -10.4446 4.9001 3.7942
v  -11.0744 1.2052 3.7942
v  -10.3910 5.2147 5.5852
v  -10.3810 5.2729 5.5025
v  -10.3751 5.3079 5.3961
v  -10.3751 5.3079 4.0896
v  -10.3810 5.2729 3.9833
v  -10.3910 5.2147 3.9005
v  -11.1280 0.8906 5.5852
v  -11.1141 0.9722 5.6443
v  -11.0963 1.0770 5.6798
v  -10.4227 5.0283 5.6798
v  -10.4049 5.1331 5.6443
v  -11.1280 0.8906 3.9005
v  -11.1380 0.8323 3.9833
v  -11.1439 0.7974 4.0896
v  -11.1439 0.7974 5.3961
v  -11.1380 0.8323 5.5025
v  -10.4049 5.1331 3.8415
v  -10.4227 5.0283 3.8060
v  -11.0963 1.0770 3.8060
v  -11.1141 0.9722 3.8415
v  -10.4190 5.0499 -5.7071
v  -10.8366 2.6005 -5.7275
v  -10.4190 5.0499 -1.6136
v  -10.8366 2.6005 -1.5932
v  -10.4892 5.0280 -5.6739
v  -10.6584 4.7540 -5.3779
v  -10.9640 2.9592 -5.3926
v  -10.8959 2.6444 -5.6940
v  -10.4892 5.0280 -1.6468
v  -10.6584 4.7540 -1.9428
v  -10.8959 2.6444 -1.6267
v  -10.9640 2.9592 -1.9281
v  -10.4586 5.0227 -5.6739
v  -10.8653 2.6392 -5.6940
v  -10.4586 5.0227 -1.6468
v  -10.8653 2.6392 -1.6267
v  -10.9622 2.9926 -5.3591
v  -10.9334 2.9540 -5.3926
v  -10.6279 4.7488 -5.3779
v  -10.6675 4.7216 -5.3447
v  -10.9622 2.9926 -1.9616
v  -10.9334 2.9540 -1.9281
v  -10.6675 4.7216 -1.9760
v  -10.6279 4.7488 -1.9428
v  -4.2908 7.3190 5.8556
v  -4.2908 7.3190 6.5669
v  -5.0679 7.3190 5.8577
v  -8.4297 7.3190 5.8577
v  -10.3447 7.3190 5.8605
v  -3.0064 7.3190 10.1554
v  -10.3286 7.3189 3.6252
v  -10.3286 7.3189 5.8605
v  -9.0711 7.1046 3.6252
v  -9.0711 7.1046 2.9946
v  -10.3286 7.3189 2.9946
v  -10.3286 7.3189 -1.4420
v  -10.3286 7.3189 -5.8787
v  -8.4120 7.3152 -5.8787
v  -8.4120 7.3152 -6.7124
v  4.2908 7.3190 5.8556
v  5.0679 7.3190 5.8577
v  4.2908 7.3190 6.5669
v  3.0064 7.3190 10.1554
v  8.4297 7.3190 5.8577
v  10.3447 7.3190 5.8605
v  8.4120 7.3152 -5.8787
v  8.4120 7.3152 -6.7124
v  10.3286 7.3189 -5.8787
v  10.3286 7.3189 -1.4420
v  9.0711 7.1046 2.9946
v  10.3286 7.3189 2.9946
v  9.0711 7.1046 3.6252
v  10.3286 7.3189 3.6252
v  10.3286 7.3189 5.8605
# 282 vertices

vn -0.1708 0.0000 -0.9853
vn 0.0000 0.0000 -1.0000
vn -0.0000 1.0000 0.0095
vn -0.0000 1.0000 0.0048
vn -0.0000 1.0000 0.0042
vn 0.0008 0.0000 -1.0000
vn 0.0009 0.0000 -1.0000
vn 0.0001 -0.0061 -1.0000
vn -0.4950 0.0000 -0.8689
vn 0.0000 1.0000 -0.0000
vn -0.0000 1.0000 -0.0000
vn -0.0002 -0.0053 -1.0000
vn 0.0005 0.0000 -1.0000
vn -0.6418 0.0000 -0.7669
vn -0.4983 0.0000 -0.8670
vn -0.1723 0.0000 -0.9850
vn 0.0000 -1.0000 -0.0000
vn 0.0000 1.0000 0.0048
vn -0.0001 1.0000 -0.0000
vn -0.0001 1.0000 0.0003
vn -0.6383 0.0000 -0.7698
vn -0.0006 0.0001 -1.0000
vn -0.0014 0.0000 -1.0000
vn -0.0027 0.0000 -1.0000
vn 1.0000 0.0000 -0.0000
vn 0.9853 0.0000 -0.1710
vn 0.9847 0.0021 -0.1741
vn 0.9402 0.0030 -0.3406
vn -0.0012 0.0001 -1.0000
vn 0.9857 -0.1683 -0.0000
vn 0.9384 0.0071 -0.3455
vn 0.0000 1.0000 0.0095
vn 0.0000 1.0000 -0.0001
vn 0.0000 1.0000 -0.0002
vn -0.0002 1.0000 -0.0001
vn 0.0000 1.0000 0.0008
vn 0.9858 -0.1680 -0.0000
vn 0.0000 0.0000 1.0000
vn 0.0000 1.0000 0.0011
vn -0.0002 1.0000 0.0015
vn -0.0005 -0.0064 -1.0000
vn 1.0000 0.0027 -0.0000
vn 1.0000 -0.0005 -0.0000
vn 1.0000 0.0059 -0.0000
vn -0.0008 -0.0105 -0.9999
vn 0.1708 0.0000 -0.9853
vn 0.0000 1.0000 0.0042
vn -0.0009 0.0000 -1.0000
vn -0.0008 0.0000 -1.0000
vn -0.0001 -0.0061 -1.0000
vn 0.4950 0.0000 -0.8689
vn 0.0002 -0.0053 -1.0000
vn -0.0005 0.0000 -1.0000
vn 0.4983 0.0000 -0.8670
vn 0.6418 0.0000 -0.7669
vn 0.1723 0.0000 -0.9850
vn 0.0001 1.0000 -0.0000
vn 0.0001 1.0000 0.0003
vn 0.6383 0.0000 -0.7698
vn 0.0014 0.0000 -1.0000
vn 0.0006 0.0001 -1.0000
vn 0.0027 0.0000 -1.0000
vn -1.0000 0.0000 -0.0000
vn -0.9847 0.0021 -0.1741
vn -0.9853 0.0000 -0.1710
vn -0.9402 0.0030 -0.3406
vn 0.0012 0.0001 -1.0000
vn -0.9857 -0.1683 -0.0000
vn -0.9384 0.0071 -0.3455
vn -0.0000 1.0000 -0.0001
vn -0.0000 1.0000 -0.0002
vn 0.0002 1.0000 -0.0001
vn -0.0000 1.0000 0.0008
vn -0.9858 -0.1680 -0.0000
vn -0.0000 1.0000 0.0011
vn 0.0002 1.0000 0.0015
vn 0.0005 -0.0064 -1.0000
vn -1.0000 -0.0005 -0.0000
vn -1.0000 0.0027 -0.0000
vn -1.0000 0.0059 -0.0000
vn 0.0008 -0.0105 -0.9999
vn 0.9858 -0.1681 0.0000
vn 0.9858 -0.1681 -0.0000
vn 0.9858 -0.1680 0.0000
vn 0.2830 -0.9586 -0.0304
vn 0.2830 -0.9586 0.0304
vn 0.2909 -0.9555 0.0500
vn 0.2909 -0.9554 -0.0500
vn 0.4392 -0.0440 -0.8973
vn 0.4290 -0.1041 -0.8973
vn 0.4328 -0.1248 -0.8928
vn 0.4496 -0.0259 -0.8928
vn 0.5851 0.8104 0.0305
vn 0.5851 0.8104 -0.0305
vn 0.5914 0.8048 -0.0503
vn 0.5914 0.8048 0.0503
vn 0.4290 -0.1041 0.8973
vn 0.4392 -0.0440 0.8973
vn 0.4496 -0.0259 0.8928
vn 0.4328 -0.1248 0.8928
vn 0.9858 -0.1681 0.0001
vn 0.9858 -0.1681 -0.0001
vn 0.3455 -0.9176 -0.1964
vn 0.3320 -0.9299 -0.1585
vn 0.4071 -0.8243 -0.3935
vn 0.4005 -0.8383 -0.3699
vn 0.4507 -0.6724 -0.5871
vn 0.4507 -0.6724 -0.5872
vn 0.3320 -0.9298 0.1586
vn 0.3455 -0.9176 0.1965
vn 0.4006 -0.8383 0.3699
vn 0.4071 -0.8243 0.3935
vn 0.4508 -0.6725 0.5870
vn 0.5210 0.1106 -0.8463
vn 0.5037 0.0751 -0.8606
vn 0.5982 0.2970 -0.7442
vn 0.5903 0.2746 -0.7591
vn 0.6479 0.4849 -0.5874
vn 0.6479 0.4849 -0.5875
vn 0.4503 -0.2377 -0.8606
vn 0.4550 -0.2768 -0.8464
vn 0.4661 -0.4545 -0.7590
vn 0.4662 -0.4784 -0.7442
vn 0.6302 0.7512 0.1962
vn 0.6216 0.7671 0.1585
vn 0.6573 0.6429 0.3932
vn 0.6558 0.6583 0.3696
vn 0.6479 0.4850 0.5874
vn 0.6479 0.4850 0.5873
vn 0.6216 0.7671 -0.1585
vn 0.6302 0.7513 -0.1960
vn 0.6557 0.6584 -0.3696
vn 0.6573 0.6430 -0.3932
vn 0.4549 -0.2766 0.8465
vn 0.4502 -0.2376 0.8607
vn 0.4661 -0.4783 0.7443
vn 0.4660 -0.4544 0.7592
vn 0.5035 0.0750 0.8607
vn 0.5209 0.1104 0.8465
vn 0.5901 0.2744 0.7592
vn 0.5981 0.2970 0.7443
vn 0.9858 -0.1679 -0.0000
vn 0.9138 -0.1589 0.3738
vn 0.8508 -0.5254 -0.0000
vn 0.9138 -0.1589 -0.3738
vn 0.9774 0.2114 -0.0000
vn 0.6828 -0.1225 0.7203
vn 0.5662 -0.8243 -0.0000
vn 0.6828 -0.1225 -0.7203
vn 0.8032 0.5957 -0.0000
vn 0.6824 -0.1222 0.7207
vn 0.8015 0.5980 -0.0000
vn 0.6824 -0.1222 -0.7207
vn -0.0014 -0.0082 1.0000
vn -0.1707 -0.9853 -0.0000
vn -0.0014 -0.0082 -1.0000
vn 0.1675 0.9859 -0.0000
vn 0.0014 0.0080 -1.0000
vn -0.1675 -0.9859 -0.0000
vn 0.0014 0.0080 1.0000
vn 0.1681 0.9858 -0.0000
vn -0.0015 0.0000 -1.0000
vn 0.9415 0.0000 -0.3370
vn 1.0000 -0.0088 -0.0000
vn 1.0000 -0.0087 -0.0000
vn -0.9415 0.0000 -0.3370
vn 0.0015 0.0000 -1.0000
vn -1.0000 -0.0087 -0.0000
vn -1.0000 -0.0088 -0.0000
# 169 vertex normals

vt 0.4000 0.0000 0.0000
vt 0.4000 1.0000 0.0000
vt 0.5000 1.0000 0.0000
vt 0.5000 0.0000 0.0000
vt 0.6500 0.0000 0.0000
vt 0.6000 0.2500 0.0000
vt 0.7000 0.2500 0.0000
vt 0.2000 1.0000 0.0000
vt 0.2000 0.0000 0.0000
vt 0.1000 0.0000 0.0000
vt 0.1000 1.0000 0.0000
vt 0.3000 0.0000 0.0000
vt 0.3000 1.0000 0.0000
vt 0.6000 0.5000 0.0000
vt 0.5000 0.5000 0.0000
vt 0.6000 1.0000 0.0000
vt 0.8000 1.0000 0.0000
vt 0.8000 0.5000 0.0000
vt 0.7000 0.5000 0.0000
vt 0.7000 1.0000 0.0000
vt 1.0000 0.5000 0.0000
vt 0.9725 0.5000 0.0000
vt 0.9000 0.5000 0.0000
vt 0.5000 0.2500 0.0000
vt 0.5000 0.3750 0.0000
vt 0.6000 0.3750 0.0000
vt 0.9000 1.0000 0.0000
vt 0.8000 0.4342 0.0000
vt 0.8000 0.4408 0.0000
vt 0.9000 0.4408 0.0000
vt 0.9000 0.4342 0.0000
vt 0.6000 0.4408 0.0000
vt 0.6000 0.4342 0.0000
vt 0.5000 0.4342 0.0000
vt 0.5000 0.4408 0.0000
vt 0.7000 0.4408 0.0000
vt 0.7000 0.4342 0.0000
vt 0.7000 0.3750 0.0000
vt 0.9000 0.3750 0.0000
vt 0.8000 0.3750 0.0000
vt 0.7000 0.0000 0.0000
vt 0.9725 0.3750 0.0000
vt 0.9725 0.4342 0.0000
vt 0.9725 0.4408 0.0000
vt 0.9362 0.4342 0.0000
vt 0.9725 0.4244 0.0000
vt 0.9725 0.4293 0.0000
vt 0.9725 0.4194 0.0000
vt 0.9725 0.3898 0.0000
vt 0.9725 0.3849 0.0000
vt 0.9725 0.3799 0.0000
vt 0.9725 0.4704 0.0000
vt 0.9362 0.4408 0.0000
vt 0.9725 0.3883 0.0000
vt 0.9725 0.4210 0.0000
vt 0.9725 0.3794 0.0000
vt 0.9725 0.3839 0.0000
vt 0.9725 0.4254 0.0000
vt 0.9725 0.4298 0.0000
# 59 texture coords

o Box642
g Box642
s 1
f 1/1/1 2/2/1 3/3/2 4/4/2 
f 5/5/3 6/6/4 7/7/5 
s 2
f 8/8/6 9/9/6 10/10/7 11/11/8 
s 1
f 2/2/1 1/1/1 12/12/9 13/13/9 
s 4
f 14/14/10 15/15/10 3/3/10 2/16/10 
f 8/17/11 16/18/11 17/19/10 13/20/10 
s 2
f 18/21/2 19/21/2 20/22/12 21/22/13 
s 1
f 16/18/14 22/18/14 23/19/15 17/19/15 
f 14/14/16 24/14/16 25/15/2 15/15/2 
s 2
f 26/18/14 27/18/14 28/19/15 29/19/15 
f 30/14/16 31/14/16 32/15/2 33/15/2 
s 4
f 23/19/17 22/18/17 26/18/17 29/19/17 
f 24/14/17 30/14/17 33/15/17 25/15/17 
s 1
f 34/14/10 31/14/10 28/19/10 35/19/10 
f 36/18/10 27/18/10 37/23/10 38/23/10 
f 6/6/4 39/24/18 40/25/10 41/26/10 
s 4
f 11/27/19 42/23/19 16/18/11 8/17/11 
s 2
f 42/23/2 43/23/2 22/18/2 16/18/2 
s 8
f 44/23/2 37/23/2 27/18/2 26/18/2 
s 4
f 43/23/17 44/23/17 26/18/17 22/18/17 
s 1
f 45/28/10 46/29/10 47/30/20 48/31/19 
f 49/32/10 50/33/10 51/34/10 52/35/10 
f 53/36/10 46/29/10 45/28/10 54/37/10 
f 13/13/9 12/12/9 9/9/21 8/8/21 
s 4
f 13/20/10 17/19/10 14/14/10 2/16/10 
s 1
f 17/19/15 23/19/15 24/14/16 14/14/16 
s 2
f 29/19/15 28/19/15 31/14/16 30/14/16 
s 4
f 24/14/17 23/19/17 29/19/17 30/14/17 
s 1
f 35/19/10 28/19/10 27/18/10 36/18/10 
f 55/38/10 7/7/5 6/6/4 41/26/10 
f 54/37/10 50/33/10 49/32/10 53/36/10 
s 2
f 56/39/22 57/40/23 58/40/23 59/39/22 
f 57/40/23 60/38/24 55/38/24 58/40/23 
s 4
f 55/38/25 61/7/26 7/7/27 
f 7/7/27 61/7/26 62/41/28 
s 2
f 59/39/22 63/42/29 64/42/29 56/39/22 
f 65/43/30 66/44/30 67/44/30 68/43/30 
s 4
f 7/7/27 62/41/28 5/5/31 
s 1
f 69/4/32 39/24/18 6/6/4 5/5/3 
f 70/15/10 32/15/10 31/14/10 34/14/10 
s 4
f 55/38/25 60/38/25 61/7/26 
s 1
f 58/40/10 45/28/10 48/31/19 59/39/33 
f 38/23/10 47/30/20 46/29/10 36/18/10 
f 34/14/10 49/32/10 52/35/10 70/15/10 
f 40/25/10 51/34/10 50/33/10 41/26/10 
f 53/36/10 35/19/10 36/18/10 46/29/10 
f 58/40/10 55/38/10 54/37/10 45/28/10 
f 55/38/10 41/26/10 50/33/10 54/37/10 
f 49/32/10 34/14/10 35/19/10 53/36/10 
f 63/42/34 59/39/33 48/31/19 65/45/35 71/43/34 
f 72/22/10 73/44/36 74/30/36 75/23/10 
f 76/46/37 77/47/37 78/43/37 79/43/37 80/43/37 81/43/37 82/43/37 83/43/37 84/43/37 85/43/37 86/47/37 87/46/37 88/48/37 89/49/37 90/50/37 91/51/37 92/42/37 93/42/37 94/42/37 95/42/37 96/42/37 97/42/37 98/42/37 99/42/37 100/51/37 101/50/37 102/49/37 103/48/37 
s 2
f 104/52/37 105/44/37 106/44/37 107/52/37 
s 4
f 108/43/38 71/43/38 65/43/38 68/43/38 
f 105/44/2 67/44/2 66/44/2 106/44/2 
s 1
f 109/22/10 72/22/10 75/23/10 38/23/10 
f 107/52/10 106/44/39 73/44/36 72/22/10 109/22/10 
f 66/53/40 47/30/20 74/30/36 73/44/36 106/44/39 
f 38/23/10 75/23/10 74/30/36 47/30/20 
s 2
f 110/21/2 111/22/41 20/22/12 19/21/2 
s 8
f 112/22/42 113/22/42 114/22/43 115/22/43 
f 42/22/44 11/22/44 113/22/42 112/22/42 
s 1
f 47/30/20 66/53/40 65/45/35 48/31/19 
s 4
f 43/23/2 116/22/2 109/22/2 38/23/2 
s 16
f 117/22/38 118/22/38 42/22/38 116/22/38 
s 2
f 21/22/13 20/22/12 11/22/8 10/22/7 
f 20/22/12 111/22/41 113/22/45 11/22/8 
f 119/22/2 114/22/2 113/22/45 111/22/41 
s 16
f 120/22/38 109/22/38 112/22/38 115/22/38 
f 116/22/38 42/22/38 112/22/38 109/22/38 
s 1
f 3/3/2 121/2/46 122/1/46 4/4/2 
f 123/5/32 124/7/47 125/6/18 
s 2
f 126/10/48 127/9/49 128/8/49 129/11/50 
s 1
f 130/12/51 122/1/46 121/2/46 131/13/51 
s 4
f 3/3/10 15/15/10 132/14/10 121/16/10 
f 128/17/10 131/20/10 133/19/10 134/18/10 
s 2
f 135/22/52 136/21/2 137/21/2 138/22/53 
s 1
f 139/19/54 140/18/55 134/18/55 133/19/54 
f 25/15/2 141/14/56 132/14/56 15/15/2 
s 2
f 142/19/54 143/18/55 144/18/55 145/19/54 
f 32/15/2 146/14/56 147/14/56 33/15/2 
s 4
f 139/19/17 145/19/17 144/18/17 140/18/17 
f 33/15/17 147/14/17 141/14/17 25/15/17 
s 1
f 148/14/10 149/19/10 142/19/10 146/14/10 
f 150/23/10 143/18/10 151/18/10 152/23/10 
f 40/25/10 39/24/18 125/6/18 153/26/10 
s 4
f 134/18/10 154/23/57 129/27/57 128/17/10 
s 2
f 140/18/2 155/23/2 154/23/2 134/18/2 
s 8
f 143/18/2 150/23/2 156/23/2 144/18/2 
s 4
f 144/18/17 156/23/17 155/23/17 140/18/17 
s 1
f 157/30/58 158/29/10 159/28/10 160/31/57 
f 51/34/10 161/33/10 162/32/10 52/35/10 
f 159/28/10 158/29/10 163/36/10 164/37/10 
f 127/9/59 130/12/51 131/13/51 128/8/59 
s 4
f 131/20/10 121/16/10 132/14/10 133/19/10 
s 1
f 141/14/56 139/19/54 133/19/54 132/14/56 
s 2
f 146/14/56 142/19/54 145/19/54 147/14/56 
s 4
f 141/14/17 147/14/17 145/19/17 139/19/17 
s 1
f 149/19/10 151/18/10 143/18/10 142/19/10 
f 125/6/18 124/7/47 165/38/10 153/26/10 
f 162/32/10 161/33/10 164/37/10 163/36/10 
s 2
f 166/40/60 167/40/60 168/39/61 169/39/61 
f 165/38/62 170/38/62 167/40/60 166/40/60 
s 4
f 165/38/63 124/7/64 171/7/65 
f 124/7/64 172/41/66 171/7/65 
s 2
f 169/39/61 168/39/61 173/42/67 174/42/67 
f 175/44/68 176/44/68 177/43/68 178/43/68 
s 4
f 124/7/64 123/5/69 172/41/66 
s 1
f 69/4/32 123/5/32 125/6/18 39/24/18 
f 146/14/10 32/15/10 70/15/10 148/14/10 
s 4
f 165/38/63 171/7/65 170/38/63 
s 1
f 160/31/57 159/28/10 166/40/10 169/39/70 
f 158/29/10 157/30/58 152/23/10 151/18/10 
f 52/35/10 162/32/10 148/14/10 70/15/10 
f 161/33/10 51/34/10 40/25/10 153/26/10 
f 163/36/10 158/29/10 151/18/10 149/19/10 
f 164/37/10 165/38/10 166/40/10 159/28/10 
f 161/33/10 153/26/10 165/38/10 164/37/10 
f 162/32/10 163/36/10 149/19/10 148/14/10 
f 169/39/70 174/42/71 179/43/71 177/45/72 160/31/57 
f 180/30/73 181/44/73 182/22/10 183/23/10 
s 4
f 184/43/74 179/43/74 174/42/74 173/42/74 
s 2
f 185/52/74 186/52/74 187/22/74 188/22/74 
s 8
f 184/43/38 178/43/38 177/43/38 179/43/38 
s 4
f 176/44/2 175/44/2 189/44/2 190/44/2 
s 1
f 183/23/10 182/22/10 188/22/10 152/23/10 
f 182/22/10 181/44/73 190/44/75 185/52/10 188/22/10 
f 180/30/73 157/30/58 176/53/76 190/44/75 181/44/73 
f 180/30/73 183/23/10 152/23/10 157/30/58 
s 2
f 135/22/52 191/22/77 192/21/2 136/21/2 
s 8
f 193/22/78 194/22/79 195/22/79 196/22/78 
f 194/22/79 129/22/80 154/22/80 195/22/79 
s 1
f 177/45/72 176/53/76 157/30/58 160/31/57 
s 4
f 188/22/2 197/22/2 155/23/2 152/23/2 
s 16
f 154/22/38 198/22/38 199/22/38 197/22/38 
s 2
f 138/22/53 126/22/48 129/22/50 135/22/52 
f 135/22/52 129/22/50 194/22/81 191/22/77 
f 194/22/81 193/22/2 200/22/2 191/22/77 
s 16
f 187/22/38 196/22/38 195/22/38 188/22/38 
f 195/22/38 154/22/38 197/22/38 188/22/38 
s 8
f 201/54/82 202/55/83 108/43/83 64/42/82 
f 64/42/82 63/42/83 203/42/84 204/42/37 
f 71/43/82 205/55/82 206/54/83 63/42/83 
f 207/43/84 208/43/37 71/43/82 108/43/83 
s 2
f 89/49/85 88/48/86 202/55/87 201/54/88 
f 96/42/89 95/42/90 204/42/91 203/42/92 
f 103/48/93 102/49/94 206/54/95 205/55/96 
f 82/43/97 81/43/98 208/43/99 207/43/100 
s 8
f 64/42/82 209/42/82 210/56/101 211/57/101 201/54/82 
f 108/43/83 202/55/83 212/58/102 213/59/102 214/43/83 
f 63/42/83 215/42/37 216/42/84 217/42/84 203/42/84 
f 64/42/82 204/42/37 218/42/37 219/42/37 209/42/82 
f 71/43/82 220/43/84 221/59/101 222/58/101 205/55/82 
f 63/42/83 206/54/83 223/57/102 224/56/102 215/42/37 
f 108/43/83 214/43/83 225/43/84 226/43/84 207/43/84 
f 71/43/82 208/43/37 227/43/37 228/43/37 220/43/84 
s 2
f 201/54/88 211/57/103 90/50/104 89/49/85 
f 211/57/103 210/56/105 91/51/106 90/50/104 
f 210/56/105 209/42/107 92/42/108 91/51/106 
f 202/55/87 88/48/86 87/46/109 212/58/110 
f 212/58/110 87/46/109 86/47/111 213/59/112 
f 213/59/112 86/47/111 85/43/113 214/43/113 
f 203/42/92 217/42/114 97/42/115 96/42/89 
f 217/42/114 216/42/116 98/42/117 97/42/115 
f 216/42/116 215/42/118 99/42/119 98/42/117 
f 204/42/91 95/42/90 94/42/120 218/42/121 
f 218/42/121 94/42/120 93/42/122 219/42/123 
f 219/42/123 93/42/122 92/42/108 209/42/107 
f 205/55/96 222/58/124 76/46/125 103/48/93 
f 222/58/124 221/59/126 77/47/127 76/46/125 
f 221/59/126 220/43/128 78/43/129 77/47/127 
f 206/54/95 102/49/94 101/50/130 223/57/131 
f 223/57/131 101/50/130 100/51/132 224/56/133 
f 224/56/133 100/51/132 99/42/119 215/42/118 
f 207/43/100 226/43/134 83/43/135 82/43/97 
f 226/43/134 225/43/136 84/43/137 83/43/135 
f 225/43/136 214/43/113 85/43/113 84/43/137 
f 208/43/99 81/43/98 80/43/138 227/43/139 
f 227/43/139 80/43/138 79/43/140 228/43/141 
f 228/43/141 79/43/140 78/43/129 220/43/128 
s off
f 120/22/37 229/22/37 230/22/37 109/22/37 
f 104/52/142 231/52/142 229/22/142 120/22/142 
f 104/52/84 107/52/84 232/52/84 231/52/84 
f 109/22/37 230/22/37 232/52/37 107/52/37 
f 233/22/143 234/22/143 235/22/143 236/22/143 
f 237/52/144 238/52/144 234/22/144 233/22/144 
f 239/52/145 240/52/145 238/52/145 237/52/145 
f 236/22/146 235/22/146 240/52/146 239/52/146 
f 229/22/147 241/22/147 242/22/147 230/22/147 
f 231/52/148 243/52/148 241/22/148 229/22/148 
f 232/52/149 244/52/149 243/52/149 231/52/149 
f 230/22/150 242/22/150 244/52/150 232/52/150 
f 245/22/151 246/22/151 247/22/151 248/22/151 
f 249/52/152 250/52/152 246/22/152 245/22/152 
f 251/52/153 252/52/153 250/52/153 249/52/153 
f 248/22/148 247/22/148 252/52/148 251/52/148 
f 241/22/154 233/22/154 236/22/154 242/22/154 
f 243/52/155 237/52/155 233/22/155 241/22/155 
f 244/52/156 239/52/156 237/52/156 243/52/156 
f 242/22/157 236/22/157 239/52/157 244/52/157 
f 246/22/158 235/22/158 234/22/158 247/22/158 
f 250/52/159 240/52/159 235/22/159 246/22/159 
f 252/52/160 238/52/160 240/52/160 250/52/160 
f 247/22/161 234/22/161 238/52/161 252/52/161 
f 60/38/25 253/38/25 254/7/25 61/7/25 
f 57/40/24 255/40/24 253/38/24 60/38/24 
f 56/39/2 256/39/2 255/40/2 57/40/2 
f 64/42/162 257/42/162 256/39/162 56/39/162 
f 61/7/163 254/7/163 258/41/163 62/41/163 
f 108/43/164 259/43/164 260/42/164 64/42/164 
f 108/43/38 68/43/38 261/43/38 259/43/38 
f 67/44/165 262/44/165 261/43/165 68/43/165 
f 105/44/2 263/44/2 262/44/2 67/44/2 
f 104/52/164 264/52/164 263/44/164 105/44/164 
f 120/22/164 265/22/164 264/52/164 104/52/164 
f 115/22/38 266/22/38 265/22/38 120/22/38 
f 114/22/165 267/22/165 266/22/165 115/22/165 
f 170/38/62 268/38/62 269/40/62 167/40/62 
f 171/7/63 270/7/63 268/38/63 170/38/63 
f 172/41/166 271/41/166 270/7/166 171/7/166 
f 168/39/167 272/39/167 273/42/167 173/42/167 
f 167/40/2 269/40/2 272/39/2 168/39/2 
f 196/22/168 274/22/168 275/22/168 193/22/168 
f 196/22/38 187/22/38 276/22/38 274/22/38 
f 186/52/169 277/52/169 276/22/169 187/22/169 
f 189/44/2 175/44/2 278/44/2 279/44/2 
f 178/43/168 280/43/168 278/44/168 175/44/168 
f 184/43/38 281/43/38 280/43/38 178/43/38 
f 173/42/169 282/42/169 281/43/169 184/43/169 
s 2
f 190/44/74 189/44/74 186/52/74 185/52/74 
s off
f 189/44/169 279/44/169 277/52/169 186/52/169 
# 221 polygons - 10 triangles

