# 3ds Max Wavefront OBJ Exporter v0.99 - (c)2007 guruware
# File Created: 19.05.2024 16:48:08

#
# object Plane036
#

v  -1.6889 0.1870 -1.1333
v  -1.6889 0.1870 1.5598
v  1.6889 0.1870 1.5598
v  1.6889 0.1870 -1.1333
v  -1.6889 0.1870 7.7989
v  -1.6889 0.0000 7.7989
v  1.6889 0.0000 7.7989
v  1.6889 0.1870 7.7989
v  8.4443 0.1870 1.5598
v  8.4443 0.0000 1.5598
v  8.4443 0.0000 -1.5598
v  8.4443 0.1870 -1.5598
v  1.6889 0.1870 -7.7989
v  1.6889 0.0000 -7.7989
v  -1.6889 0.0000 -7.7989
v  -1.6889 0.1870 -7.7989
v  -8.4443 0.1870 -1.5598
v  -8.4443 0.0000 -1.5598
v  -8.4443 0.0000 1.5598
v  -8.4443 0.1870 1.5598
v  -1.3771 0.0935 -4.3676
v  -1.3771 0.0935 -1.8715
v  1.6889 0.0935 -1.8715
v  1.6889 0.0935 -4.3676
v  1.6889 0.0935 7.4871
v  1.6889 0.0935 4.9911
v  -1.3771 0.0935 4.9911
v  -1.3771 0.0935 7.4871
v  1.6889 0.1870 4.2529
v  -1.6889 0.1870 4.2529
v  8.4443 0.1870 7.7989
v  8.4443 0.0000 7.7989
v  8.4443 0.0000 4.6793
v  8.4443 0.1870 4.6793
v  8.4443 0.0000 -7.7989
v  8.4443 0.1870 -7.7989
v  8.4443 0.1870 -4.6793
v  8.4443 0.0000 -4.6793
v  -8.4443 0.1870 -7.7989
v  -8.4443 0.0000 -7.7989
v  -8.4443 0.0000 -4.6793
v  -8.4443 0.1870 -4.6793
v  -8.4443 0.0000 7.7989
v  -8.4443 0.1870 7.7989
v  -8.4443 0.1870 4.6793
v  -8.4443 0.0000 4.6793
v  -8.1326 0.0935 -1.2480
v  -8.1326 0.0935 1.5598
v  -5.3783 0.0935 1.5598
v  -5.3783 0.0935 -1.2480
v  -4.6401 0.1870 -1.1333
v  -4.6401 0.1870 1.5598
v  8.1326 0.0935 1.5598
v  8.1326 0.0935 -1.2480
v  5.3783 0.0935 -1.2480
v  5.3783 0.0935 1.5598
v  4.6401 0.1870 1.5598
v  4.6401 0.1870 -1.1333
v  -5.0666 0.0000 7.7989
v  -5.0666 0.1870 7.7989
v  5.0666 0.1870 7.7989
v  5.0666 0.0000 7.7989
v  5.0666 0.0000 -7.7989
v  5.0666 0.1870 -7.7989
v  -5.0666 0.1870 -7.7989
v  -5.0666 0.0000 -7.7989
v  -8.1326 0.0935 -7.4871
v  -8.1326 0.0935 -4.9911
v  -5.0666 0.0935 -4.9911
v  -5.0666 0.0935 -7.4871
v  -2.0006 0.0935 -4.9911
v  -2.0006 0.0935 -7.4871
v  8.1326 0.0935 -4.6793
v  8.1326 0.0935 -7.4871
v  5.3783 0.0935 -7.4871
v  5.3783 0.0935 -4.6793
v  -8.1326 0.0935 -4.3676
v  -8.1326 0.0935 -1.8715
v  -5.0666 0.0935 -1.8715
v  -5.0666 0.0935 -4.3676
v  -2.0006 0.0935 -1.8715
v  -2.0006 0.0935 -4.3676
v  8.1326 0.0935 -1.8715
v  5.3783 0.0935 -1.8715
v  4.7549 0.0935 -1.8715
v  4.7549 0.0935 -4.3676
v  5.0666 0.1870 4.6793
v  4.7549 0.0935 7.4871
v  4.7549 0.0935 4.9911
v  -8.1326 0.0935 4.9911
v  -8.1326 0.0935 7.4871
v  -5.0666 0.0935 7.4871
v  -5.0666 0.0935 4.9911
v  -2.0006 0.0935 7.4871
v  -2.0006 0.0935 4.9911
v  8.1326 0.0935 4.3676
v  5.3783 0.0935 4.3676
v  4.6401 0.1870 4.2529
v  -8.1326 0.0935 4.3676
v  -5.3783 0.0935 4.3676
v  -4.6401 0.1870 4.2529
v  -8.1326 0.1870 -4.9911
v  -8.1326 0.1870 -7.4871
v  -5.0666 0.1870 -4.6793
v  -5.0666 0.1870 -4.9911
v  -1.6889 0.1870 -4.6793
v  -2.0006 0.1870 -4.9911
v  -2.0006 0.1870 -7.4871
v  -5.0666 0.1870 -7.4871
v  1.6889 0.1870 -7.4871
v  4.7549 0.1870 -7.4871
v  -1.3771 0.1870 -7.4871
v  -1.3771 0.1870 -4.9911
v  1.6889 0.1870 -4.6793
v  1.6889 0.1870 -4.9911
v  5.0666 0.1870 -4.6793
v  4.7549 0.1870 -4.9911
v  -8.1326 0.1870 -1.8715
v  -8.1326 0.1870 -4.3676
v  -5.0666 0.1870 -1.5598
v  -5.0666 0.1870 -1.8715
v  -1.6889 0.1870 -1.5598
v  -2.0006 0.1870 -1.8715
v  -2.0006 0.1870 -4.3676
v  -5.0666 0.1870 -4.3676
v  1.6889 0.1870 -4.3676
v  4.7549 0.1870 -4.3676
v  -1.3771 0.1870 -4.3676
v  -1.3771 0.1870 -1.8715
v  1.6889 0.1870 -1.5598
v  1.6889 0.1870 -1.8715
v  5.0666 0.1870 -1.5598
v  4.7549 0.1870 -1.8715
v  -8.1326 0.1870 1.5598
v  -8.1326 0.1870 -1.2480
v  -8.1326 0.1870 4.3676
v  -5.0666 0.1870 4.6793
v  -5.3783 0.1870 4.3676
v  -5.0666 0.1870 1.5598
v  -5.3783 0.1870 1.5598
v  -5.3783 0.1870 -1.2480
v  5.3783 0.1870 -7.4871
v  8.1326 0.1870 -7.4871
v  5.3783 0.1870 -4.6793
v  5.3783 0.1870 -1.8715
v  8.1326 0.1870 -1.8715
v  8.1326 0.1870 -4.6793
v  8.1326 0.1870 1.5598
v  8.1326 0.1870 4.3676
v  8.1326 0.1870 -1.2480
v  5.3783 0.1870 -1.2480
v  5.0666 0.1870 1.5598
v  5.3783 0.1870 1.5598
v  5.3783 0.1870 4.3676
v  -5.0666 0.1870 7.4871
v  -8.1326 0.1870 7.4871
v  -2.0006 0.1870 7.4871
v  -1.6889 0.1870 4.6793
v  -2.0006 0.1870 4.9911
v  -5.0666 0.1870 4.9911
v  -8.1326 0.1870 4.9911
v  1.6889 0.1870 7.4871
v  -1.3771 0.1870 7.4871
v  4.7549 0.1870 7.4871
v  4.7549 0.1870 4.9911
v  1.6889 0.1870 4.6793
v  1.6889 0.1870 4.9911
v  -1.3771 0.1870 4.9911
# 168 vertices

vn 0.0000 1.0000 -0.0000
vn 0.0000 0.0000 1.0000
vn 1.0000 0.0000 -0.0000
vn 0.0000 0.0000 -1.0000
vn -1.0000 0.0000 -0.0000
# 5 vertex normals

vt 0.4000 0.6000 0.0000
vt 0.4000 0.4000 0.0000
vt 0.6000 0.4000 0.0000
vt 0.6000 0.6000 0.0000
vt 0.4000 0.0000 0.0000
vt 0.6000 0.0000 0.0000
vt 1.0000 0.4000 0.0000
vt 1.0000 0.6000 0.0000
vt 0.6000 1.0000 0.0000
vt 0.4000 1.0000 0.0000
vt 0.0000 0.6000 0.0000
vt 0.0000 0.4000 0.0000
vt 0.4000 0.8000 0.0000
vt 0.6000 0.8000 0.0000
vt 0.6000 0.2000 0.0000
vt 0.4000 0.2000 0.0000
vt 1.0000 0.0000 0.0000
vt 1.0000 0.2000 0.0000
vt 1.0000 1.0000 0.0000
vt 1.0000 0.8000 0.0000
vt 0.0000 1.0000 0.0000
vt 0.0000 0.8000 0.0000
vt 0.0000 0.0000 0.0000
vt 0.0000 0.2000 0.0000
vt 0.2000 0.4000 0.0000
vt 0.2000 0.6000 0.0000
vt 0.8000 0.6000 0.0000
vt 0.8000 0.4000 0.0000
vt 0.2000 0.0000 0.0000
vt 0.8000 0.0000 0.0000
vt 0.8000 1.0000 0.0000
vt 0.2000 1.0000 0.0000
vt 0.2000 0.8000 0.0000
vt 0.8000 0.8000 0.0000
vt 0.8000 0.2000 0.0000
vt 0.2000 0.2000 0.0000
# 36 texture coords

o Plane036
g Plane036
s 1
f 1/1/1 2/2/1 3/3/1 4/4/1 
s 2
f 5/5/2 6/5/2 7/6/2 8/6/2 
s 4
f 9/7/3 10/7/3 11/8/3 12/8/3 
s 2
f 13/9/4 14/9/4 15/10/4 16/10/4 
s 4
f 17/11/5 18/11/5 19/12/5 20/12/5 
s 1
f 21/13/1 22/1/1 23/4/1 24/14/1 
f 25/6/1 26/15/1 27/16/1 28/5/1 
f 29/15/1 3/3/1 2/2/1 30/16/1 
s 4
f 31/17/3 32/17/3 33/18/3 34/18/3 
f 34/18/3 33/18/3 10/7/3 9/7/3 
f 35/19/3 36/19/3 37/20/3 38/20/3 
f 38/20/3 37/20/3 12/8/3 11/8/3 
f 39/21/5 40/21/5 41/22/5 42/22/5 
f 42/22/5 41/22/5 18/11/5 17/11/5 
f 43/23/5 44/23/5 45/24/5 46/24/5 
f 46/24/5 45/24/5 20/12/5 19/12/5 
s 1
f 47/11/1 48/12/1 49/25/1 50/26/1 
f 51/26/1 52/25/1 2/2/1 1/1/1 
f 53/7/1 54/8/1 55/27/1 56/28/1 
f 57/28/1 58/27/1 4/4/1 3/3/1 
s 2
f 44/23/2 43/23/2 59/29/2 60/29/2 
f 60/29/2 59/29/2 6/5/2 5/5/2 
f 32/17/2 31/17/2 61/30/2 62/30/2 
f 62/30/2 61/30/2 8/6/2 7/6/2 
f 36/19/4 35/19/4 63/31/4 64/31/4 
f 64/31/4 63/31/4 14/9/4 13/9/4 
f 40/21/4 39/21/4 65/32/4 66/32/4 
f 66/32/4 65/32/4 16/10/4 15/10/4 
s 1
f 67/21/1 68/22/1 69/33/1 70/32/1 
f 70/32/1 69/33/1 71/13/1 72/10/1 
f 73/20/1 74/19/1 75/31/1 76/34/1 
f 77/22/1 78/11/1 79/26/1 80/33/1 
f 80/33/1 79/26/1 81/1/1 82/13/1 
f 83/8/1 73/20/1 76/34/1 84/27/1 
f 85/27/1 86/34/1 24/14/1 23/4/1 
f 31/17/1 34/18/1 87/35/1 61/30/1 
f 88/30/1 89/35/1 26/15/1 25/6/1 
f 90/24/1 91/23/1 92/29/1 93/36/1 
f 93/36/1 92/29/1 94/5/1 95/16/1 
f 96/18/1 53/7/1 56/28/1 97/35/1 
f 98/35/1 57/28/1 3/3/1 29/15/1 
f 48/12/1 99/24/1 100/36/1 49/25/1 
f 52/25/1 101/36/1 30/16/1 2/2/1 
s off
f 42/22/1 102/22/1 103/21/1 39/21/1 
f 104/33/1 105/33/1 102/22/1 42/22/1 
f 104/33/1 106/13/1 107/13/1 105/33/1 
f 16/10/1 108/10/1 107/13/1 106/13/1 
f 65/32/1 109/32/1 108/10/1 16/10/1 
f 65/32/1 39/21/1 103/21/1 109/32/1 
f 13/9/1 110/9/1 111/31/1 64/31/1 
f 13/9/1 16/10/1 112/10/1 110/9/1 
f 106/13/1 113/13/1 112/10/1 16/10/1 
f 114/14/1 115/14/1 113/13/1 106/13/1 
f 114/14/1 116/34/1 117/34/1 115/14/1 
f 64/31/1 111/31/1 117/34/1 116/34/1 
f 17/11/1 118/11/1 119/22/1 42/22/1 
f 120/26/1 121/26/1 118/11/1 17/11/1 
f 120/26/1 122/1/1 123/1/1 121/26/1 
f 106/13/1 124/13/1 123/1/1 122/1/1 
f 104/33/1 125/33/1 124/13/1 106/13/1 
f 104/33/1 42/22/1 119/22/1 125/33/1 
f 114/14/1 126/14/1 127/34/1 116/34/1 
f 114/14/1 106/13/1 128/13/1 126/14/1 
f 122/1/1 129/1/1 128/13/1 106/13/1 
f 130/4/1 131/4/1 129/1/1 122/1/1 
f 130/4/1 132/27/1 133/27/1 131/4/1 
f 116/34/1 127/34/1 133/27/1 132/27/1 
f 20/12/1 134/12/1 135/11/1 17/11/1 
f 20/12/1 45/24/1 136/24/1 134/12/1 
f 137/36/1 138/36/1 136/24/1 45/24/1 
f 139/25/1 140/25/1 138/36/1 137/36/1 
f 139/25/1 120/26/1 141/26/1 140/25/1 
f 17/11/1 135/11/1 141/26/1 120/26/1 
f 64/31/1 142/31/1 143/19/1 36/19/1 
f 116/34/1 144/34/1 142/31/1 64/31/1 
f 116/34/1 132/27/1 145/27/1 144/34/1 
f 12/8/1 146/8/1 145/27/1 132/27/1 
f 37/20/1 147/20/1 146/8/1 12/8/1 
f 37/20/1 36/19/1 143/19/1 147/20/1 
f 9/7/1 148/7/1 149/18/1 34/18/1 
f 9/7/1 12/8/1 150/8/1 148/7/1 
f 132/27/1 151/27/1 150/8/1 12/8/1 
f 152/28/1 153/28/1 151/27/1 132/27/1 
f 152/28/1 87/35/1 154/35/1 153/28/1 
f 34/18/1 149/18/1 154/35/1 87/35/1 
f 60/29/1 155/29/1 156/23/1 44/23/1 
f 60/29/1 5/5/1 157/5/1 155/29/1 
f 158/16/1 159/16/1 157/5/1 5/5/1 
f 137/36/1 160/36/1 159/16/1 158/16/1 
f 137/36/1 45/24/1 161/24/1 160/36/1 
f 44/23/1 156/23/1 161/24/1 45/24/1 
f 8/6/1 162/6/1 163/5/1 5/5/1 
f 8/6/1 61/30/1 164/30/1 162/6/1 
f 87/35/1 165/35/1 164/30/1 61/30/1 
f 166/15/1 167/15/1 165/35/1 87/35/1 
f 166/15/1 158/16/1 168/16/1 167/15/1 
f 5/5/1 163/5/1 168/16/1 158/16/1 
f 130/4/1 4/4/1 58/27/1 132/27/1 
f 122/1/1 1/1/1 4/4/1 130/4/1 
f 122/1/1 120/26/1 51/26/1 1/1/1 
f 139/25/1 52/25/1 51/26/1 120/26/1 
f 139/25/1 137/36/1 101/36/1 52/25/1 
f 158/16/1 30/16/1 101/36/1 137/36/1 
f 166/15/1 29/15/1 30/16/1 158/16/1 
f 166/15/1 87/35/1 98/35/1 29/15/1 
f 152/28/1 57/28/1 98/35/1 87/35/1 
f 152/28/1 132/27/1 58/27/1 57/28/1 
f 126/14/2 24/14/2 86/34/2 127/34/2 
f 128/13/2 21/13/2 24/14/2 126/14/2 
f 129/1/3 22/1/3 21/13/3 128/13/3 
f 131/4/4 23/4/4 22/1/4 129/1/4 
f 133/27/4 85/27/4 23/4/4 131/4/4 
f 127/34/5 86/34/5 85/27/5 133/27/5 
f 162/6/4 25/6/4 28/5/4 163/5/4 
f 164/30/4 88/30/4 25/6/4 162/6/4 
f 165/35/5 89/35/5 88/30/5 164/30/5 
f 167/15/2 26/15/2 89/35/2 165/35/2 
f 168/16/2 27/16/2 26/15/2 167/15/2 
f 163/5/3 28/5/3 27/16/3 168/16/3 
f 134/12/3 48/12/3 47/11/3 135/11/3 
f 136/24/3 99/24/3 48/12/3 134/12/3 
f 138/36/4 100/36/4 99/24/4 136/24/4 
f 140/25/5 49/25/5 100/36/5 138/36/5 
f 141/26/5 50/26/5 49/25/5 140/25/5 
f 135/11/2 47/11/2 50/26/2 141/26/2 
f 148/7/5 53/7/5 96/18/5 149/18/5 
f 150/8/5 54/8/5 53/7/5 148/7/5 
f 151/27/2 55/27/2 54/8/2 150/8/2 
f 153/28/3 56/28/3 55/27/3 151/27/3 
f 154/35/3 97/35/3 56/28/3 153/28/3 
f 149/18/4 96/18/4 97/35/4 154/35/4 
f 102/22/3 68/22/3 67/21/3 103/21/3 
f 105/33/4 69/33/4 68/22/4 102/22/4 
f 107/13/4 71/13/4 69/33/4 105/33/4 
f 108/10/5 72/10/5 71/13/5 107/13/5 
f 109/32/2 70/32/2 72/10/2 108/10/2 
f 103/21/2 67/21/2 70/32/2 109/32/2 
f 142/31/2 75/31/2 74/19/2 143/19/2 
f 144/34/3 76/34/3 75/31/3 142/31/3 
f 145/27/3 84/27/3 76/34/3 144/34/3 
f 146/8/4 83/8/4 84/27/4 145/27/4 
f 147/20/5 73/20/5 83/8/5 146/8/5 
f 143/19/5 74/19/5 73/20/5 147/20/5 
f 118/11/3 78/11/3 77/22/3 119/22/3 
f 121/26/4 79/26/4 78/11/4 118/11/4 
f 123/1/4 81/1/4 79/26/4 121/26/4 
f 124/13/5 82/13/5 81/1/5 123/1/5 
f 125/33/2 80/33/2 82/13/2 124/13/2 
f 119/22/2 77/22/2 80/33/2 125/33/2 
f 155/29/4 92/29/4 91/23/4 156/23/4 
f 157/5/4 94/5/4 92/29/4 155/29/4 
f 159/16/5 95/16/5 94/5/5 157/5/5 
f 160/36/2 93/36/2 95/16/2 159/16/2 
f 161/24/2 90/24/2 93/36/2 160/36/2 
f 156/23/3 91/23/3 90/24/3 161/24/3 
f 117/34/1 111/31/1 110/9/1 115/14/1 
f 112/10/1 113/13/1 115/14/1 110/9/1 
# 157 polygons

