# 3ds Max Wavefront OBJ Exporter v0.99 - (c)2007 guruware
# File Created: 19.05.2024 16:23:01

#
# object Sphere006
#

v  0.0000 1.2581 -0.0000
v  -0.0000 1.1966 -0.3888
v  -0.1201 1.1966 -0.3698
v  -0.2285 1.1966 -0.3145
v  -0.3145 1.1966 -0.2285
v  -0.3698 1.1966 -0.1201
v  -0.3888 1.1966 0.0000
v  -0.3698 1.1966 0.1201
v  -0.3145 1.1966 0.2285
v  -0.2285 1.1966 0.3145
v  -0.1201 1.1966 0.3698
v  0.0000 1.1966 0.3888
v  0.1201 1.1966 0.3698
v  0.2285 1.1966 0.3145
v  0.3145 1.1966 0.2285
v  0.3698 1.1966 0.1201
v  0.3888 1.1966 -0.0000
v  0.3698 1.1966 -0.1201
v  0.3145 1.1966 -0.2285
v  0.2285 1.1966 -0.3145
v  0.1201 1.1966 -0.3698
v  -0.0000 1.0179 -0.7395
v  -0.2285 1.0179 -0.7033
v  -0.4347 1.0179 -0.5983
v  -0.5983 1.0179 -0.4347
v  -0.7033 1.0179 -0.2285
v  -0.7395 1.0179 0.0000
v  -0.7033 1.0179 0.2285
v  -0.5983 1.0179 0.4347
v  -0.4347 1.0179 0.5983
v  -0.2285 1.0179 0.7033
v  0.0000 1.0179 0.7395
v  0.2285 1.0179 0.7033
v  0.4347 1.0179 0.5983
v  0.5983 1.0179 0.4347
v  0.7033 1.0179 0.2285
v  0.7395 1.0179 -0.0000
v  0.7033 1.0179 -0.2285
v  0.5983 1.0179 -0.4347
v  0.4347 1.0179 -0.5983
v  0.2285 1.0179 -0.7033
v  -0.0000 0.7395 -1.0179
v  -0.3145 0.7395 -0.9680
v  -0.5983 0.7395 -0.8235
v  -0.8235 0.7395 -0.5983
v  -0.9680 0.7395 -0.3145
v  -1.0179 0.7395 0.0000
v  -0.9680 0.7395 0.3145
v  -0.8235 0.7395 0.5983
v  -0.5983 0.7395 0.8235
v  -0.3145 0.7395 0.9680
v  0.0000 0.7395 1.0179
v  0.3145 0.7395 0.9680
v  0.5983 0.7395 0.8235
v  0.8235 0.7395 0.5983
v  0.9680 0.7395 0.3145
v  1.0179 0.7395 -0.0000
v  0.9680 0.7395 -0.3145
v  0.8235 0.7395 -0.5983
v  0.5983 0.7395 -0.8235
v  0.3145 0.7395 -0.9680
v  -0.0000 0.3888 -1.1966
v  -0.3698 0.3888 -1.1380
v  -0.7033 0.3888 -0.9680
v  -0.9680 0.3888 -0.7033
v  -1.1380 0.3888 -0.3698
v  -1.1966 0.3888 0.0000
v  -1.1380 0.3888 0.3698
v  -0.9680 0.3888 0.7033
v  -0.7033 0.3888 0.9680
v  -0.3698 0.3888 1.1380
v  0.0000 0.3888 1.1966
v  0.3698 0.3888 1.1380
v  0.7033 0.3888 0.9680
v  0.9680 0.3888 0.7033
v  1.1380 0.3888 0.3698
v  1.1966 0.3888 -0.0000
v  1.1380 0.3888 -0.3698
v  0.9680 0.3888 -0.7033
v  0.7033 0.3888 -0.9680
v  0.3698 0.3888 -1.1380
v  -0.0000 -0.0000 -1.2581
v  -0.3888 -0.0000 -1.1966
v  -0.7395 -0.0000 -1.0179
v  -1.0179 -0.0000 -0.7395
v  -1.1966 -0.0000 -0.3888
v  -1.2581 -0.0000 0.0000
v  -1.1966 -0.0000 0.3888
v  -1.0179 -0.0000 0.7395
v  -0.7395 -0.0000 1.0179
v  -0.3888 -0.0000 1.1966
v  0.0000 -0.0000 1.2581
v  0.3888 -0.0000 1.1966
v  0.7395 -0.0000 1.0179
v  1.0179 -0.0000 0.7395
v  1.1966 -0.0000 0.3888
v  1.2581 -0.0000 -0.0000
v  1.1966 -0.0000 -0.3888
v  1.0179 -0.0000 -0.7395
v  0.7395 -0.0000 -1.0179
v  0.3888 -0.0000 -1.1966
v  -0.0000 -0.3888 -1.1966
v  -0.3698 -0.3888 -1.1380
v  -0.7033 -0.3888 -0.9680
v  -0.9680 -0.3888 -0.7033
v  -1.1380 -0.3888 -0.3698
v  -1.1966 -0.3888 0.0000
v  -1.1380 -0.3888 0.3698
v  -0.9680 -0.3888 0.7033
v  -0.7033 -0.3888 0.9680
v  -0.3698 -0.3888 1.1380
v  0.0000 -0.3888 1.1966
v  0.3698 -0.3888 1.1380
v  0.7033 -0.3888 0.9680
v  0.9680 -0.3888 0.7033
v  1.1380 -0.3888 0.3698
v  1.1966 -0.3888 -0.0000
v  1.1380 -0.3888 -0.3698
v  0.9680 -0.3888 -0.7033
v  0.7033 -0.3888 -0.9680
v  0.3698 -0.3888 -1.1380
v  -0.0000 -0.7395 -1.0179
v  -0.3145 -0.7395 -0.9680
v  -0.5983 -0.7395 -0.8235
v  -0.8235 -0.7395 -0.5983
v  -0.9680 -0.7395 -0.3145
v  -1.0179 -0.7395 0.0000
v  -0.9680 -0.7395 0.3145
v  -0.8235 -0.7395 0.5983
v  -0.5983 -0.7395 0.8235
v  -0.3145 -0.7395 0.9680
v  0.0000 -0.7395 1.0179
v  0.3145 -0.7395 0.9680
v  0.5983 -0.7395 0.8235
v  0.8235 -0.7395 0.5983
v  0.9680 -0.7395 0.3145
v  1.0179 -0.7395 -0.0000
v  0.9680 -0.7395 -0.3145
v  0.8235 -0.7395 -0.5983
v  0.5983 -0.7395 -0.8235
v  0.3145 -0.7395 -0.9680
v  -0.0000 -1.0179 -0.7395
v  -0.2285 -1.0179 -0.7033
v  -0.4347 -1.0179 -0.5983
v  -0.5983 -1.0179 -0.4347
v  -0.7033 -1.0179 -0.2285
v  -0.7395 -1.0179 0.0000
v  -0.7033 -1.0179 0.2285
v  -0.5983 -1.0179 0.4347
v  -0.4347 -1.0179 0.5983
v  -0.2285 -1.0179 0.7033
v  0.0000 -1.0179 0.7395
v  0.2285 -1.0179 0.7033
v  0.4347 -1.0179 0.5983
v  0.5983 -1.0179 0.4347
v  0.7033 -1.0179 0.2285
v  0.7395 -1.0179 -0.0000
v  0.7033 -1.0179 -0.2285
v  0.5983 -1.0179 -0.4347
v  0.4347 -1.0179 -0.5983
v  0.2285 -1.0179 -0.7033
v  -0.0000 -1.1966 -0.3888
v  -0.1201 -1.1966 -0.3698
v  -0.2285 -1.1966 -0.3145
v  -0.3145 -1.1966 -0.2285
v  -0.3698 -1.1966 -0.1201
v  -0.3888 -1.1966 0.0000
v  -0.3698 -1.1966 0.1201
v  -0.3145 -1.1966 0.2285
v  -0.2285 -1.1966 0.3145
v  -0.1201 -1.1966 0.3698
v  0.0000 -1.1966 0.3888
v  0.1201 -1.1966 0.3698
v  0.2285 -1.1966 0.3145
v  0.3145 -1.1966 0.2285
v  0.3698 -1.1966 0.1201
v  0.3888 -1.1966 -0.0000
v  0.3698 -1.1966 -0.1201
v  0.3145 -1.1966 -0.2285
v  0.2285 -1.1966 -0.3145
v  0.1201 -1.1966 -0.3698
v  0.0000 -1.2581 -0.0000
# 182 vertices

vn -0.0000 1.0000 0.0000
vn -0.0000 0.9464 -0.3230
vn -0.0998 0.9464 -0.3072
vn -0.1899 0.9464 -0.2613
vn -0.2613 0.9464 -0.1899
vn -0.3072 0.9464 -0.0998
vn -0.3230 0.9464 0.0000
vn -0.3072 0.9464 0.0998
vn -0.2613 0.9464 0.1899
vn -0.1899 0.9464 0.2613
vn -0.0998 0.9464 0.3072
vn 0.0000 0.9464 0.3230
vn 0.0998 0.9464 0.3072
vn 0.1899 0.9464 0.2613
vn 0.2613 0.9464 0.1899
vn 0.3072 0.9464 0.0998
vn 0.3230 0.9464 -0.0000
vn 0.3072 0.9464 -0.0998
vn 0.2613 0.9464 -0.1899
vn 0.1899 0.9464 -0.2613
vn 0.0998 0.9464 -0.3072
vn -0.0000 0.8016 -0.5978
vn -0.1847 0.8016 -0.5686
vn -0.3514 0.8016 -0.4837
vn -0.4837 0.8016 -0.3514
vn -0.5686 0.8016 -0.1847
vn -0.5978 0.8016 0.0000
vn -0.5686 0.8016 0.1847
vn -0.4837 0.8016 0.3514
vn -0.3514 0.8016 0.4837
vn -0.1847 0.8016 0.5686
vn 0.0000 0.8016 0.5978
vn 0.1847 0.8016 0.5686
vn 0.3514 0.8016 0.4837
vn 0.4837 0.8016 0.3514
vn 0.5686 0.8016 0.1847
vn 0.5978 0.8016 -0.0000
vn 0.5686 0.8016 -0.1847
vn 0.4837 0.8016 -0.3514
vn 0.3514 0.8016 -0.4837
vn 0.1847 0.8016 -0.5686
vn -0.0000 0.5805 -0.8143
vn -0.2516 0.5805 -0.7744
vn -0.4786 0.5805 -0.6588
vn -0.6588 0.5805 -0.4786
vn -0.7744 0.5805 -0.2516
vn -0.8143 0.5805 0.0000
vn -0.7744 0.5805 0.2516
vn -0.6588 0.5805 0.4786
vn -0.4786 0.5805 0.6588
vn -0.2516 0.5805 0.7744
vn 0.0000 0.5805 0.8143
vn 0.2516 0.5805 0.7744
vn 0.4786 0.5805 0.6588
vn 0.6588 0.5805 0.4786
vn 0.7744 0.5805 0.2516
vn 0.8143 0.5805 -0.0000
vn 0.7744 0.5805 -0.2516
vn 0.6588 0.5805 -0.4786
vn 0.4786 0.5805 -0.6588
vn 0.2516 0.5805 -0.7744
vn -0.0000 0.3045 -0.9525
vn -0.2943 0.3045 -0.9059
vn -0.5599 0.3045 -0.7706
vn -0.7706 0.3045 -0.5599
vn -0.9059 0.3045 -0.2943
vn -0.9525 0.3045 0.0000
vn -0.9059 0.3045 0.2943
vn -0.7706 0.3045 0.5599
vn -0.5599 0.3045 0.7706
vn -0.2943 0.3045 0.9059
vn 0.0000 0.3045 0.9525
vn 0.2943 0.3045 0.9059
vn 0.5599 0.3045 0.7706
vn 0.7706 0.3045 0.5599
vn 0.9059 0.3045 0.2943
vn 0.9525 0.3045 -0.0000
vn 0.9059 0.3045 -0.2943
vn 0.7706 0.3045 -0.5599
vn 0.5599 0.3045 -0.7706
vn 0.2943 0.3045 -0.9059
vn -0.0000 -0.0000 -1.0000
vn -0.3090 0.0000 -0.9511
vn -0.5878 0.0000 -0.8090
vn -0.8090 -0.0000 -0.5878
vn -0.9511 0.0000 -0.3090
vn -1.0000 -0.0000 0.0000
vn -0.9511 -0.0000 0.3090
vn -0.8090 -0.0000 0.5878
vn -0.5878 0.0000 0.8090
vn -0.3090 0.0000 0.9511
vn 0.0000 -0.0000 1.0000
vn 0.3090 -0.0000 0.9511
vn 0.5878 -0.0000 0.8090
vn 0.8090 -0.0000 0.5878
vn 0.9511 -0.0000 0.3090
vn 1.0000 -0.0000 -0.0000
vn 0.9511 -0.0000 -0.3090
vn 0.8090 0.0000 -0.5878
vn 0.5878 -0.0000 -0.8090
vn 0.3090 0.0000 -0.9511
vn -0.0000 -0.3045 -0.9525
vn -0.2943 -0.3045 -0.9059
vn -0.5599 -0.3045 -0.7706
vn -0.7706 -0.3045 -0.5599
vn -0.9059 -0.3045 -0.2943
vn -0.9525 -0.3045 0.0000
vn -0.9059 -0.3045 0.2943
vn -0.7706 -0.3045 0.5599
vn -0.5599 -0.3045 0.7706
vn -0.2943 -0.3045 0.9059
vn 0.0000 -0.3045 0.9525
vn 0.2943 -0.3045 0.9059
vn 0.5599 -0.3045 0.7706
vn 0.7706 -0.3045 0.5599
vn 0.9059 -0.3045 0.2943
vn 0.9525 -0.3045 -0.0000
vn 0.9059 -0.3045 -0.2943
vn 0.7706 -0.3045 -0.5599
vn 0.5599 -0.3045 -0.7706
vn 0.2943 -0.3045 -0.9059
vn -0.0000 -0.5805 -0.8143
vn -0.2516 -0.5805 -0.7744
vn -0.4786 -0.5805 -0.6588
vn -0.6588 -0.5805 -0.4786
vn -0.7744 -0.5805 -0.2516
vn -0.8143 -0.5805 0.0000
vn -0.7744 -0.5805 0.2516
vn -0.6588 -0.5805 0.4786
vn -0.4786 -0.5805 0.6588
vn -0.2516 -0.5805 0.7744
vn 0.0000 -0.5805 0.8143
vn 0.2516 -0.5805 0.7744
vn 0.4786 -0.5805 0.6588
vn 0.6588 -0.5805 0.4786
vn 0.7744 -0.5805 0.2516
vn 0.8143 -0.5805 -0.0000
vn 0.7744 -0.5805 -0.2516
vn 0.6588 -0.5805 -0.4786
vn 0.4786 -0.5805 -0.6588
vn 0.2516 -0.5805 -0.7744
vn -0.0000 -0.8016 -0.5978
vn -0.1847 -0.8016 -0.5686
vn -0.3514 -0.8016 -0.4837
vn -0.4837 -0.8016 -0.3514
vn -0.5686 -0.8016 -0.1847
vn -0.5978 -0.8016 0.0000
vn -0.5686 -0.8016 0.1847
vn -0.4837 -0.8016 0.3514
vn -0.3514 -0.8016 0.4837
vn -0.1847 -0.8016 0.5686
vn 0.0000 -0.8016 0.5978
vn 0.1847 -0.8016 0.5686
vn 0.3514 -0.8016 0.4837
vn 0.4837 -0.8016 0.3514
vn 0.5686 -0.8016 0.1847
vn 0.5978 -0.8016 -0.0000
vn 0.5686 -0.8016 -0.1847
vn 0.4837 -0.8016 -0.3514
vn 0.3514 -0.8016 -0.4837
vn 0.1847 -0.8016 -0.5686
vn -0.0000 -0.9464 -0.3230
vn -0.0998 -0.9464 -0.3072
vn -0.1899 -0.9464 -0.2613
vn -0.2613 -0.9464 -0.1899
vn -0.3072 -0.9464 -0.0998
vn -0.3230 -0.9464 0.0000
vn -0.3072 -0.9464 0.0998
vn -0.2613 -0.9464 0.1899
vn -0.1899 -0.9464 0.2613
vn -0.0998 -0.9464 0.3072
vn 0.0000 -0.9464 0.3230
vn 0.0998 -0.9464 0.3072
vn 0.1899 -0.9464 0.2613
vn 0.2613 -0.9464 0.1899
vn 0.3072 -0.9464 0.0998
vn 0.3230 -0.9464 -0.0000
vn 0.3072 -0.9464 -0.0998
vn 0.2613 -0.9464 -0.1899
vn 0.1899 -0.9464 -0.2613
vn 0.0998 -0.9464 -0.3072
vn -0.0000 -1.0000 0.0000
# 182 vertex normals

vt 0.2424 0.8421 0.0000
vt 0.1952 0.8066 0.0000
vt 0.2088 0.7935 0.0000
vt 0.2407 0.8435 0.0000
vt 0.2286 0.7855 0.0000
vt 0.2521 0.8402 0.0000
vt 0.2530 0.7807 0.0000
vt 0.2726 0.8373 0.0000
vt 0.2812 0.7780 0.0000
vt 0.2994 0.8355 0.0000
vt 0.3128 0.7767 0.0000
vt 0.3308 0.8347 0.0000
vt 0.3472 0.7762 0.0000
vt 0.3653 0.8345 0.0000
vt 0.3835 0.7762 0.0000
vt 0.4021 0.8346 0.0000
vt 0.4213 0.7764 0.0000
vt 0.4404 0.8348 0.0000
vt 0.4600 0.7766 0.0000
vt 0.4794 0.8349 0.0000
vt 0.4991 0.7767 0.0000
vt 0.5187 0.8349 0.0000
vt 0.5381 0.7767 0.0000
vt 0.5576 0.8348 0.0000
vt 0.5766 0.7765 0.0000
vt 0.5956 0.8346 0.0000
vt 0.6139 0.7762 0.0000
vt 0.6319 0.8344 0.0000
vt 0.6496 0.7761 0.0000
vt 0.6659 0.8345 0.0000
vt 0.6831 0.7764 0.0000
vt 0.6965 0.8351 0.0000
vt 0.7137 0.7774 0.0000
vt 0.7224 0.8366 0.0000
vt 0.7411 0.7797 0.0000
vt 0.7418 0.8392 0.0000
vt 0.7648 0.7844 0.0000
vt 0.7523 0.8422 0.0000
vt 0.7844 0.7925 0.0000
vt 0.7509 0.8410 0.0000
vt 0.7980 0.8055 0.0000
vt 0.1247 0.7689 0.0000
vt 0.1508 0.7459 0.0000
vt 0.1829 0.7312 0.0000
vt 0.2184 0.7229 0.0000
vt 0.2558 0.7190 0.0000
vt 0.2944 0.7176 0.0000
vt 0.3339 0.7175 0.0000
vt 0.3741 0.7178 0.0000
vt 0.4148 0.7183 0.0000
vt 0.4560 0.7186 0.0000
vt 0.4972 0.7187 0.0000
vt 0.5385 0.7186 0.0000
vt 0.5796 0.7182 0.0000
vt 0.6202 0.7178 0.0000
vt 0.6603 0.7174 0.0000
vt 0.6996 0.7175 0.0000
vt 0.7379 0.7190 0.0000
vt 0.7751 0.7230 0.0000
vt 0.8101 0.7314 0.0000
vt 0.8416 0.7461 0.0000
vt 0.8666 0.7690 0.0000
vt 0.0642 0.7078 0.0000
vt 0.1059 0.6864 0.0000
vt 0.1495 0.6731 0.0000
vt 0.1937 0.6655 0.0000
vt 0.2378 0.6617 0.0000
vt 0.2815 0.6604 0.0000
vt 0.3249 0.6602 0.0000
vt 0.3679 0.6606 0.0000
vt 0.4108 0.6611 0.0000
vt 0.4537 0.6614 0.0000
vt 0.4965 0.6616 0.0000
vt 0.5393 0.6615 0.0000
vt 0.5822 0.6612 0.0000
vt 0.6252 0.6607 0.0000
vt 0.6683 0.6604 0.0000
vt 0.7117 0.6606 0.0000
vt 0.7555 0.6620 0.0000
vt 0.7995 0.6659 0.0000
vt 0.8434 0.6738 0.0000
vt 0.8862 0.6880 0.0000
vt 0.9263 0.7109 0.0000
vt 0.0255 0.6306 0.0000
vt 0.0786 0.6187 0.0000
vt 0.1298 0.6114 0.0000
vt 0.1793 0.6072 0.0000
vt 0.2274 0.6050 0.0000
vt 0.2741 0.6042 0.0000
vt 0.3197 0.6041 0.0000
vt 0.3645 0.6043 0.0000
vt 0.4087 0.6046 0.0000
vt 0.4526 0.6049 0.0000
vt 0.4963 0.6050 0.0000
vt 0.5401 0.6050 0.0000
vt 0.5840 0.6049 0.0000
vt 0.6283 0.6047 0.0000
vt 0.6732 0.6045 0.0000
vt 0.7189 0.6046 0.0000
vt 0.7657 0.6054 0.0000
vt 0.8138 0.6077 0.0000
vt 0.8632 0.6125 0.0000
vt 0.9139 0.6213 0.0000
vt 0.9658 0.6360 0.0000
vt 0.0129 0.5457 0.0000
vt 0.0697 0.5473 0.0000
vt 0.1233 0.5481 0.0000
vt 0.1746 0.5485 0.0000
vt 0.2240 0.5485 0.0000
vt 0.2717 0.5485 0.0000
vt 0.3181 0.5485 0.0000
vt 0.3635 0.5485 0.0000
vt 0.4082 0.5486 0.0000
vt 0.4525 0.5487 0.0000
vt 0.4965 0.5488 0.0000
vt 0.5406 0.5488 0.0000
vt 0.5848 0.5489 0.0000
vt 0.6295 0.5490 0.0000
vt 0.6749 0.5490 0.0000
vt 0.7213 0.5490 0.0000
vt 0.7691 0.5490 0.0000
vt 0.8184 0.5491 0.0000
vt 0.8697 0.5494 0.0000
vt 0.9234 0.5502 0.0000
vt 0.9802 0.5518 0.0000
vt 0.0272 0.4616 0.0000
vt 0.0792 0.4762 0.0000
vt 0.1299 0.4850 0.0000
vt 0.1792 0.4898 0.0000
vt 0.2273 0.4921 0.0000
vt 0.2741 0.4929 0.0000
vt 0.3198 0.4930 0.0000
vt 0.3647 0.4929 0.0000
vt 0.4090 0.4926 0.0000
vt 0.4529 0.4925 0.0000
vt 0.4967 0.4925 0.0000
vt 0.5404 0.4927 0.0000
vt 0.5843 0.4929 0.0000
vt 0.6285 0.4932 0.0000
vt 0.6733 0.4934 0.0000
vt 0.7189 0.4933 0.0000
vt 0.7656 0.4925 0.0000
vt 0.8137 0.4903 0.0000
vt 0.8633 0.4861 0.0000
vt 0.9144 0.4788 0.0000
vt 0.9675 0.4669 0.0000
vt 0.0667 0.3866 0.0000
vt 0.1068 0.4096 0.0000
vt 0.1496 0.4237 0.0000
vt 0.1935 0.4317 0.0000
vt 0.2375 0.4355 0.0000
vt 0.2813 0.4370 0.0000
vt 0.3247 0.4371 0.0000
vt 0.3679 0.4368 0.0000
vt 0.4109 0.4363 0.0000
vt 0.4537 0.4360 0.0000
vt 0.4966 0.4359 0.0000
vt 0.5394 0.4361 0.0000
vt 0.5822 0.4365 0.0000
vt 0.6251 0.4369 0.0000
vt 0.6682 0.4373 0.0000
vt 0.7115 0.4372 0.0000
vt 0.7552 0.4358 0.0000
vt 0.7993 0.4320 0.0000
vt 0.8435 0.4245 0.0000
vt 0.8871 0.4111 0.0000
vt 0.9288 0.3897 0.0000
vt 0.1265 0.3285 0.0000
vt 0.1515 0.3514 0.0000
vt 0.1829 0.3661 0.0000
vt 0.2180 0.3745 0.0000
vt 0.2551 0.3785 0.0000
vt 0.2935 0.3800 0.0000
vt 0.3328 0.3802 0.0000
vt 0.3728 0.3798 0.0000
vt 0.4135 0.3793 0.0000
vt 0.4545 0.3789 0.0000
vt 0.4958 0.3788 0.0000
vt 0.5371 0.3789 0.0000
vt 0.5782 0.3793 0.0000
vt 0.6190 0.3797 0.0000
vt 0.6592 0.3801 0.0000
vt 0.6987 0.3799 0.0000
vt 0.7372 0.3785 0.0000
vt 0.7746 0.3746 0.0000
vt 0.8102 0.3663 0.0000
vt 0.8423 0.3516 0.0000
vt 0.8684 0.3286 0.0000
vt 0.1951 0.2920 0.0000
vt 0.2086 0.3050 0.0000
vt 0.2282 0.3132 0.0000
vt 0.2520 0.3178 0.0000
vt 0.2793 0.3201 0.0000
vt 0.3099 0.3211 0.0000
vt 0.3434 0.3214 0.0000
vt 0.3791 0.3213 0.0000
vt 0.4165 0.3210 0.0000
vt 0.4549 0.3209 0.0000
vt 0.4939 0.3208 0.0000
vt 0.5330 0.3209 0.0000
vt 0.5717 0.3211 0.0000
vt 0.6095 0.3213 0.0000
vt 0.6459 0.3213 0.0000
vt 0.6802 0.3208 0.0000
vt 0.7118 0.3195 0.0000
vt 0.7400 0.3169 0.0000
vt 0.7644 0.3121 0.0000
vt 0.7843 0.3040 0.0000
vt 0.7979 0.2909 0.0000
vt 0.2422 0.2565 0.0000
vt 0.2408 0.2553 0.0000
vt 0.2513 0.2583 0.0000
vt 0.2706 0.2609 0.0000
vt 0.2965 0.2624 0.0000
vt 0.3271 0.2630 0.0000
vt 0.3611 0.2631 0.0000
vt 0.3974 0.2629 0.0000
vt 0.4354 0.2627 0.0000
vt 0.4743 0.2626 0.0000
vt 0.5136 0.2626 0.0000
vt 0.5526 0.2627 0.0000
vt 0.5909 0.2629 0.0000
vt 0.6277 0.2630 0.0000
vt 0.6623 0.2628 0.0000
vt 0.6936 0.2620 0.0000
vt 0.7204 0.2602 0.0000
vt 0.7409 0.2573 0.0000
vt 0.7524 0.2541 0.0000
vt 0.7507 0.2555 0.0000
# 229 texture coords

o Sphere006
g Sphere006
s 1
f 1/1/1 2/2/2 3/3/3 
f 1/4/1 3/3/3 4/5/4 
f 1/6/1 4/5/4 5/7/5 
f 1/8/1 5/7/5 6/9/6 
f 1/10/1 6/9/6 7/11/7 
f 1/12/1 7/11/7 8/13/8 
f 1/14/1 8/13/8 9/15/9 
f 1/16/1 9/15/9 10/17/10 
f 1/18/1 10/17/10 11/19/11 
f 1/20/1 11/19/11 12/21/12 
f 1/22/1 12/21/12 13/23/13 
f 1/24/1 13/23/13 14/25/14 
f 1/26/1 14/25/14 15/27/15 
f 1/28/1 15/27/15 16/29/16 
f 1/30/1 16/29/16 17/31/17 
f 1/32/1 17/31/17 18/33/18 
f 1/34/1 18/33/18 19/35/19 
f 1/36/1 19/35/19 20/37/20 
f 1/38/1 20/37/20 21/39/21 
f 1/40/1 21/39/21 2/41/2 
f 2/2/2 22/42/22 23/43/23 3/3/3 
f 3/3/3 23/43/23 24/44/24 4/5/4 
f 4/5/4 24/44/24 25/45/25 5/7/5 
f 5/7/5 25/45/25 26/46/26 6/9/6 
f 6/9/6 26/46/26 27/47/27 7/11/7 
f 7/11/7 27/47/27 28/48/28 8/13/8 
f 8/13/8 28/48/28 29/49/29 9/15/9 
f 9/15/9 29/49/29 30/50/30 10/17/10 
f 10/17/10 30/50/30 31/51/31 11/19/11 
f 11/19/11 31/51/31 32/52/32 12/21/12 
f 12/21/12 32/52/32 33/53/33 13/23/13 
f 13/23/13 33/53/33 34/54/34 14/25/14 
f 14/25/14 34/54/34 35/55/35 15/27/15 
f 15/27/15 35/55/35 36/56/36 16/29/16 
f 16/29/16 36/56/36 37/57/37 17/31/17 
f 17/31/17 37/57/37 38/58/38 18/33/18 
f 18/33/18 38/58/38 39/59/39 19/35/19 
f 19/35/19 39/59/39 40/60/40 20/37/20 
f 20/37/20 40/60/40 41/61/41 21/39/21 
f 21/39/21 41/61/41 22/62/22 2/41/2 
f 22/42/22 42/63/42 43/64/43 23/43/23 
f 23/43/23 43/64/43 44/65/44 24/44/24 
f 24/44/24 44/65/44 45/66/45 25/45/25 
f 25/45/25 45/66/45 46/67/46 26/46/26 
f 26/46/26 46/67/46 47/68/47 27/47/27 
f 27/47/27 47/68/47 48/69/48 28/48/28 
f 28/48/28 48/69/48 49/70/49 29/49/29 
f 29/49/29 49/70/49 50/71/50 30/50/30 
f 30/50/30 50/71/50 51/72/51 31/51/31 
f 31/51/31 51/72/51 52/73/52 32/52/32 
f 32/52/32 52/73/52 53/74/53 33/53/33 
f 33/53/33 53/74/53 54/75/54 34/54/34 
f 34/54/34 54/75/54 55/76/55 35/55/35 
f 35/55/35 55/76/55 56/77/56 36/56/36 
f 36/56/36 56/77/56 57/78/57 37/57/37 
f 37/57/37 57/78/57 58/79/58 38/58/38 
f 38/58/38 58/79/58 59/80/59 39/59/39 
f 39/59/39 59/80/59 60/81/60 40/60/40 
f 40/60/40 60/81/60 61/82/61 41/61/41 
f 41/61/41 61/82/61 42/83/42 22/62/22 
f 42/63/42 62/84/62 63/85/63 43/64/43 
f 43/64/43 63/85/63 64/86/64 44/65/44 
f 44/65/44 64/86/64 65/87/65 45/66/45 
f 45/66/45 65/87/65 66/88/66 46/67/46 
f 46/67/46 66/88/66 67/89/67 47/68/47 
f 47/68/47 67/89/67 68/90/68 48/69/48 
f 48/69/48 68/90/68 69/91/69 49/70/49 
f 49/70/49 69/91/69 70/92/70 50/71/50 
f 50/71/50 70/92/70 71/93/71 51/72/51 
f 51/72/51 71/93/71 72/94/72 52/73/52 
f 52/73/52 72/94/72 73/95/73 53/74/53 
f 53/74/53 73/95/73 74/96/74 54/75/54 
f 54/75/54 74/96/74 75/97/75 55/76/55 
f 55/76/55 75/97/75 76/98/76 56/77/56 
f 56/77/56 76/98/76 77/99/77 57/78/57 
f 57/78/57 77/99/77 78/100/78 58/79/58 
f 58/79/58 78/100/78 79/101/79 59/80/59 
f 59/80/59 79/101/79 80/102/80 60/81/60 
f 60/81/60 80/102/80 81/103/81 61/82/61 
f 61/82/61 81/103/81 62/104/62 42/83/42 
f 62/84/62 82/105/82 83/106/83 63/85/63 
f 63/85/63 83/106/83 84/107/84 64/86/64 
f 64/86/64 84/107/84 85/108/85 65/87/65 
f 65/87/65 85/108/85 86/109/86 66/88/66 
f 66/88/66 86/109/86 87/110/87 67/89/67 
f 67/89/67 87/110/87 88/111/88 68/90/68 
f 68/90/68 88/111/88 89/112/89 69/91/69 
f 69/91/69 89/112/89 90/113/90 70/92/70 
f 70/92/70 90/113/90 91/114/91 71/93/71 
f 71/93/71 91/114/91 92/115/92 72/94/72 
f 72/94/72 92/115/92 93/116/93 73/95/73 
f 73/95/73 93/116/93 94/117/94 74/96/74 
f 74/96/74 94/117/94 95/118/95 75/97/75 
f 75/97/75 95/118/95 96/119/96 76/98/76 
f 76/98/76 96/119/96 97/120/97 77/99/77 
f 77/99/77 97/120/97 98/121/98 78/100/78 
f 78/100/78 98/121/98 99/122/99 79/101/79 
f 79/101/79 99/122/99 100/123/100 80/102/80 
f 80/102/80 100/123/100 101/124/101 81/103/81 
f 81/103/81 101/124/101 82/125/82 62/104/62 
f 82/105/82 102/126/102 103/127/103 83/106/83 
f 83/106/83 103/127/103 104/128/104 84/107/84 
f 84/107/84 104/128/104 105/129/105 85/108/85 
f 85/108/85 105/129/105 106/130/106 86/109/86 
f 86/109/86 106/130/106 107/131/107 87/110/87 
f 87/110/87 107/131/107 108/132/108 88/111/88 
f 88/111/88 108/132/108 109/133/109 89/112/89 
f 89/112/89 109/133/109 110/134/110 90/113/90 
f 90/113/90 110/134/110 111/135/111 91/114/91 
f 91/114/91 111/135/111 112/136/112 92/115/92 
f 92/115/92 112/136/112 113/137/113 93/116/93 
f 93/116/93 113/137/113 114/138/114 94/117/94 
f 94/117/94 114/138/114 115/139/115 95/118/95 
f 95/118/95 115/139/115 116/140/116 96/119/96 
f 96/119/96 116/140/116 117/141/117 97/120/97 
f 97/120/97 117/141/117 118/142/118 98/121/98 
f 98/121/98 118/142/118 119/143/119 99/122/99 
f 99/122/99 119/143/119 120/144/120 100/123/100 
f 100/123/100 120/144/120 121/145/121 101/124/101 
f 101/124/101 121/145/121 102/146/102 82/125/82 
f 102/126/102 122/147/122 123/148/123 103/127/103 
f 103/127/103 123/148/123 124/149/124 104/128/104 
f 104/128/104 124/149/124 125/150/125 105/129/105 
f 105/129/105 125/150/125 126/151/126 106/130/106 
f 106/130/106 126/151/126 127/152/127 107/131/107 
f 107/131/107 127/152/127 128/153/128 108/132/108 
f 108/132/108 128/153/128 129/154/129 109/133/109 
f 109/133/109 129/154/129 130/155/130 110/134/110 
f 110/134/110 130/155/130 131/156/131 111/135/111 
f 111/135/111 131/156/131 132/157/132 112/136/112 
f 112/136/112 132/157/132 133/158/133 113/137/113 
f 113/137/113 133/158/133 134/159/134 114/138/114 
f 114/138/114 134/159/134 135/160/135 115/139/115 
f 115/139/115 135/160/135 136/161/136 116/140/116 
f 116/140/116 136/161/136 137/162/137 117/141/117 
f 117/141/117 137/162/137 138/163/138 118/142/118 
f 118/142/118 138/163/138 139/164/139 119/143/119 
f 119/143/119 139/164/139 140/165/140 120/144/120 
f 120/144/120 140/165/140 141/166/141 121/145/121 
f 121/145/121 141/166/141 122/167/122 102/146/102 
f 122/147/122 142/168/142 143/169/143 123/148/123 
f 123/148/123 143/169/143 144/170/144 124/149/124 
f 124/149/124 144/170/144 145/171/145 125/150/125 
f 125/150/125 145/171/145 146/172/146 126/151/126 
f 126/151/126 146/172/146 147/173/147 127/152/127 
f 127/152/127 147/173/147 148/174/148 128/153/128 
f 128/153/128 148/174/148 149/175/149 129/154/129 
f 129/154/129 149/175/149 150/176/150 130/155/130 
f 130/155/130 150/176/150 151/177/151 131/156/131 
f 131/156/131 151/177/151 152/178/152 132/157/132 
f 132/157/132 152/178/152 153/179/153 133/158/133 
f 133/158/133 153/179/153 154/180/154 134/159/134 
f 134/159/134 154/180/154 155/181/155 135/160/135 
f 135/160/135 155/181/155 156/182/156 136/161/136 
f 136/161/136 156/182/156 157/183/157 137/162/137 
f 137/162/137 157/183/157 158/184/158 138/163/138 
f 138/163/138 158/184/158 159/185/159 139/164/139 
f 139/164/139 159/185/159 160/186/160 140/165/140 
f 140/165/140 160/186/160 161/187/161 141/166/141 
f 141/166/141 161/187/161 142/188/142 122/167/122 
f 142/168/142 162/189/162 163/190/163 143/169/143 
f 143/169/143 163/190/163 164/191/164 144/170/144 
f 144/170/144 164/191/164 165/192/165 145/171/145 
f 145/171/145 165/192/165 166/193/166 146/172/146 
f 146/172/146 166/193/166 167/194/167 147/173/147 
f 147/173/147 167/194/167 168/195/168 148/174/148 
f 148/174/148 168/195/168 169/196/169 149/175/149 
f 149/175/149 169/196/169 170/197/170 150/176/150 
f 150/176/150 170/197/170 171/198/171 151/177/151 
f 151/177/151 171/198/171 172/199/172 152/178/152 
f 152/178/152 172/199/172 173/200/173 153/179/153 
f 153/179/153 173/200/173 174/201/174 154/180/154 
f 154/180/154 174/201/174 175/202/175 155/181/155 
f 155/181/155 175/202/175 176/203/176 156/182/156 
f 156/182/156 176/203/176 177/204/177 157/183/157 
f 157/183/157 177/204/177 178/205/178 158/184/158 
f 158/184/158 178/205/178 179/206/179 159/185/159 
f 159/185/159 179/206/179 180/207/180 160/186/160 
f 160/186/160 180/207/180 181/208/181 161/187/161 
f 161/187/161 181/208/181 162/209/162 142/188/142 
f 182/210/182 163/190/163 162/189/162 
f 182/211/182 164/191/164 163/190/163 
f 182/212/182 165/192/165 164/191/164 
f 182/213/182 166/193/166 165/192/165 
f 182/214/182 167/194/167 166/193/166 
f 182/215/182 168/195/168 167/194/167 
f 182/216/182 169/196/169 168/195/168 
f 182/217/182 170/197/170 169/196/169 
f 182/218/182 171/198/171 170/197/170 
f 182/219/182 172/199/172 171/198/171 
f 182/220/182 173/200/173 172/199/172 
f 182/221/182 174/201/174 173/200/173 
f 182/222/182 175/202/175 174/201/174 
f 182/223/182 176/203/176 175/202/175 
f 182/224/182 177/204/177 176/203/176 
f 182/225/182 178/205/178 177/204/177 
f 182/226/182 179/206/179 178/205/178 
f 182/227/182 180/207/180 179/206/179 
f 182/228/182 181/208/181 180/207/180 
f 182/229/182 162/209/162 181/208/181 
# 160 polygons - 40 triangles

