# 3ds Max Wavefront OBJ Exporter v0.99 - (c)2007 guruware
# File Created: 16.06.2024 16:38:38

#
# object Box1574
#

v  -0.9778 -2.9574 -1.8436
v  0.9777 -2.9574 -1.8436
v  -0.9778 2.2179 -1.8436
v  6.1111 -2.9574 1.8436
v  0.9777 2.2179 -1.8436
v  -6.1111 2.2179 1.8436
v  -0.9778 2.9574 -1.8436
v  -6.1111 2.9574 1.8436
v  0.9777 2.9574 -1.8436
v  6.1111 2.9574 1.8436
v  6.1111 2.2179 1.8436
v  -6.1111 -2.9574 1.8436
# 12 vertices

vn 0.3689 0.0000 0.9295
vn -0.3689 0.0000 0.9295
vn -0.6857 0.0000 0.7279
vn 0.6857 0.0000 0.7279
vn 0.0000 0.0000 1.0000
# 5 vertex normals

vt 0.3271 0.0104 0.0000
vt 0.4140 0.0104 0.0000
vt 0.3271 0.3120 0.0000
vt 0.7273 0.0104 0.0000
vt 0.4140 0.3120 0.0000
vt 0.0137 0.3120 0.0000
vt 0.3271 0.3551 0.0000
vt 0.0137 0.3551 0.0000
vt 0.4140 0.3551 0.0000
vt 0.7273 0.3551 0.0000
vt 0.7273 0.3120 0.0000
vt 0.0137 0.0104 0.0000
# 12 texture coords

o Box1574
g Box1574
s 8
f 1/1/1 2/2/2 3/3/1 
f 2/2/2 4/4/3 5/5/2 
f 3/3/1 6/6/4 1/1/1 
s off
f 6/6/4 7/7/4 8/8/4 
f 3/3/5 9/9/5 7/7/5 
f 5/5/3 10/10/3 9/9/3 
s 8
f 2/2/2 5/5/2 3/3/1 
f 4/4/3 11/11/3 5/5/2 
f 6/6/4 12/12/4 1/1/1 
s off
f 6/6/4 3/3/4 7/7/4 
f 3/3/5 5/5/5 9/9/5 
f 5/5/3 11/11/3 10/10/3 
# 0 polygons - 12 triangles

