# 3ds Max Wavefront OBJ Exporter v0.99 - (c)2007 guruware
# File Created: 16.06.2024 16:36:54

#
# object Box1579
#

v  -0.9096 0.6464 -0.0930
v  -2.9739 0.6464 0.0929
v  -0.9096 0.6464 0.0929
v  -0.9096 0.5707 -0.0955
v  -2.9739 0.6186 -0.0983
v  -0.9096 0.6186 -0.0983
v  -2.9739 0.5707 0.0955
v  -0.9096 0.6186 0.0982
v  -2.9739 0.6186 0.0982
v  -2.9739 0.6464 -0.0930
v  -0.9819 0.5707 -0.0456
v  -0.9819 0.1070 0.0455
v  -0.9819 0.1070 -0.0456
v  -0.9819 0.5707 0.0455
v  -1.0835 0.1070 0.0455
v  -1.0835 0.5707 0.0455
v  -1.0835 0.1070 -0.0456
v  -1.0835 0.5707 -0.0456
v  -0.9687 0.1004 -0.0509
v  -0.9687 0.1004 0.0508
v  -1.0967 0.1004 0.0508
v  -1.0967 0.1004 -0.0509
v  -0.9558 0.0939 -0.0430
v  -0.9558 0.0939 0.0429
v  -0.9558 0.0001 -0.0430
v  -0.9726 0.0939 0.0560
v  -1.0928 0.0939 0.0560
v  -0.9726 0.0001 0.0560
v  -1.1095 0.0939 0.0429
v  -1.1095 0.0939 -0.0430
v  -1.1095 0.0001 0.0429
v  -1.0928 0.0939 -0.0561
v  -0.9726 0.0939 -0.0561
v  -1.0928 0.0001 -0.0561
v  -0.9558 0.0001 0.0429
v  -1.0928 0.0001 0.0560
v  -1.1095 0.0001 -0.0430
v  -0.9726 0.0001 -0.0561
v  -6.2886 0.6464 0.0929
v  -5.0308 0.6464 -0.0930
v  -6.2886 0.6464 -0.0930
v  -6.2800 0.5707 0.0955
v  -5.0308 0.6186 0.0982
v  -6.2955 0.6186 0.0982
v  -5.0308 0.5707 -0.0955
v  -6.2955 0.6186 -0.0983
v  -5.0308 0.6186 -0.0983
v  -6.2800 0.5707 -0.0955
v  -5.0308 0.6464 0.0929
v  -6.2157 0.5707 0.0455
v  -6.2157 0.1070 -0.0456
v  -6.2157 0.1070 0.0455
v  -6.2157 0.5707 -0.0456
v  -6.1140 0.1070 -0.0456
v  -6.1140 0.5707 -0.0456
v  -6.1140 0.1070 0.0455
v  -6.1140 0.5707 0.0455
v  -6.2289 0.1004 0.0508
v  -6.2289 0.1004 -0.0509
v  -6.1010 0.1004 -0.0509
v  -6.1010 0.1004 0.0508
v  -6.2418 0.0939 0.0429
v  -6.2418 0.0939 -0.0430
v  -6.2418 0.0001 0.0429
v  -6.2250 0.0939 -0.0561
v  -6.1048 0.0939 -0.0561
v  -6.2250 0.0001 -0.0561
v  -6.0880 0.0939 -0.0430
v  -6.0880 0.0939 0.0429
v  -6.0880 0.0001 -0.0430
v  -6.1048 0.0939 0.0560
v  -6.2250 0.0939 0.0560
v  -6.1048 0.0001 0.0560
v  -6.2418 0.0001 -0.0430
v  -6.1048 0.0001 -0.0561
v  -6.0880 0.0001 0.0429
v  -6.2250 0.0001 0.0560
v  -2.9711 0.6464 -0.0930
v  -5.0354 0.6464 0.0929
v  -2.9711 0.6464 0.0929
v  -2.9711 0.5707 -0.0955
v  -5.0354 0.6186 -0.0983
v  -2.9711 0.6186 -0.0983
v  -5.0353 0.5707 0.0955
v  -2.9711 0.6186 0.0982
v  -5.0354 0.6186 0.0982
v  -5.0354 0.6464 -0.0930
v  -3.0433 0.5707 -0.0456
v  -3.0433 0.1070 0.0455
v  -3.0433 0.1070 -0.0456
v  -3.0433 0.5707 0.0455
v  -3.1451 0.1070 0.0455
v  -3.1451 0.5707 0.0455
v  -3.1451 0.1070 -0.0456
v  -3.1451 0.5707 -0.0456
v  -3.0303 0.1004 -0.0509
v  -3.0303 0.1004 0.0508
v  -3.1581 0.1004 0.0508
v  -3.1581 0.1004 -0.0509
v  -3.0173 0.0939 -0.0430
v  -3.0173 0.0939 0.0429
v  -3.0173 0.0001 -0.0430
v  -3.0340 0.0939 0.0560
v  -3.1544 0.0939 0.0560
v  -3.0340 0.0001 0.0560
v  -3.1711 0.0939 0.0429
v  -3.1711 0.0939 -0.0430
v  -3.1711 0.0001 0.0429
v  -3.1544 0.0939 -0.0561
v  -3.0340 0.0939 -0.0561
v  -3.1544 0.0001 -0.0561
v  -3.0173 0.0001 0.0429
v  -3.1544 0.0001 0.0560
v  -3.1711 0.0001 -0.0430
v  -3.0340 0.0001 -0.0561
v  1.1521 0.6464 -0.0930
v  -0.9123 0.6464 0.0929
v  1.1521 0.6464 0.0929
v  1.1520 0.5707 -0.0955
v  -0.9123 0.6186 -0.0983
v  1.1521 0.6186 -0.0983
v  -0.9123 0.5707 0.0955
v  1.1521 0.6186 0.0982
v  -0.9123 0.6186 0.0982
v  -0.9123 0.6464 -0.0930
v  1.0797 0.5707 -0.0456
v  1.0797 0.1070 0.0455
v  1.0797 0.1070 -0.0456
v  1.0797 0.5707 0.0455
v  0.9780 0.1070 0.0455
v  0.9780 0.5707 0.0455
v  0.9780 0.1070 -0.0456
v  0.9780 0.5707 -0.0456
v  1.0928 0.1004 -0.0509
v  1.0928 0.1004 0.0508
v  0.9649 0.1004 0.0508
v  0.9649 0.1004 -0.0509
v  1.1057 0.0939 -0.0430
v  1.1057 0.0939 0.0429
v  1.1057 0.0001 -0.0430
v  1.0889 0.0939 0.0560
v  0.9688 0.0939 0.0560
v  1.0889 0.0001 0.0560
v  0.9520 0.0939 0.0429
v  0.9520 0.0939 -0.0430
v  0.9520 0.0001 0.0429
v  0.9688 0.0939 -0.0561
v  1.0889 0.0939 -0.0561
v  0.9688 0.0001 -0.0561
v  1.1057 0.0001 0.0429
v  0.9688 0.0001 0.0560
v  0.9520 0.0001 -0.0430
v  1.0889 0.0001 -0.0561
v  3.2136 0.6464 -0.0930
v  1.1493 0.6464 0.0929
v  3.2136 0.6464 0.0929
v  3.2136 0.5707 -0.0955
v  1.1493 0.6186 -0.0983
v  3.2136 0.6186 -0.0983
v  1.1493 0.5707 0.0955
v  3.2136 0.6186 0.0982
v  1.1493 0.6186 0.0982
v  1.1493 0.6464 -0.0930
v  3.1412 0.5707 -0.0456
v  3.1412 0.1070 0.0455
v  3.1412 0.1070 -0.0456
v  3.1412 0.5707 0.0455
v  3.0396 0.1070 0.0455
v  3.0396 0.5707 0.0455
v  3.0396 0.1070 -0.0456
v  3.0396 0.5707 -0.0456
v  3.1544 0.1004 -0.0509
v  3.1544 0.1004 0.0508
v  3.0264 0.1004 0.0508
v  3.0264 0.1004 -0.0509
v  3.1674 0.0939 -0.0430
v  3.1674 0.0939 0.0429
v  3.1674 0.0001 -0.0430
v  3.1505 0.0939 0.0560
v  3.0303 0.0939 0.0560
v  3.1505 0.0001 0.0560
v  3.0136 0.0939 0.0429
v  3.0136 0.0939 -0.0430
v  3.0136 0.0001 0.0429
v  3.0303 0.0939 -0.0561
v  3.1505 0.0939 -0.0561
v  3.0303 0.0001 -0.0561
v  3.1674 0.0001 0.0429
v  3.0303 0.0001 0.0560
v  3.0136 0.0001 -0.0430
v  3.1505 0.0001 -0.0561
v  2.9671 0.6464 0.0929
v  5.0315 0.6464 -0.0930
v  2.9671 0.6464 -0.0930
v  2.9671 0.5707 0.0955
v  5.0315 0.6186 0.0982
v  2.9671 0.6186 0.0982
v  5.0315 0.5707 -0.0955
v  2.9671 0.6186 -0.0983
v  5.0315 0.6186 -0.0983
v  5.0315 0.6464 0.0929
v  3.0394 0.5707 0.0455
v  3.0394 0.1070 -0.0456
v  3.0394 0.1070 0.0455
v  3.0394 0.5707 -0.0456
v  3.1410 0.1070 -0.0456
v  3.1410 0.5707 -0.0456
v  3.1410 0.1070 0.0455
v  3.1410 0.5707 0.0455
v  3.0262 0.1004 0.0508
v  3.0262 0.1004 -0.0509
v  3.1542 0.1004 -0.0509
v  3.1542 0.1004 0.0508
v  3.0134 0.0939 0.0429
v  3.0134 0.0939 -0.0430
v  3.0134 0.0001 0.0429
v  3.0301 0.0939 -0.0561
v  3.1504 0.0939 -0.0561
v  3.0301 0.0001 -0.0561
v  3.1672 0.0939 -0.0430
v  3.1672 0.0939 0.0429
v  3.1672 0.0001 -0.0430
v  3.1504 0.0939 0.0560
v  3.0301 0.0939 0.0560
v  3.1504 0.0001 0.0560
v  3.0134 0.0001 -0.0430
v  3.1504 0.0001 -0.0561
v  3.1672 0.0001 0.0429
v  3.0301 0.0001 0.0560
v  6.2886 0.6464 -0.0930
v  5.0308 0.6464 0.0929
v  6.2886 0.6464 0.0929
v  6.2800 0.5707 -0.0955
v  5.0308 0.6186 -0.0983
v  6.2955 0.6186 -0.0983
v  5.0308 0.5707 0.0955
v  6.2955 0.6186 0.0982
v  5.0308 0.6186 0.0982
v  6.2800 0.5707 0.0955
v  5.0308 0.6464 -0.0930
v  6.2157 0.5707 -0.0456
v  6.2157 0.1070 0.0455
v  6.2157 0.1070 -0.0456
v  6.2157 0.5707 0.0455
v  6.1140 0.1070 0.0455
v  6.1140 0.5707 0.0455
v  6.1140 0.1070 -0.0456
v  6.1140 0.5707 -0.0456
v  6.2289 0.1004 -0.0509
v  6.2289 0.1004 0.0508
v  6.1010 0.1004 0.0508
v  6.1010 0.1004 -0.0509
v  6.2418 0.0939 -0.0430
v  6.2418 0.0939 0.0429
v  6.2418 0.0001 -0.0430
v  6.2250 0.0939 0.0560
v  6.1048 0.0939 0.0560
v  6.2250 0.0001 0.0560
v  6.0880 0.0939 0.0429
v  6.0880 0.0939 -0.0430
v  6.0880 0.0001 0.0429
v  6.1048 0.0939 -0.0561
v  6.2250 0.0939 -0.0561
v  6.1048 0.0001 -0.0561
v  6.2418 0.0001 0.0429
v  6.1048 0.0001 0.0560
v  6.0880 0.0001 -0.0430
v  6.2250 0.0001 -0.0561
v  -2.9739 0.5707 -0.0955
v  -0.9096 0.5707 0.0955
v  -5.0308 0.5707 0.0955
v  -5.0353 0.5707 -0.0955
v  -2.9711 0.5707 0.0955
v  -0.9123 0.5707 -0.0955
v  1.1520 0.5707 0.0955
v  1.1493 0.5707 -0.0955
v  3.2136 0.5707 0.0955
v  5.0315 0.5707 0.0955
v  2.9671 0.5707 -0.0955
v  5.0308 0.5707 -0.0955
# 280 vertices

vn 0.0000 1.0000 -0.0000
vn 0.0000 -0.0585 -0.9983
vn 0.0000 0.0646 -0.9979
vn 0.0000 -0.0564 0.9984
vn 0.0000 0.0656 0.9978
vn 0.0000 0.1867 -0.9824
vn 0.0000 0.1867 0.9824
vn 1.0000 0.0000 -0.0000
vn 0.0000 0.0000 1.0000
vn -1.0000 0.0000 -0.0000
vn 0.0000 0.0000 -1.0000
vn 0.4472 0.8944 -0.0000
vn 0.4485 0.8938 -0.0007
vn 0.4486 0.8938 0.0002
vn 0.0000 0.6262 0.7797
vn 0.0002 0.6253 0.7803
vn -0.0001 0.6251 0.7805
vn -0.4472 0.8944 -0.0000
vn -0.4485 0.8938 0.0007
vn -0.4486 0.8938 -0.0002
vn 0.0000 0.6262 -0.7797
vn -0.0002 0.6253 -0.7803
vn 0.0001 0.6251 -0.7805
vn 0.6140 0.0538 0.7875
vn 0.5948 0.2533 0.7629
vn 0.6125 0.0875 0.7856
vn -0.6125 0.0875 0.7856
vn -0.5949 0.2533 0.7629
vn -0.6140 0.0538 0.7875
vn -0.6140 0.0538 -0.7875
vn -0.5949 0.2533 -0.7629
vn -0.6125 0.0875 -0.7856
vn 0.6125 0.0875 -0.7856
vn 0.5948 0.2533 -0.7629
vn 0.6140 0.0538 -0.7875
vn 0.6149 0.0000 0.7886
vn -0.6149 0.0000 0.7886
vn -0.6149 0.0000 -0.7886
vn 0.6149 0.0000 -0.7886
vn 0.0000 0.0693 0.9976
vn 0.0000 0.0683 -0.9977
vn -0.9512 -0.3084 -0.0000
vn -0.9988 -0.0498 -0.0000
vn -0.9988 -0.0496 -0.0000
vn -0.9715 0.2369 -0.0000
vn -0.4499 0.8931 -0.0000
vn -0.4486 0.8937 -0.0007
vn -0.4486 0.8937 0.0002
vn 0.4499 0.8931 -0.0000
vn 0.4499 0.8931 0.0000
vn -0.6140 0.0555 -0.7874
vn -0.5935 0.2619 -0.7611
vn -0.6124 0.0911 -0.7853
vn 0.5949 0.2533 -0.7629
vn 0.5949 0.2533 0.7629
vn -0.6124 0.0911 0.7853
vn -0.5935 0.2619 0.7611
vn -0.6140 0.0555 0.7874
vn 0.0000 0.0647 -0.9979
vn 0.0000 0.0657 0.9978
vn -0.4499 0.8931 0.0000
vn 0.6162 0.0552 0.7856
vn 0.5961 0.2594 0.7599
vn 0.6147 0.0901 0.7836
vn -0.6147 0.0901 0.7836
vn -0.5961 0.2594 0.7599
vn -0.6162 0.0552 0.7856
vn -0.6162 0.0552 -0.7856
vn -0.5961 0.2594 -0.7599
vn -0.6147 0.0901 -0.7836
vn 0.6147 0.0901 -0.7836
vn 0.5961 0.2594 -0.7599
vn 0.6162 0.0552 -0.7856
vn 0.6172 0.0000 0.7868
vn -0.6172 0.0000 0.7868
vn -0.6172 0.0000 -0.7868
vn 0.6172 0.0000 -0.7868
vn 0.0000 0.0645 -0.9979
vn 0.9512 -0.3084 -0.0000
vn 0.9988 -0.0496 -0.0000
vn 0.9988 -0.0498 -0.0000
vn 0.9715 0.2369 -0.0000
vn 0.4486 0.8937 0.0007
vn 0.4486 0.8937 -0.0002
vn 0.6140 0.0555 0.7874
vn 0.5935 0.2619 0.7611
vn 0.6124 0.0911 0.7853
vn 0.6124 0.0911 -0.7853
vn 0.5935 0.2619 -0.7611
vn 0.6140 0.0555 -0.7874
vn 0.4483 0.8939 -0.0035
vn 0.4496 0.8932 0.0004
vn 0.0010 0.6250 0.7806
vn 0.0005 0.6252 0.7804
vn -0.0001 0.6247 0.7808
vn -0.4483 0.8939 0.0035
vn -0.4496 0.8932 -0.0004
vn -0.0010 0.6250 -0.7806
vn -0.0005 0.6252 -0.7804
vn 0.0001 0.6247 -0.7808
vn -0.4488 0.8936 -0.0033
vn -0.4476 0.8942 0.0004
vn 0.4499 0.8931 -0.0001
vn 0.4500 0.8930 0.0000
vn -0.4499 0.8931 0.0001
vn -0.4500 0.8930 -0.0000
vn 0.4488 0.8936 0.0033
vn 0.4476 0.8942 -0.0004
# 108 vertex normals

vt 0.6017 0.6718 0.0000
vt 0.6995 0.6850 0.0000
vt 0.6015 0.6831 0.0000
vt 0.6018 0.6671 0.0000
vt 0.6998 0.6719 0.0000
vt 0.6017 0.6701 0.0000
vt 0.6994 0.6896 0.0000
vt 0.6015 0.6849 0.0000
vt 0.6995 0.6867 0.0000
vt 0.6997 0.6736 0.0000
vt 0.1599 0.7094 0.0000
vt 0.1414 0.6947 0.0000
vt 0.1774 0.6949 0.0000
vt 0.1558 0.7127 0.0000
vt 0.1414 0.7304 0.0000
vt 0.1589 0.7159 0.0000
vt 0.1774 0.7306 0.0000
vt 0.1630 0.7127 0.0000
vt 0.1769 0.6941 0.0000
vt 0.1408 0.6943 0.0000
vt 0.1419 0.7312 0.0000
vt 0.1780 0.7311 0.0000
vt 0.1741 0.6928 0.0000
vt 0.1442 0.6929 0.0000
vt 0.1769 0.6856 0.0000
vt 0.1402 0.6942 0.0000
vt 0.1403 0.7308 0.0000
vt 0.1333 0.6933 0.0000
vt 0.1447 0.7325 0.0000
vt 0.1746 0.7325 0.0000
vt 0.1419 0.7397 0.0000
vt 0.1786 0.7311 0.0000
vt 0.1785 0.6945 0.0000
vt 0.1855 0.7321 0.0000
vt 0.1407 0.6862 0.0000
vt 0.1339 0.7341 0.0000
vt 0.1781 0.7392 0.0000
vt 0.1849 0.6912 0.0000
vt 0.6918 0.6595 0.0000
vt 0.6210 0.6461 0.0000
vt 0.6915 0.6464 0.0000
vt 0.6949 0.6649 0.0000
vt 0.6211 0.6619 0.0000
vt 0.6930 0.6614 0.0000
vt 0.6211 0.6405 0.0000
vt 0.6928 0.6445 0.0000
vt 0.6210 0.6440 0.0000
vt 0.6949 0.6411 0.0000
vt 0.6211 0.6599 0.0000
vt 0.0263 0.7582 0.0000
vt 0.0136 0.7429 0.0000
vt 0.0433 0.7493 0.0000
vt 0.0223 0.7602 0.0000
vt 0.0078 0.7721 0.0000
vt 0.0248 0.7632 0.0000
vt 0.0375 0.7786 0.0000
vt 0.0287 0.7612 0.0000
vt 0.0434 0.7483 0.0000
vt 0.0137 0.7422 0.0000
vt 0.0081 0.7729 0.0000
vt 0.0379 0.7790 0.0000
vt 0.0417 0.7467 0.0000
vt 0.0165 0.7415 0.0000
vt 0.0454 0.7414 0.0000
vt 0.0131 0.7421 0.0000
vt 0.0068 0.7722 0.0000
vt 0.0077 0.7399 0.0000
vt 0.0098 0.7744 0.0000
vt 0.0350 0.7797 0.0000
vt 0.0062 0.7798 0.0000
vt 0.0384 0.7791 0.0000
vt 0.0447 0.7490 0.0000
vt 0.0438 0.7813 0.0000
vt 0.0151 0.7354 0.0000
vt 0.0010 0.7734 0.0000
vt 0.0364 0.7857 0.0000
vt 0.0505 0.7477 0.0000
vt 0.6998 0.6690 0.0000
vt 0.6014 0.6878 0.0000
vt 0.6212 0.6654 0.0000
# 80 texture coords

o Box1579
g Box1579
s 1
f 1/1/1 2/2/1 3/3/1 
s 2
f 4/4/2 5/5/3 6/6/3 
f 7/7/4 8/8/5 9/9/5 
f 6/6/3 10/10/6 1/1/6 
f 9/9/5 3/3/7 2/2/7 
f 11/11/8 12/12/8 13/13/8 
s 4
f 14/14/9 15/15/9 12/12/9 
s 2
f 16/16/10 17/17/10 15/15/10 
s 4
f 18/18/11 13/13/11 17/17/11 
s 1
f 13/13/12 12/12/13 19/19/14 
s 8
f 12/12/15 15/15/16 20/20/17 
s 1
f 15/15/18 17/17/19 21/21/20 
s 8
f 17/17/21 13/13/22 22/22/23 
s 2
f 23/23/8 24/24/8 25/25/8 
f 26/26/9 27/27/9 28/28/9 
f 29/29/10 30/30/10 31/31/10 
f 32/32/11 33/33/11 34/34/11 
s 4
f 24/24/24 20/20/25 26/26/26 
f 27/27/27 21/21/28 29/29/29 
f 30/30/30 22/22/31 32/32/32 
f 33/33/33 19/19/34 23/23/35 
f 35/35/36 26/26/26 28/28/36 
f 36/36/37 29/29/29 31/31/37 
f 37/37/38 32/32/32 34/34/38 
f 38/38/39 23/23/35 25/25/39 
s 1
f 39/39/1 40/40/1 41/41/1 
s 2
f 42/42/4 43/43/5 44/44/40 
f 45/45/2 46/46/41 47/47/3 
s 4
f 48/48/42 44/44/43 46/46/44 
s 2
f 44/44/40 49/49/7 39/39/7 
f 47/47/3 41/41/6 40/40/6 
s 4
f 46/46/44 39/39/45 41/41/45 
s 2
f 50/50/10 51/51/10 52/52/10 
s 4
f 53/53/11 54/54/11 51/51/11 
s 2
f 55/55/8 56/56/8 54/54/8 
s 4
f 57/57/9 52/52/9 56/56/9 
s 1
f 52/52/46 51/51/47 58/58/48 
s 8
f 51/51/21 54/54/22 59/59/23 
s 1
f 54/54/49 56/56/49 60/60/50 
s 8
f 56/56/15 52/52/16 61/61/17 
s 2
f 62/62/10 63/63/10 64/64/10 
f 65/65/11 66/66/11 67/67/11 
f 68/68/8 69/69/8 70/70/8 
f 71/71/9 72/72/9 73/73/9 
s 4
f 63/63/51 59/59/52 65/65/53 
f 66/66/33 60/60/54 68/68/35 
f 69/69/24 61/61/55 71/71/26 
f 72/72/56 58/58/57 62/62/58 
f 74/74/38 65/65/53 67/67/38 
f 75/75/39 68/68/35 70/70/39 
f 76/76/36 71/71/26 73/73/36 
f 77/77/37 62/62/58 64/64/37 
s 1
f 78/1/1 79/2/1 80/3/1 
s 2
f 81/4/2 82/5/59 83/6/59 
f 84/7/4 85/8/60 86/9/60 
f 83/6/59 87/10/6 78/1/6 
f 86/9/60 80/3/7 79/2/7 
f 88/11/8 89/12/8 90/13/8 
s 4
f 91/14/9 92/15/9 89/12/9 
s 2
f 93/16/10 94/17/10 92/15/10 
s 4
f 95/18/11 90/13/11 94/17/11 
s 1
f 90/13/49 89/12/49 96/19/50 
s 8
f 89/12/15 92/15/16 97/20/17 
s 1
f 92/15/46 94/17/61 98/21/46 
s 8
f 94/17/21 90/13/22 99/22/23 
s 2
f 100/23/8 101/24/8 102/25/8 
f 103/26/9 104/27/9 105/28/9 
f 106/29/10 107/30/10 108/31/10 
f 109/32/11 110/33/11 111/34/11 
s 4
f 101/24/62 97/20/63 103/26/64 
f 104/27/65 98/21/66 106/29/67 
f 107/30/68 99/22/69 109/32/70 
f 110/33/71 96/19/72 100/23/73 
f 112/35/74 103/26/64 105/28/74 
f 113/36/75 106/29/67 108/31/75 
f 114/37/76 109/32/70 111/34/76 
f 115/38/77 100/23/73 102/25/77 
s 1
f 116/1/1 117/2/1 118/3/1 
s 2
f 119/4/2 120/5/3 121/6/59 
f 122/7/4 123/8/60 124/9/5 
f 121/6/59 125/10/6 116/1/6 
f 124/9/5 118/3/7 117/2/7 
f 126/11/8 127/12/8 128/13/8 
s 4
f 129/14/9 130/15/9 127/12/9 
s 2
f 131/16/10 132/17/10 130/15/10 
s 4
f 133/18/11 128/13/11 132/17/11 
s 1
f 128/13/49 127/12/49 134/19/50 
s 8
f 127/12/15 130/15/16 135/20/17 
s 1
f 130/15/46 132/17/61 136/21/46 
s 8
f 132/17/21 128/13/22 137/22/23 
s 2
f 138/23/8 139/24/8 140/25/8 
f 141/26/9 142/27/9 143/28/9 
f 144/29/10 145/30/10 146/31/10 
f 147/32/11 148/33/11 149/34/11 
s 4
f 139/24/24 135/20/25 141/26/26 
f 142/27/65 136/21/66 144/29/67 
f 145/30/68 137/22/69 147/32/70 
f 148/33/33 134/19/34 138/23/35 
f 150/35/36 141/26/26 143/28/36 
f 151/36/75 144/29/67 146/31/75 
f 152/37/76 147/32/70 149/34/76 
f 153/38/39 138/23/35 140/25/39 
s 1
f 154/1/1 155/2/1 156/3/1 
s 2
f 157/4/2 158/5/3 159/6/3 
f 160/7/4 161/8/5 162/9/5 
f 159/6/3 163/10/6 154/1/6 
f 162/9/5 156/3/7 155/2/7 
f 164/11/8 165/12/8 166/13/8 
s 4
f 167/14/9 168/15/9 165/12/9 
s 2
f 169/16/10 170/17/10 168/15/10 
s 4
f 171/18/11 166/13/11 170/17/11 
s 1
f 166/13/12 165/12/13 172/19/14 
s 8
f 165/12/15 168/15/16 173/20/17 
s 1
f 168/15/18 170/17/19 174/21/20 
s 8
f 170/17/21 166/13/22 175/22/23 
s 2
f 176/23/8 177/24/8 178/25/8 
f 179/26/9 180/27/9 181/28/9 
f 182/29/10 183/30/10 184/31/10 
f 185/32/11 186/33/11 187/34/11 
s 4
f 177/24/24 173/20/25 179/26/26 
f 180/27/27 174/21/28 182/29/29 
f 183/30/30 175/22/31 185/32/32 
f 186/33/33 172/19/34 176/23/35 
f 188/35/36 179/26/26 181/28/36 
f 189/36/37 182/29/29 184/31/37 
f 190/37/38 185/32/32 187/34/38 
f 191/38/39 176/23/35 178/25/39 
s 1
f 192/1/1 193/2/1 194/3/1 
s 2
f 195/4/4 196/5/5 197/6/5 
f 198/7/2 199/8/78 200/9/3 
f 197/6/5 201/10/7 192/1/7 
f 200/9/3 194/3/6 193/2/6 
f 202/11/10 203/12/10 204/13/10 
s 4
f 205/14/11 206/15/11 203/12/11 
s 2
f 207/16/8 208/17/8 206/15/8 
s 4
f 209/18/9 204/13/9 208/17/9 
s 1
f 204/13/18 203/12/19 210/19/20 
s 8
f 203/12/21 206/15/22 211/20/23 
s 1
f 206/15/12 208/17/13 212/21/14 
s 8
f 208/17/15 204/13/16 213/22/17 
s 2
f 214/23/10 215/24/10 216/25/10 
f 217/26/11 218/27/11 219/28/11 
f 220/29/8 221/30/8 222/31/8 
f 223/32/9 224/33/9 225/34/9 
s 4
f 215/24/30 211/20/31 217/26/32 
f 218/27/33 212/21/34 220/29/35 
f 221/30/24 213/22/25 223/32/26 
f 224/33/27 210/19/28 214/23/29 
f 226/35/38 217/26/32 219/28/38 
f 227/36/39 220/29/35 222/31/39 
f 228/37/36 223/32/26 225/34/36 
f 229/38/37 214/23/29 216/25/37 
s 1
f 230/39/1 231/40/1 232/41/1 
s 2
f 233/42/2 234/43/3 235/44/41 
f 236/45/4 237/46/40 238/47/5 
s 4
f 239/48/79 235/44/80 237/46/81 
s 2
f 235/44/41 240/49/6 230/39/6 
f 238/47/5 232/41/7 231/40/7 
s 4
f 237/46/81 230/39/82 232/41/82 
s 2
f 241/50/8 242/51/8 243/52/8 
s 4
f 244/53/9 245/54/9 242/51/9 
s 2
f 246/55/10 247/56/10 245/54/10 
s 4
f 248/57/11 243/52/11 247/56/11 
s 1
f 243/52/49 242/51/83 249/58/84 
s 8
f 242/51/15 245/54/16 250/59/17 
s 1
f 245/54/46 247/56/61 251/60/46 
s 8
f 247/56/21 243/52/22 252/61/23 
s 2
f 253/62/8 254/63/8 255/64/8 
f 256/65/9 257/66/9 258/67/9 
f 259/68/10 260/69/10 261/70/10 
f 262/71/11 263/72/11 264/73/11 
s 4
f 254/63/85 250/59/86 256/65/87 
f 257/66/27 251/60/28 259/68/29 
f 260/69/30 252/61/31 262/71/32 
f 263/72/88 249/58/89 253/62/90 
f 265/74/36 256/65/87 258/67/36 
f 266/75/37 259/68/29 261/70/37 
f 267/76/38 262/71/32 264/73/38 
f 268/77/39 253/62/90 255/64/39 
s 1
f 1/1/1 10/10/1 2/2/1 
s 2
f 4/4/2 269/78/2 5/5/3 
f 7/7/4 270/79/4 8/8/5 
f 6/6/3 5/5/3 10/10/6 
f 9/9/5 8/8/5 3/3/7 
f 11/11/8 14/14/8 12/12/8 
s 4
f 14/14/9 16/16/9 15/15/9 
s 2
f 16/16/10 18/18/10 17/17/10 
s 4
f 18/18/11 11/11/11 13/13/11 
s 1
f 12/12/13 20/20/91 24/24/13 
f 12/12/13 24/24/13 23/23/92 
f 12/12/13 23/23/92 19/19/14 
s 8
f 15/15/16 21/21/93 27/27/94 
f 15/15/16 27/27/94 26/26/95 
f 15/15/16 26/26/95 20/20/17 
s 1
f 17/17/19 22/22/96 30/30/19 
f 17/17/19 30/30/19 29/29/97 
f 17/17/19 29/29/97 21/21/20 
s 8
f 13/13/22 19/19/98 33/33/99 
f 13/13/22 33/33/99 32/32/100 
f 13/13/22 32/32/100 22/22/23 
s 2
f 24/24/8 35/35/8 25/25/8 
f 27/27/9 36/36/9 28/28/9 
f 30/30/10 37/37/10 31/31/10 
f 33/33/11 38/38/11 34/34/11 
s 4
f 35/35/36 24/24/24 26/26/26 
f 36/36/37 27/27/27 29/29/29 
f 37/37/38 30/30/30 32/32/32 
f 38/38/39 33/33/33 23/23/35 
s 1
f 39/39/1 49/49/1 40/40/1 
s 2
f 42/42/4 271/80/4 43/43/5 
f 45/45/2 48/48/2 46/46/41 
s 4
f 48/48/42 42/42/42 44/44/43 
s 2
f 44/44/40 43/43/5 49/49/7 
f 47/47/3 46/46/41 41/41/6 
s 4
f 46/46/44 44/44/43 39/39/45 
s 2
f 50/50/10 53/53/10 51/51/10 
s 4
f 53/53/11 55/55/11 54/54/11 
s 2
f 55/55/8 57/57/8 56/56/8 
s 4
f 57/57/9 50/50/9 52/52/9 
s 1
f 51/51/47 59/59/101 63/63/47 
f 51/51/47 63/63/47 62/62/102 
f 51/51/47 62/62/102 58/58/48 
s 8
f 54/54/22 60/60/98 66/66/99 
f 54/54/22 66/66/99 65/65/100 
f 54/54/22 65/65/100 59/59/23 
s 1
f 56/56/49 61/61/103 69/69/49 
f 56/56/49 69/69/49 68/68/104 
f 56/56/49 68/68/104 60/60/50 
s 8
f 52/52/16 58/58/93 72/72/94 
f 52/52/16 72/72/94 71/71/95 
f 52/52/16 71/71/95 61/61/17 
s 2
f 63/63/10 74/74/10 64/64/10 
f 66/66/11 75/75/11 67/67/11 
f 69/69/8 76/76/8 70/70/8 
f 72/72/9 77/77/9 73/73/9 
s 4
f 74/74/38 63/63/51 65/65/53 
f 75/75/39 66/66/33 68/68/35 
f 76/76/36 69/69/24 71/71/26 
f 77/77/37 72/72/56 62/62/58 
s 1
f 78/1/1 87/10/1 79/2/1 
s 2
f 81/4/2 272/78/2 82/5/59 
f 84/7/4 273/79/4 85/8/60 
f 83/6/59 82/5/59 87/10/6 
f 86/9/60 85/8/60 80/3/7 
f 88/11/8 91/14/8 89/12/8 
s 4
f 91/14/9 93/16/9 92/15/9 
s 2
f 93/16/10 95/18/10 94/17/10 
s 4
f 95/18/11 88/11/11 90/13/11 
s 1
f 89/12/49 97/20/103 101/24/49 
f 89/12/49 101/24/49 100/23/104 
f 89/12/49 100/23/104 96/19/50 
s 8
f 92/15/16 98/21/93 104/27/94 
f 92/15/16 104/27/94 103/26/95 
f 92/15/16 103/26/95 97/20/17 
s 1
f 94/17/61 99/22/105 107/30/61 
f 94/17/61 107/30/61 106/29/106 
f 94/17/61 106/29/106 98/21/46 
s 8
f 90/13/22 96/19/98 110/33/99 
f 90/13/22 110/33/99 109/32/100 
f 90/13/22 109/32/100 99/22/23 
s 2
f 101/24/8 112/35/8 102/25/8 
f 104/27/9 113/36/9 105/28/9 
f 107/30/10 114/37/10 108/31/10 
f 110/33/11 115/38/11 111/34/11 
s 4
f 112/35/74 101/24/62 103/26/64 
f 113/36/75 104/27/65 106/29/67 
f 114/37/76 107/30/68 109/32/70 
f 115/38/77 110/33/71 100/23/73 
s 1
f 116/1/1 125/10/1 117/2/1 
s 2
f 119/4/2 274/78/2 120/5/3 
f 122/7/4 275/79/4 123/8/60 
f 121/6/59 120/5/3 125/10/6 
f 124/9/5 123/8/60 118/3/7 
f 126/11/8 129/14/8 127/12/8 
s 4
f 129/14/9 131/16/9 130/15/9 
s 2
f 131/16/10 133/18/10 132/17/10 
s 4
f 133/18/11 126/11/11 128/13/11 
s 1
f 127/12/49 135/20/103 139/24/49 
f 127/12/49 139/24/49 138/23/104 
f 127/12/49 138/23/104 134/19/50 
s 8
f 130/15/16 136/21/93 142/27/94 
f 130/15/16 142/27/94 141/26/95 
f 130/15/16 141/26/95 135/20/17 
s 1
f 132/17/61 137/22/105 145/30/61 
f 132/17/61 145/30/61 144/29/106 
f 132/17/61 144/29/106 136/21/46 
s 8
f 128/13/22 134/19/98 148/33/99 
f 128/13/22 148/33/99 147/32/100 
f 128/13/22 147/32/100 137/22/23 
s 2
f 139/24/8 150/35/8 140/25/8 
f 142/27/9 151/36/9 143/28/9 
f 145/30/10 152/37/10 146/31/10 
f 148/33/11 153/38/11 149/34/11 
s 4
f 150/35/36 139/24/24 141/26/26 
f 151/36/75 142/27/65 144/29/67 
f 152/37/76 145/30/68 147/32/70 
f 153/38/39 148/33/33 138/23/35 
s 1
f 154/1/1 163/10/1 155/2/1 
s 2
f 157/4/2 276/78/2 158/5/3 
f 160/7/4 277/79/4 161/8/5 
f 159/6/3 158/5/3 163/10/6 
f 162/9/5 161/8/5 156/3/7 
f 164/11/8 167/14/8 165/12/8 
s 4
f 167/14/9 169/16/9 168/15/9 
s 2
f 169/16/10 171/18/10 170/17/10 
s 4
f 171/18/11 164/11/11 166/13/11 
s 1
f 165/12/13 173/20/91 177/24/13 
f 165/12/13 177/24/13 176/23/92 
f 165/12/13 176/23/92 172/19/14 
s 8
f 168/15/16 174/21/93 180/27/94 
f 168/15/16 180/27/94 179/26/95 
f 168/15/16 179/26/95 173/20/17 
s 1
f 170/17/19 175/22/96 183/30/19 
f 170/17/19 183/30/19 182/29/97 
f 170/17/19 182/29/97 174/21/20 
s 8
f 166/13/22 172/19/98 186/33/99 
f 166/13/22 186/33/99 185/32/100 
f 166/13/22 185/32/100 175/22/23 
s 2
f 177/24/8 188/35/8 178/25/8 
f 180/27/9 189/36/9 181/28/9 
f 183/30/10 190/37/10 184/31/10 
f 186/33/11 191/38/11 187/34/11 
s 4
f 188/35/36 177/24/24 179/26/26 
f 189/36/37 180/27/27 182/29/29 
f 190/37/38 183/30/30 185/32/32 
f 191/38/39 186/33/33 176/23/35 
s 1
f 192/1/1 201/10/1 193/2/1 
s 2
f 195/4/4 278/78/4 196/5/5 
f 198/7/2 279/79/2 199/8/78 
f 197/6/5 196/5/5 201/10/7 
f 200/9/3 199/8/78 194/3/6 
f 202/11/10 205/14/10 203/12/10 
s 4
f 205/14/11 207/16/11 206/15/11 
s 2
f 207/16/8 209/18/8 208/17/8 
s 4
f 209/18/9 202/11/9 204/13/9 
s 1
f 203/12/19 211/20/96 215/24/19 
f 203/12/19 215/24/19 214/23/97 
f 203/12/19 214/23/97 210/19/20 
s 8
f 206/15/22 212/21/98 218/27/99 
f 206/15/22 218/27/99 217/26/100 
f 206/15/22 217/26/100 211/20/23 
s 1
f 208/17/13 213/22/91 221/30/13 
f 208/17/13 221/30/13 220/29/92 
f 208/17/13 220/29/92 212/21/14 
s 8
f 204/13/16 210/19/93 224/33/94 
f 204/13/16 224/33/94 223/32/95 
f 204/13/16 223/32/95 213/22/17 
s 2
f 215/24/10 226/35/10 216/25/10 
f 218/27/11 227/36/11 219/28/11 
f 221/30/8 228/37/8 222/31/8 
f 224/33/9 229/38/9 225/34/9 
s 4
f 226/35/38 215/24/30 217/26/32 
f 227/36/39 218/27/33 220/29/35 
f 228/37/36 221/30/24 223/32/26 
f 229/38/37 224/33/27 214/23/29 
s 1
f 230/39/1 240/49/1 231/40/1 
s 2
f 233/42/2 280/80/2 234/43/3 
f 236/45/4 239/48/4 237/46/40 
s 4
f 239/48/79 233/42/79 235/44/80 
s 2
f 235/44/41 234/43/3 240/49/6 
f 238/47/5 237/46/40 232/41/7 
s 4
f 237/46/81 235/44/80 230/39/82 
s 2
f 241/50/8 244/53/8 242/51/8 
s 4
f 244/53/9 246/55/9 245/54/9 
s 2
f 246/55/10 248/57/10 247/56/10 
s 4
f 248/57/11 241/50/11 243/52/11 
s 1
f 242/51/83 250/59/107 254/63/83 
f 242/51/83 254/63/83 253/62/108 
f 242/51/83 253/62/108 249/58/84 
s 8
f 245/54/16 251/60/93 257/66/94 
f 245/54/16 257/66/94 256/65/95 
f 245/54/16 256/65/95 250/59/17 
s 1
f 247/56/61 252/61/105 260/69/61 
f 247/56/61 260/69/61 259/68/106 
f 247/56/61 259/68/106 251/60/46 
s 8
f 243/52/22 249/58/98 263/72/99 
f 243/52/22 263/72/99 262/71/100 
f 243/52/22 262/71/100 252/61/23 
s 2
f 254/63/8 265/74/8 255/64/8 
f 257/66/9 266/75/9 258/67/9 
f 260/69/10 267/76/10 261/70/10 
f 263/72/11 268/77/11 264/73/11 
s 4
f 265/74/36 254/63/85 256/65/87 
f 266/75/37 257/66/27 259/68/29 
f 267/76/38 260/69/30 262/71/32 
f 268/77/39 263/72/88 253/62/90 
# 0 polygons - 386 triangles

